<?xml version="1.0" encoding="UTF-8"?>
<svg width="100px" height="100px" viewBox="0 0 100 100" version="1.1" xmlns="http://www.w3.org/2000/svg" xmlns:xlink="http://www.w3.org/1999/xlink">
    <title>graphics / tools / tool-github</title>
    <defs>
        <polygon id="path-1" points="0 0 90 0 90 87.7791795 0 87.7791795"></polygon>
    </defs>
    <g id="graphics-/-tools-/-tool-github" stroke="none" stroke-width="1" fill="none" fill-rule="evenodd">
        <g id="Group-3" transform="translate(5.000000, 6.000000)">
            <mask id="mask-2" fill="white">
                <use xlink:href="#path-1"></use>
            </mask>
            <g id="Clip-2"></g>
            <path d="M44.9965468,0 C20.1473364,0 0,20.1473364 0,45.0020719 C0,64.8842028 12.8928588,81.7496201 30.7748976,87.7029329 C33.0263824,88.1145541 33.8468622,86.7249873 33.8468622,85.5315622 C33.8468622,84.4652148 33.8081864,81.6335927 33.7860859,77.8792762 C21.268935,80.5976334 18.6279295,71.8458493 18.6279295,71.8458493 C16.5808739,66.6494774 13.6304618,65.2626732 13.6304618,65.2626732 C9.54463834,62.4724895 13.9398683,62.5277407 13.9398683,62.5277407 C18.4566509,62.8454349 20.8324508,67.1660758 20.8324508,67.1660758 C24.8464478,74.042083 31.366085,72.0558037 33.9297389,70.9065795 C34.3385975,67.9976058 35.498872,66.014089 36.786224,64.8897279 C26.7940513,63.7543165 16.2880427,59.8922602 16.2880427,42.6483724 C16.2880427,37.736544 18.0422671,33.7197845 20.9208527,30.5732308 C20.4567429,29.4350569 18.9124729,24.8602606 21.3600995,18.6638427 C21.3600995,18.6638427 25.139279,17.4538423 33.7363599,23.2773148 C37.3249229,22.2772688 41.1759289,21.7800083 45.0020719,21.7634329 C48.8226898,21.7800083 52.6736958,22.2772688 56.267784,23.2773148 C64.8593397,17.4538423 68.6302316,18.6638427 68.6302316,18.6638427 C71.0861458,24.8602606 69.5418758,29.4350569 69.077766,30.5732308 C71.9618767,33.7197845 73.7050509,37.736544 73.7050509,42.6483724 C73.7050509,59.9364612 63.182467,63.7405037 53.1571435,64.8538146 C54.77324,66.2433814 56.2125328,68.9893642 56.2125328,73.1884525 C56.2125328,79.2025416 56.1572816,84.0563562 56.1572816,85.5315622 C56.1572816,86.7360376 56.9667112,88.1366545 59.2513467,87.6974078 C77.1195727,81.7330448 90.0013813,64.8786777 90.0013813,45.0020719 C90.0013813,20.1473364 69.8512823,0 44.9965468,0" id="Fill-1" fill="#221E1B" mask="url(#mask-2)"></path>
        </g>
    </g>
</svg>