<?xml version="1.0" encoding="UTF-8"?>
<svg width="100px" height="100px" viewBox="0 0 100 100" version="1.1" xmlns="http://www.w3.org/2000/svg" xmlns:xlink="http://www.w3.org/1999/xlink">
    <title>graphics / tools / tool-gatsby</title>
    <g id="graphics-/-tools-/-tool-gatsby" stroke="none" stroke-width="1" fill="none" fill-rule="evenodd">
        <g id="Gatsby_Monogram" transform="translate(5.000000, 5.000000)" fill-rule="nonzero">
            <circle id="Oval" fill="#663399" cx="45" cy="45" r="45"></circle>
            <g id="Group" transform="translate(9.642857, 9.642857)" fill="#FFFFFF">
                <path d="M10.2857143,60.4285714 C3.53571429,53.6785714 0,44.6785714 0,36 L35.0357143,70.7142857 C26.0357143,70.3928571 17.0357143,67.1785714 10.2857143,60.4285714 Z" id="Path"></path>
                <path d="M43.0714286,69.75 L0.964285714,27.6428571 C4.5,11.8928571 18.6428571,0 35.3571429,0 C47.25,0 57.5357143,5.78571429 63.9642857,14.4642857 L59.1428571,18.6428571 C53.6785714,11.25 45,6.42857143 35.3571429,6.42857143 C22.8214286,6.42857143 12.2142857,14.4642857 8.03571429,25.7142857 L45,62.6785714 C54.3214286,59.4642857 61.3928571,51.4285714 63.6428571,41.7857143 L48.2142857,41.7857143 L48.2142857,35.3571429 L70.7142857,35.3571429 C70.7142857,52.0714286 58.8214286,66.2142857 43.0714286,69.75 Z" id="Path"></path>
            </g>
        </g>
    </g>
</svg>