<?xml version="1.0" encoding="UTF-8"?>
<svg width="100px" height="100px" viewBox="0 0 100 100" version="1.1" xmlns="http://www.w3.org/2000/svg" xmlns:xlink="http://www.w3.org/1999/xlink">
    <title>graphics / tools / tool-invision</title>
    <g id="graphics-/-tools-/-tool-invision" stroke="none" stroke-width="1" fill="none" fill-rule="evenodd">
        <g id="invision" transform="translate(5.000000, 5.000000)" fill-rule="nonzero">
            <path d="M81.8412891,0 L8.15871094,0 C3.65273438,0 0,3.65273438 0,8.15871094 L0,81.8412891 C0,86.3472656 3.65273438,90 8.15871094,90 L81.8412891,90 C86.3472656,90 90,86.3472656 90,81.8412891 L90,8.15871094 C90,3.65273438 86.3472656,0 81.8412891,0" id="Path" fill="#FF3366"></path>
            <path d="M30.0779297,28.3166016 C33.0697266,28.3166016 35.5760156,25.9716797 35.5760156,22.8983203 C35.5760156,19.8270703 33.0697266,17.4825 30.0779297,17.4825 C27.0861328,17.4825 24.5805469,19.8270703 24.5805469,22.8983203 C24.5805469,25.9713281 27.0861328,28.3166016 30.0779297,28.3166016 M18.6781641,57.3275391 C18.3550781,58.7021484 18.1930078,60.1864453 18.1930078,61.3972266 C18.1930078,66.1682812 20.7801563,69.3355078 26.2782422,69.3355078 C30.8380078,69.3355078 34.5346875,66.6277734 37.1963672,62.2553906 L35.5710938,68.7779297 L44.6255859,68.7779297 L49.8005859,48.0220312 C51.0943359,42.766875 53.600625,40.0391016 57.4010156,40.0391016 C60.3924609,40.0391016 62.251875,41.8995703 62.251875,44.9708203 C62.251875,45.860625 62.1710156,46.8298828 61.8475781,47.8814062 L59.1792188,57.4217578 C58.7749219,58.7963672 58.6139063,60.1716797 58.6139063,61.464375 C58.6139063,65.9935547 61.2812109,69.3063281 66.8601563,69.3063281 C71.6305078,69.3063281 75.4301953,66.2354297 77.5325391,58.8775781 L73.9754297,57.504375 C72.1965234,62.4336328 70.6601953,63.3248438 69.4473047,63.3248438 C68.2344141,63.3248438 67.5875391,62.5169531 67.5875391,60.9008203 C67.5875391,60.1730859 67.7499609,59.3655469 67.9918359,58.393125 L70.5796875,49.0985156 C71.2262109,46.9160156 71.4691406,44.9806641 71.4691406,43.2024609 C71.4691406,36.2492578 67.2644531,32.6204297 62.1710156,32.6204297 C57.4010156,32.6204297 52.5494531,36.9232031 50.124375,41.4516797 L51.9025781,33.3235547 L38.0777344,33.3235547 L36.1371094,40.4827734 L42.6055078,40.4827734 L38.6223047,56.4296484 C35.4944531,63.3828516 29.7488672,63.4957031 29.0278125,63.3343359 C27.84375,63.0671484 27.0864844,62.6175 27.0864844,61.0790625 C27.0864844,60.1913672 27.2482031,58.91625 27.6525,57.3788672 L33.7169531,33.3235547 L18.3550781,33.3235547 L16.4144531,40.4827734 L22.8012891,40.4827734 L18.6785156,57.3275391" id="Shape" fill="#FFFFFF"></path>
        </g>
    </g>
</svg>