<?xml version="1.0" encoding="UTF-8"?>
<svg width="48px" height="48px" viewBox="0 0 48 48" version="1.1" xmlns="http://www.w3.org/2000/svg" xmlns:xlink="http://www.w3.org/1999/xlink">
    <title>graphics / social / social-linkedin-dark</title>
    <g id="graphics-/-social-/-social-linkedin-dark" stroke="none" stroke-width="1" fill="none" fill-rule="evenodd">
        <g id="LinkedIN" fill="#FFFFFF" fill-rule="nonzero">
            <path d="M0,24 C0,10.7451654 10.7451654,0 24,0 C37.2548346,0 48,10.7451654 48,24 C48,37.2548346 37.2548346,48 24,48 C10.7451654,48 0,37.2548346 0,24 Z M17.960542,18.8778483 L12.5216171,18.8778483 L12.5216171,35.2195598 L17.960542,35.2195598 L17.960542,18.8778483 Z M18.3187633,13.8226977 C18.2834625,12.2204033 17.1376539,11 15.277032,11 C13.4164101,11 12.2,12.2204033 12.2,13.8226977 C12.2,15.3918031 13.3804576,16.6473477 15.2064305,16.6473477 L15.2411882,16.6473477 C17.1376539,16.6473477 18.3187633,15.3918031 18.3187633,13.8226977 Z M37.5753856,25.8497218 C37.5753856,20.8302549 34.8922015,18.4941133 31.3131382,18.4941133 C28.425427,18.4941133 27.13255,20.080247 26.4106765,21.1929485 L26.4106765,18.8782822 L20.9710999,18.8782822 C21.0427877,20.4117038 20.9710999,35.2199936 20.9710999,35.2199936 L26.4106765,35.2199936 L26.4106765,26.0934337 C26.4106765,25.6050338 26.4459773,25.117827 26.5897871,24.7681486 C26.9828747,23.7924334 27.877885,22.7822276 29.3805028,22.7822276 C31.3494166,22.7822276 32.1364608,24.2807249 32.1364608,26.4767349 L32.1364608,35.2195598 L37.5751684,35.2195598 L37.5753856,25.8497218 Z" id="Combined-Shape"></path>
        </g>
    </g>
</svg>