<svg width="400" height="400" xmlns="http://www.w3.org/2000/svg" xmlns:xlink="http://www.w3.org/1999/xlink">
    <title>graphics / what / what-icons-bl</title>
    <defs>
        <path id="a" d="M0 0h400v400H0z"/>
    </defs>
    <g fill="none" fill-rule="evenodd">
        <mask id="b" fill="#fff">
            <use xlink:href="#a"/>
        </mask>
        <use fill-opacity="0" fill="#D8D8D8" xlink:href="#a"/>
        <g mask="url(#b)">
            <path d="M194 140.02V140H0v60h194v-.02c-18.255-.432-32.906-13.684-32.906-29.98 0-16.297 14.651-29.548 32.906-29.98Z" fill="#63C3EB"/>
            <path d="M220 170c0 16.569-13.431 30-30 30-16.569 0-30-13.431-30-30 0-16.569 13.431-30 30-30 16.569 0 30 13.431 30 30" fill="#3836B3"/>
            <path d="M101.712 250c0-16.296 14.822-29.548 33.288-29.98V220H0v60h135v-.02c-18.466-.432-33.288-13.684-33.288-29.98" fill="#63C3EB"/>
            <path d="M160 250c0 16.569-13.431 30-30 30-16.569 0-30-13.431-30-30 0-16.569 13.431-30 30-30 16.569 0 30 13.431 30 30" fill="#3836B3"/>
            <path d="M41.053 330c0-16.296 16.45-29.548 36.947-29.98V300H0v60h78v-.02c-20.497-.432-36.947-13.684-36.947-29.98" fill="#63C3EB"/>
            <path d="M100 330c0 16.569-13.431 30-30 30-16.569 0-30-13.431-30-30 0-16.569 13.431-30 30-30 16.569 0 30 13.431 30 30" fill="#3836B3"/>
        </g>
    </g>
</svg>
