<?xml version="1.0" encoding="UTF-8"?>
<svg width="100px" height="100px" viewBox="0 0 100 100" version="1.1" xmlns="http://www.w3.org/2000/svg" xmlns:xlink="http://www.w3.org/1999/xlink">
    <title>graphics / tools / tool-react</title>
    <g id="graphics-/-tools-/-tool-react" stroke="none" stroke-width="1" fill="none" fill-rule="evenodd">
        <g id="react-seeklogo.com" transform="translate(0.000000, 5.000000)" fill-rule="nonzero">
            <path d="M0,44.8383571 C0,52.3979865 7.38185024,59.4552076 19.0199464,63.4330408 C16.6959272,75.1329491 18.6034413,84.5629957 24.9747463,88.2374934 C31.5237886,92.0141332 41.2802464,89.3999088 50.5404494,81.3054166 C59.5670206,89.0731414 68.6899802,92.1301294 75.0553486,88.4451891 C81.597987,84.6575853 83.5881164,74.5879498 81.1998246,62.5228519 C93.3215181,58.5151352 100.102058,52.4974953 100.102058,44.8383571 C100.102058,37.4539907 92.7065118,31.0655191 81.225387,27.1131039 C83.7964754,14.5493754 81.6179174,5.34815672 74.9828791,1.52191223 C68.5860066,-2.16682439 59.3571433,1.04828564 50.1978186,9.01944272 C40.6690978,0.558689403 31.5312955,-2.02448476 24.9026894,1.81291167 C18.5120343,5.51214095 16.6884042,15.1135577 19.0199464,27.0300684 C7.77482529,30.9507695 0,37.4835218 0,44.8383571 Z" id="Path" fill="#FFFFFF"></path>
            <path d="M78.7937621,31.0380792 C77.8715387,30.7206495 76.9159267,30.4203098 75.9319896,30.1362688 C76.0937114,29.4762493 76.2421402,28.8247748 76.3741126,28.1843771 C78.5404199,17.6688473 77.1240127,9.1974632 72.2874037,6.40832308 C67.6497025,3.73390706 60.0650962,6.52241422 52.4050091,13.1887534 C51.6684013,13.8297841 50.9297363,14.5084759 50.1913883,15.2197651 C49.6994196,14.7491591 49.2082424,14.294377 48.7183313,13.859375 C40.6903359,6.73129113 32.6435098,3.72741921 27.8116482,6.52462958 C23.1783778,9.20679938 21.8062779,17.1707074 23.7562707,27.1363529 C23.9445764,28.0989274 24.1646884,29.081915 24.4136001,30.0813595 C23.2747461,30.404644 22.1752938,30.749291 21.1233136,31.1159333 C11.7113503,34.3973584 5.70044158,39.5401617 5.70044158,44.8745938 C5.70044158,50.38404 12.1531566,55.910101 21.9564477,59.2608349 C22.7300836,59.5252543 23.5328357,59.7752736 24.360115,60.0126336 C24.0915815,61.0935722 23.8580191,62.1528312 23.6619596,63.185981 C21.8026384,72.97867 23.2546495,80.7544304 27.8755772,83.4196686 C32.6485735,86.1720972 40.6590041,83.3429221 48.4591336,76.5246725 C49.0756373,75.9857065 49.694356,75.4141435 50.3141823,74.8150467 C51.1175677,75.5886824 51.9196863,76.3208592 52.7175333,77.0076213 C60.2728655,83.5092326 67.7349941,86.1345944 72.3516491,83.461919 C77.1198981,80.701578 78.6695439,72.3485578 76.6576787,62.1857454 C76.5040274,61.4095775 76.3252163,60.6166363 76.1244097,59.809612 C76.6869531,59.6433011 77.2392114,59.4716108 77.7777024,59.293116 C87.9691566,55.9164306 94.6000496,50.4576214 94.6000496,44.8745938 C94.6000496,39.5208566 88.3952967,34.3433985 78.7937621,31.0380792 L78.7937621,31.0380792 L78.7937621,31.0380792 Z" id="Path" fill="#53C1DE"></path>
            <path d="M76.5833061,55.6882483 C76.0971925,55.8491781 75.5984197,56.0047285 75.0901524,56.1555313 C73.9650655,52.5937048 72.4465933,48.8062277 70.5883798,44.8931082 C72.3616184,41.0731919 73.8213832,37.3341365 74.9149806,33.795413 C75.8243866,34.0585663 76.7070499,34.3361195 77.5575907,34.6290219 C85.7841769,37.4610451 90.8022874,41.6482364 90.8022874,44.8745938 C90.8022874,48.3112527 85.3828804,52.7725159 76.5833061,55.6882483 L76.5833061,55.6882483 L76.5833061,55.6882483 Z M72.9320739,62.9233021 C73.8216995,67.4171631 73.9487662,71.4801361 73.3594801,74.6563315 C72.8300089,77.5103502 71.7652111,79.4131873 70.4486534,80.1752717 C67.6470122,81.7969164 61.6557259,79.6889999 55.1943074,74.1287591 C54.4535855,73.4913678 53.7074833,72.8107772 52.9590075,72.0904679 C55.4639485,69.3508571 57.9674654,66.1659589 60.4108509,62.6288174 C64.7084935,62.2474591 68.7687769,61.6239927 72.4508656,60.7728193 C72.6322089,61.5043631 72.7932973,62.2218239 72.9320739,62.9233021 L72.9320739,62.9233021 L72.9320739,62.9233021 Z M36.0083274,79.8950286 C33.2710901,80.8617175 31.0910161,80.8894095 29.7731925,80.1295402 C26.9690196,78.5121682 25.8032647,72.2689631 27.3934195,63.8942637 C27.5755539,62.9351701 27.7923429,61.9499677 28.042204,60.9429276 C31.6839418,61.7482114 35.7144755,62.3276864 40.0224041,62.6769225 C42.4822467,66.1381087 45.0580791,69.3195258 47.6538498,72.1051844 C47.0867173,72.652695 46.5217999,73.1739383 45.9600476,73.6651154 C42.5108881,76.6800643 39.0544495,78.819154 36.0083274,79.8950286 L36.0083274,79.8950286 L36.0083274,79.8950286 Z M23.1847075,55.6672022 C18.849878,54.1856001 15.2700121,52.2599763 12.8161827,50.1587061 C10.6112651,48.2704269 9.4980459,46.3957563 9.4980459,44.8745938 C9.4980459,41.6374763 14.3242109,37.5085171 22.3734104,34.7021288 C23.3500684,34.3615961 24.3724577,34.0406852 25.4334576,33.7392378 C26.5458855,37.3578725 28.0051758,41.1412352 29.76623,44.9670062 C27.9823892,48.8495852 26.5023695,52.693238 25.379023,56.3542806 C24.6226353,56.1368587 23.8898254,55.9080437 23.1847075,55.6672022 L23.1847075,55.6672022 L23.1847075,55.6672022 Z M27.4832999,26.4070242 C25.8126009,17.8687046 26.9221805,11.4276993 29.7143272,9.81143483 C32.68845,8.08962422 39.2650669,10.5445612 46.1966169,16.6993101 C46.6396889,17.0926951 47.0845019,17.5044358 47.5305809,17.9304182 C44.9476277,20.7038925 42.3953731,23.8614156 39.9573678,27.3021885 C35.7763474,27.6897185 31.7741386,28.3122351 28.0944232,29.1458439 C27.8630762,28.2152339 27.6581552,27.3009226 27.4832999,26.4070242 L27.4832999,26.4070242 L27.4832999,26.4070242 Z M65.8305742,35.8759539 C64.9509179,34.3565324 64.0478411,32.8730314 63.1272005,31.4300399 C65.9636546,31.788612 68.6812695,32.2645982 71.2333663,32.8470801 C70.4671674,35.30265 69.5121888,37.8700958 68.3880509,40.5021034 C67.5816596,38.9711304 66.7287452,37.4274982 65.8305742,35.8759539 L65.8305742,35.8759539 L65.8305742,35.8759539 Z M50.192654,20.6445525 C51.9443721,22.5423261 53.6986219,24.6611611 55.4240721,26.9600734 C53.6853296,26.8779468 51.9250665,26.8352219 50.1502458,26.8352219 C48.3921982,26.8352219 46.644911,26.8769973 44.916929,26.9576997 C46.6441198,24.6801499 48.4135606,22.5641632 50.192654,20.6445525 L50.192654,20.6445525 L50.192654,20.6445525 Z M34.4545678,35.9022218 C33.5758605,37.4259158 32.7387703,38.9611613 31.945038,40.4992553 C30.8390978,37.8764254 29.8929803,35.2972699 29.1201356,32.806887 C31.6565662,32.2392798 34.3613644,31.7751616 37.1797789,31.4233938 C36.2461623,32.8796775 35.3356487,34.3740971 34.4545678,35.9019053 L34.4545678,35.9022218 L34.4545678,35.9022218 Z M37.2609561,58.5967013 C34.3490217,58.2718342 31.6035558,57.8316107 29.0677581,57.2796688 C29.8529455,54.7448206 30.8199508,52.1105978 31.9493104,49.4312761 C32.7451,50.9682622 33.5855132,52.5041408 34.4696006,54.0311581 L34.4697588,54.0311581 C35.3703033,55.5868163 36.303287,57.1106684 37.2609561,58.5967013 L37.2609561,58.5967013 L37.2609561,58.5967013 Z M50.2977256,69.3723777 C48.4977443,67.4302968 46.702352,65.2820295 44.9488933,62.9712491 C46.651082,63.0380263 48.3865012,63.0722065 50.1502458,63.0722065 C51.9622534,63.0722065 53.7535311,63.0313804 55.5166427,62.9528933 C53.7854955,65.305291 52.0375757,67.4568814 50.2977256,69.3723777 L50.2977256,69.3723777 L50.2977256,69.3723777 Z M68.424288,49.2947149 C69.6125128,52.0029944 70.6141727,54.6234505 71.4094875,57.1150993 C68.8319145,57.7031193 66.0489458,58.1767323 63.1167567,58.5286584 C64.0396132,57.0662029 64.9506012,55.5572252 65.8457652,54.005048 C66.7513737,52.4346737 67.6112504,50.8619253 68.424288,49.2947149 L68.424288,49.2947149 L68.424288,49.2947149 Z M62.5561116,52.1077493 C61.1664471,54.5172713 59.7397543,56.8174494 58.2913827,58.9886624 C55.6533616,59.1772842 52.9279925,59.2744439 50.1502458,59.2744439 C47.3837342,59.2744439 44.6927026,59.1885192 42.1013628,59.02031 C40.5946005,56.8206146 39.1368927,54.513632 37.7560894,52.1284787 L37.7564059,52.1284787 C36.3792422,49.7498135 35.111739,47.3510516 33.9632323,44.9657405 C35.1114225,42.5748907 36.3756027,40.1734388 37.7448544,37.799046 L37.7445379,37.7995207 C39.1174289,35.4187983 40.5623194,33.1230508 42.0551564,30.937122 C44.6990322,30.7372648 47.4101602,30.6329845 50.1500877,30.6329845 L50.1502458,30.6329845 C52.9025158,30.6329845 55.6171249,30.7380559 58.2602091,30.9396538 C59.7302599,33.1096004 61.1653396,35.3979106 62.5436109,37.7789495 C63.9375482,40.1867311 65.2180269,42.5722003 66.3760279,44.9117807 C65.2215084,47.2915534 63.9438778,49.7010758 62.5561116,52.1077493 L62.5561116,52.1077493 L62.5561116,52.1077493 Z M70.3904212,9.69845138 C73.3673925,11.4151983 74.5250768,18.3388359 72.6546789,27.417862 C72.5353656,27.997179 72.4010203,28.5872564 72.2551226,29.1852457 C68.566862,28.3342305 64.5618049,27.7009536 60.3686009,27.3075686 C57.925848,23.8289764 55.394481,20.6665479 52.8536195,17.9286775 C53.5367423,17.2715064 54.2189153,16.6448756 54.8982399,16.0535323 C61.4614067,10.3418557 67.5955845,8.08677589 70.3904212,9.69845138 L70.3904212,9.69845138 L70.3904212,9.69845138 Z" id="Shape" fill="#FFFFFF"></path>
            <path d="M50.1502458,36.9361626 C54.5344462,36.9361626 58.088677,40.4902353 58.088677,44.8745938 C58.088677,49.2587942 54.5344462,52.8130257 50.1502458,52.8130257 C45.7660455,52.8130257 42.2118143,49.2587942 42.2118143,44.8745938 C42.2118143,40.4902353 45.7660455,36.9361626 50.1502458,36.9361626" id="Path" fill="#53C1DE"></path>
        </g>
    </g>
</svg>