<?xml version="1.0" encoding="UTF-8"?>
<svg width="100px" height="100px" viewBox="0 0 100 100" version="1.1" xmlns="http://www.w3.org/2000/svg" xmlns:xlink="http://www.w3.org/1999/xlink">
    <title>graphics / tools / tool-illustrator</title>
    <g id="graphics-/-tools-/-tool-illustrator" stroke="none" stroke-width="1" fill="none" fill-rule="evenodd">
        <g id="adobe-illustrator-seeklogo.com" transform="translate(5.000000, 6.000000)" fill-rule="nonzero">
            <g id="Outline_no_shadow" fill="#330000">
                <path d="M15.9375,0 L74.0625,0 C82.875,0 90,7.125 90,15.9375 L90,71.8125 C90,80.625 82.875,87.75 74.0625,87.75 L15.9375,87.75 C7.125,87.75 0,80.625 0,71.8125 L0,15.9375 C0,7.125 7.125,0 15.9375,0 Z" id="Path"></path>
            </g>
            <g id="Ai" transform="translate(18.596417, 19.462500)" fill="#FF9A00">
                <path d="M25.0160833,33.1875 L11.0660833,33.1875 L8.2160833,42 C8.1410833,42.3375 7.8410833,42.5625 7.5035833,42.525 L0.4535833,42.525 C0.0410833,42.525 -0.0714167,42.3 0.0410833,41.85 L12.1160833,7.0875 C12.2285833,6.7125 12.3410833,6.3 12.4910833,5.85 C12.6410833,5.0625 12.7160833,4.2375 12.7160833,3.4125 C12.6785833,3.225 12.8285833,3.0375 13.0160833,3 C13.0535833,3 13.0910833,3 13.1285833,3 L22.7285833,3 C23.0285833,3 23.1785833,3.1125 23.2160833,3.3 L36.9035833,41.925 C37.0160833,42.3375 36.9035833,42.525 36.5285833,42.525 L28.6910833,42.525 C28.4285833,42.5625 28.1660833,42.375 28.0910833,42.1125 L25.0160833,33.1875 Z M13.2410833,25.575 L22.7660833,25.575 C22.5410833,24.7875 22.2410833,23.85 21.9035833,22.875 C21.5660833,21.8625 21.2285833,20.775 20.8910833,19.65 C20.5160833,18.4875 20.1785833,17.3625 19.8035833,16.2 C19.4285833,15.0375 19.0910833,13.95 18.7910833,12.8625 C18.4910833,11.8125 18.2285833,10.8375 17.9660833,9.9375 L17.8910833,9.9375 C17.5535833,11.55 17.1410833,13.1625 16.6160833,14.775 C16.0535833,16.575 15.4910833,18.45 14.8910833,20.325 C14.3660833,22.2375 13.8035833,24 13.2410833,25.575 L13.2410833,25.575 Z" id="Shape"></path>
                <path d="M45.0785833,9.4125 C43.8410833,9.45 42.6410833,8.9625 41.7410833,8.1 C40.8785833,7.1625 40.4285833,5.925 40.4660833,4.65 C40.4285833,3.375 40.9160833,2.175 41.8160833,1.3125 C42.7160833,0.45 43.9160833,0 45.1535833,0 C46.6160833,0 47.7410833,0.45 48.5660833,1.3125 C49.3910833,2.2125 49.8410833,3.4125 49.8035833,4.65 C49.8410833,5.925 49.3910833,7.1625 48.4910833,8.1 C47.6285833,9 46.3535833,9.4875 45.0785833,9.4125 Z M40.8785833,41.9625 L40.8785833,13.0875 C40.8785833,12.7125 41.0285833,12.5625 41.3660833,12.5625 L48.7910833,12.5625 C49.1285833,12.5625 49.2785833,12.75 49.2785833,13.0875 L49.2785833,41.9625 C49.2785833,42.375 49.1285833,42.5625 48.7910833,42.5625 L41.4410833,42.5625 C41.0660833,42.5625 40.8785833,42.3375 40.8785833,41.9625 Z" id="Shape"></path>
            </g>
        </g>
    </g>
</svg>