<?xml version="1.0" encoding="UTF-8"?>
<svg width="40px" height="40px" viewBox="0 0 40 40" version="1.1" xmlns="http://www.w3.org/2000/svg" xmlns:xlink="http://www.w3.org/1999/xlink">
    <title>graphics / services / service-website-dark</title>
    <g id="graphics-/-services-/-service-website-dark" stroke="none" stroke-width="1" fill="none" fill-rule="evenodd">
        <g id="Group-2" transform="translate(2.000000, 4.000000)">
            <path d="M31,0.5 C32.2426407,0.5 33.3676407,1.00367966 34.1819805,1.81801948 C34.9963203,2.63235931 35.5,3.75735931 35.5,5 L35.5,5 L35.5,27 C35.5,28.2426407 34.9963203,29.3676407 34.1819805,30.1819805 C33.3676407,30.9963203 32.2426407,31.5 31,31.5 L31,31.5 L5,31.5 C3.75735931,31.5 2.63235931,30.9963203 1.81801948,30.1819805 C1.00367966,29.3676407 0.5,28.2426407 0.5,27 L0.5,27 L0.5,5 C0.5,3.75735931 1.00367966,2.63235931 1.81801948,1.81801948 C2.63235931,1.00367966 3.75735931,0.5 5,0.5 L5,0.5 Z" id="Rectangle" stroke="#FFFFFF" fill="#FFFFFF"></path>
            <path d="M36,6 L0,6 L0,4 C0,1.791 1.791,0 4,0 L32,0 C34.209,0 36,1.791 36,4 L36,6 Z" id="Fill-1" fill="#3836B3"></path>
            <rect id="Rectangle" fill="#63C3EB" x="3" y="9" width="9" height="9" rx="2"></rect>
            <rect id="Rectangle" fill="#63C3EB" x="22" y="17" width="10" height="10" rx="2"></rect>
            <g id="Arrow" transform="translate(8.843450, 20.940993)" fill="#3836B3">
                <path d="M0.81145,0.961006915 L5.56845,0.0100069153 C5.91845,-0.0599930847 6.22645,0.248006915 6.15645,0.598006915 L5.20545,5.35500692 C5.10845,5.83600692 4.44845,5.90500692 4.25545,5.45400692 L3.27145,3.15800692 C3.22045,3.04000692 3.12645,2.94600692 3.00845,2.89500692 L0.71245,1.91100692 C0.26145,1.71800692 0.32945,1.05700692 0.81145,0.961006915" id="Fill-11"></path>
                <path d="M0.29325,5.87300692 L0.29325,5.87300692 C-0.09775,5.48200692 -0.09775,4.84900692 0.29325,4.45900692 L3.12125,1.63000692 L4.53625,3.04500692 L1.70725,5.87300692 C1.31725,6.26400692 0.68425,6.26400692 0.29325,5.87300692" id="Fill-13"></path>
            </g>
        </g>
    </g>
</svg>