<?xml version="1.0" encoding="UTF-8"?>
<svg width="500px" height="500px" viewBox="0 0 500 500" version="1.1" xmlns="http://www.w3.org/2000/svg" xmlns:xlink="http://www.w3.org/1999/xlink">
    <title>graphics / illustrations / illustration-services-development</title>
    <defs>
        <rect id="path-1" x="0" y="0" width="500" height="500"></rect>
    </defs>
    <g id="graphics-/-illustrations-/-illustration-services-development" stroke="none" stroke-width="1" fill="none" fill-rule="evenodd">
        <g id="Layer_2">
            <mask id="mask-2" fill="white">
                <use xlink:href="#path-1"></use>
            </mask>
            <use id="Mask" fill-opacity="0" fill="#FFFFFF" xlink:href="#path-1"></use>
            <g id="Logo" mask="url(#mask-2)" fill-rule="nonzero">
                <g transform="translate(105.000000, 66.000000)">
                    <path d="M0,103.035905 C0,120.401375 16.9955664,136.617145 43.6986004,145.754761 C38.359993,172.637748 42.6988612,194.312094 57.38503,202.739895 C72.381118,211.417632 94.8452578,205.409199 116.119708,186.81405 C136.864296,204.659395 157.828827,211.687561 172.455012,203.21977 C187.4511,194.512042 192.059897,171.378077 186.571329,143.655309 C214.424063,134.447711 230,120.661307 230,103.025908 C230,86.0303413 213.004434,71.3741646 186.631314,62.2965327 C192.539772,33.434062 187.531079,12.3095728 172.285056,3.49187303 C157.58889,-4.97591798 136.384421,2.4121547 115.299922,20.7273768 C93.4056333,1.28244941 72.4111101,-4.65600143 57.1750848,4.1616983 C42.4889159,12.6694789 38.3000087,34.7237256 43.6586108,62.1465718 C17.8353473,71.1242298 0,86.1303152 0,103.035905 Z" id="Path" fill="#FFFFFF"></path>
                    <path d="M181.012779,71.3241777 C178.893332,70.594368 176.693906,69.904548 174.434495,69.2547175 C174.804399,67.7351139 175.14431,66.2554999 175.434235,64.7658885 C180.432931,40.6021921 177.153786,21.1472673 166.046683,14.7789286 C155.389464,8.64052991 137.964009,15.0488582 120.358602,30.3648627 C118.672375,31.8311468 116.976151,33.3874075 115.26993,35.0336447 C114.143557,33.9405966 113.017184,32.8975353 111.890811,31.9044611 C93.4456229,15.528733 74.9504477,8.62053512 63.8533426,15.0488582 C53.2061201,21.217249 50.0569417,39.5124764 54.5357733,62.406504 C54.9656611,64.625925 55.4755281,66.8853356 56.0453795,69.1747384 C53.4260628,69.9245428 50.8967226,70.7143367 48.4873511,71.5541177 C26.8529949,79.0921512 13.0465965,90.9090685 13.0465965,103.165871 C13.0465965,115.822569 27.8727289,128.519257 50.396853,136.227246 C52.1763888,136.82709 54.0159089,137.406939 55.9154134,137.946798 C55.3055725,140.436148 54.7657133,142.865515 54.3158307,145.244894 C50.0469443,167.739026 53.3760758,185.604365 63.9933061,191.732767 C74.9904373,198.061116 93.3656437,191.552814 111.290968,175.8869 C112.710597,174.647224 114.130227,173.337565 115.549857,171.957925 C117.402707,173.737461 119.245559,175.403693 121.078414,176.956621 C138.433887,191.902722 155.579414,197.951145 166.186647,191.792751 C177.183778,185.444407 180.70286,166.259412 176.084065,142.905504 C175.737489,141.112639 175.327596,139.293113 174.854386,137.446928 C176.154047,137.05703 177.423716,136.667132 178.653395,136.257239 C202.077284,128.499262 217.313331,115.952535 217.313331,103.125882 C217.333304,90.819092 203.077023,78.9221956 181.012779,71.3241777 Z" id="Path" fill="#53C1DE"></path>
                    <path d="M161.707815,22.2969674 C168.546031,26.2359398 171.205338,42.1417904 166.906459,63.0063475 C166.63653,64.3360007 166.32661,65.695646 165.986699,67.0652887 C156.987292,65.0287691 147.86311,63.5893394 138.673824,62.7564127 C133.412921,55.1892889 127.644501,47.9879486 121.408328,41.2020356 C122.974586,39.6890969 124.540844,38.252805 126.107102,36.8931597 C141.18317,23.7765814 155.279492,18.5879349 161.707815,22.2969674 Z M143.71251,119.741547 C140.523342,125.270105 137.244197,130.558725 133.915066,135.547424 C127.856646,135.977312 121.588281,136.207252 115.209945,136.207252 C108.831609,136.207252 102.663218,136.007304 96.7147701,135.617406 C93.2556724,130.568723 89.9065461,125.270105 86.7173781,119.781537 L86.7173781,119.781537 C83.5582022,114.322961 80.6489611,108.784405 78.0096497,103.325829 C80.6389637,97.8372612 83.5482048,92.3286982 86.6973833,86.8601248 L86.6973833,86.8601248 C89.8465618,81.3915514 93.1656959,76.1129284 96.5948014,71.0942376 C102.673216,70.6343576 108.901591,70.3944202 115.199948,70.3944202 L115.199948,70.3944202 C121.5183,70.3944202 127.756672,70.6343576 133.835086,71.104235 C137.214205,76.102931 140.503347,81.3415644 143.67252,86.8101378 C146.841693,92.2787113 149.820916,97.807269 152.480223,103.205861 C149.830914,108.674434 146.89168,114.202992 143.702512,119.741547 L143.71251,119.741547 Z M157.198992,113.273234 C159.794181,119.149254 162.083317,125.155734 164.057202,131.26854 C157.753237,132.676647 151.379372,133.751193 144.962184,134.4877 C147.081631,131.155236 149.171086,127.692806 151.230549,124.10041 C153.339998,120.491351 155.319482,116.872296 157.188994,113.273234 L157.198992,113.273234 Z M115.539859,159.391204 C111.400939,154.932367 107.272016,149.993655 103.243067,144.68504 C107.162045,144.844998 111.161001,144.924977 115.239937,144.924977 C119.398852,144.924977 123.517778,144.825004 127.566722,144.64505 C123.814138,149.764077 119.799844,154.686009 115.539859,159.391204 L115.539859,159.391204 Z M85.5476832,134.637661 C79.2256144,133.959595 72.9423733,132.958548 66.7225941,131.638443 C68.5321221,125.819961 70.7215509,119.761542 73.350865,113.643138 C75.1770553,117.182215 77.1065519,120.707962 79.139355,124.220379 L79.139355,124.220379 C81.2321423,127.75279 83.3782492,131.22855 85.5776754,134.647658 L85.5476832,134.637661 Z M79.0993654,82.4912645 C77.099887,85.9903517 75.1603929,89.4894389 73.3408676,93.0585078 C70.80153,87.0600726 68.6220986,81.0616374 66.8425628,75.3831188 C72.6710423,74.0734604 78.8894202,73.0137369 85.3677302,72.2039481 C83.2182909,75.5430771 81.128836,78.9821799 79.0993654,82.4912645 L79.0993654,82.4912645 Z M115.299922,47.4204134 C119.298879,51.7892737 123.297835,56.6580036 127.296792,61.9366266 C123.297835,61.7500086 119.258889,61.6533671 115.179953,61.6467022 C111.180996,61.6467022 107.122055,61.7466761 103.183083,61.9266292 C107.14205,56.717988 111.210988,51.8592555 115.299922,47.4204134 Z M151.230549,82.4112854 C149.23107,78.9188631 147.158278,75.5130849 145.012171,72.1939508 C151.53047,73.0237343 157.77884,74.11345 163.637312,75.4531005 C161.757064,81.4218371 159.57482,87.2912047 157.099018,93.038513 C155.252833,89.5394258 153.296676,85.9970166 151.230549,82.4112854 Z M63.1135356,60.6569604 C59.2745371,41.0320799 61.823872,26.2359398 68.2421977,22.5269074 C75.0804138,18.5279506 90.2364601,24.2064692 106.112319,38.3527789 C107.112058,39.2525442 108.111797,40.2022964 109.181518,41.1820408 C102.906698,47.9646221 97.0919352,55.158763 91.7760584,62.7164232 C82.6102652,63.5384613 73.5070596,64.9510277 64.5231679,66.94532 C63.9833087,64.8358703 63.5134313,62.7364179 63.1135356,60.6869526 L63.1135356,60.6569604 Z M53.2361123,127.889422 C43.2387203,124.480311 35.0508563,120.061464 29.4123272,115.232723 C24.3536469,110.893855 21.7943145,106.584979 21.7943145,103.085892 C21.7943145,95.6478323 32.8814222,86.1603074 51.3765974,79.7119895 C53.6160132,78.932193 55.9654003,78.1923859 58.3747718,77.5025659 C61.1336157,86.3117914 64.4734021,94.9284403 68.3721638,103.295837 C64.4354297,111.798169 61.0656122,120.551679 58.2847953,129.499002 C56.5452491,128.999132 54.8556898,128.46927 53.2361123,127.919414 L53.2361123,127.889422 Z M82.7084239,183.5549 C76.4100669,185.774321 71.4013736,185.834305 68.3821612,184.094759 C61.9338433,180.375729 59.2545423,166.029472 62.9135878,146.784492 C63.3268133,144.585066 63.8233504,142.325656 64.4031992,140.006261 C73.4771633,141.956339 82.6722926,143.292355 91.9260193,144.005217 C97.2914404,151.602116 103.149144,158.839085 109.461445,165.669566 C108.161784,166.91924 106.862123,168.118927 105.572459,169.248632 C97.6445275,176.19682 89.7065983,181.115536 82.7084239,183.584892 L82.7084239,183.5549 Z M167.546292,144.565071 C169.545771,154.892377 169.875685,164.229941 168.546031,171.55803 C167.32635,178.116319 164.886986,182.485179 161.857776,184.234723 C155.419456,187.96375 141.653047,183.125012 126.80692,170.348345 C125.107363,168.878729 123.387812,167.349128 121.66826,165.659568 C127.861169,158.809954 133.582788,151.548542 138.793793,143.925238 C148.101781,143.13896 157.344573,141.712624 166.456577,139.656352 C166.863137,141.329249 167.226376,142.972154 167.546292,144.585066 L167.546292,144.565071 Z M175.954099,127.959403 C174.834391,128.329307 173.694688,128.689213 172.524993,129.039122 C169.665156,120.187316 166.208119,111.539714 162.177693,103.155874 C166.059886,94.8913175 169.379899,86.3741823 172.1151,77.6625242 C174.207888,78.2623677 176.234026,78.8988683 178.193515,79.572026 C197.098583,86.0803282 208.625576,95.7078167 208.625576,103.115884 C208.605581,111.013824 196.148831,121.261151 175.954099,127.959403 Z" id="Shape" fill="#FFFFFF"></path>
                    <path d="M115.199948,84.8806302 C122.582182,84.8725522 129.241826,89.313812 132.071558,96.1321749 C134.901289,102.950538 133.34341,110.802203 128.12481,116.023666 C122.90621,121.245128 115.0554,122.807313 108.235487,119.981321 C101.415573,117.155329 96.9706616,110.498122 96.9746995,103.115884 C96.9746995,98.2778644 98.8972814,93.6381433 102.319215,90.2180843 C105.741149,86.7980253 110.381924,84.8779888 115.219943,84.8806302" id="Path" fill="#53C1DE"></path>
                </g>
            </g>
            <circle id="Oval" fill="#3836B3" fill-rule="nonzero" mask="url(#mask-2)" cx="125" cy="35" r="15"></circle>
            <circle id="Oval" fill="#387AF2" fill-rule="nonzero" mask="url(#mask-2)" cx="105" cy="274" r="15"></circle>
            <circle id="Oval" fill="#3836B3" fill-rule="nonzero" mask="url(#mask-2)" cx="335" cy="277" r="15"></circle>
            <circle id="Oval" fill="#387AF2" fill-rule="nonzero" mask="url(#mask-2)" cx="315" cy="35" r="15"></circle>
            <g id="Group-3" mask="url(#mask-2)" stroke="#387AF2" stroke-linecap="round" stroke-linejoin="round" stroke-width="6">
                <g transform="translate(360.000000, 183.000000)" id="Path">
                    <line x1="15" y1="0" x2="15" y2="30"></line>
                    <line x1="30" y1="15" x2="0" y2="15"></line>
                </g>
            </g>
            <rect id="Rectangle" fill="#3836B3" fill-rule="nonzero" mask="url(#mask-2)" transform="translate(64.142136, 198.142136) rotate(45.000000) translate(-64.142136, -198.142136) " x="54.1421356" y="188.142136" width="20" height="20"></rect>
            <rect id="Rectangle" fill="#3836B3" fill-rule="nonzero" mask="url(#mask-2)" transform="translate(375.142136, 108.142136) rotate(45.000000) translate(-375.142136, -108.142136) " x="365.142136" y="98.1421356" width="20" height="20"></rect>
            <g id="Hand" mask="url(#mask-2)" fill-rule="nonzero">
                <g transform="translate(27.000000, 274.124977)" id="Path">
                    <path d="M92.9115968,34.3489951 L92.9115968,34.3489951 C105.614146,34.3489951 115.911597,44.6464459 115.911597,57.3489951 L115.911597,157.678995 L70.0115968,157.678995 L70.0115968,57.2989951 C70.0115968,44.5964459 80.3090476,34.2989951 93.0115968,34.2989951 L92.9115968,34.3489951 Z" fill="#3836B3" transform="translate(92.961597, 95.988995) rotate(-37.150000) translate(-92.961597, -95.988995) "></path>
                    <path d="M149.766333,34.4949859 L149.766333,34.4949859 C161.734344,34.4949859 171.436333,44.1969754 171.436333,56.1649859 L171.436333,150.924986 L128.096333,150.924986 L128.096333,56.1649859 C128.096333,44.1969754 137.798323,34.4949859 149.766333,34.4949859 Z" fill="#3836B3" transform="translate(149.766333, 92.709986) rotate(-30.000000) translate(-149.766333, -92.709986) "></path>
                    <path d="M369.65021,55.8750234 C468.23021,114.975023 442.39021,267.875023 442.39021,267.875023 L287.88021,267.875023 L311.88021,173.465023 L120.46021,173.465023 C113.233648,173.465644 106.174168,171.291352 100.20021,167.225023 L10.2002104,105.925023 C4.67400138,102.164329 1.02727262,96.2130266 0.185694115,89.5817705 C-0.655884392,82.9505144 1.38860957,76.2769344 5.80021041,71.2550234 L5.80021041,71.2550234 C13.5190835,62.4659738 26.5549278,60.7552331 36.2802104,67.2550234 L125.87021,127.115023 L278.21021,74.3150234 L189.53021,42.4950234 C178.371528,38.4843178 172.431737,26.3210457 176.13021,15.0550234 L176.13021,15.0550234 C179.733225,4.08813651 191.236335,-2.19305206 202.41021,0.705023429 C243.94021,11.4950234 338.65021,37.2850234 369.65021,55.8750234 Z" fill="#387AF2"></path>
                </g>
            </g>
            <g id="Group" mask="url(#mask-2)" stroke="#C3D9FF" stroke-linecap="round" stroke-linejoin="round" stroke-width="6">
                <g transform="translate(50.000000, 94.000000)" id="Path">
                    <line x1="15" y1="0" x2="15" y2="30"></line>
                    <line x1="30" y1="15" x2="0" y2="15"></line>
                </g>
            </g>
        </g>
    </g>
</svg>