<?xml version="1.0" encoding="UTF-8"?>
<svg viewBox="0 0 1600 400" version="1.1" xmlns="http://www.w3.org/2000/svg" xmlns:xlink="http://www.w3.org/1999/xlink">
    <title>graphics / backgrounds / patterns / backgroundWaves</title>
    <g id="graphics-/-backgrounds-/-patterns-/-backgroundWaves" stroke="none" stroke-width="1" fill="none"
        fill-rule="evenodd" opacity="0.2">
        <g id="pattern" transform="translate(0.000000, 36.000000)" stroke="#387AF2" stroke-width="1.5">
            <path
                d="M0,265.685715 C0.185557488,265.836254 159.85278,334 373.97834,334 C480.084133,334 540.543912,311.072248 586,297.333333 C664.046891,274.133937 693.506687,254.935764 782.649264,254.923583 C924.585187,254.903265 1045.82709,333.823619 1191.35685,333.894715 C1406.87012,334 1395.66343,254.058184 1600,254"
                id="path5"></path>
            <path
                d="M0,218 C266.666667,218 308.881865,318 533.33224,318 C757.782616,318 799.998907,218 1066.66667,218 C1333.33333,218 1294.8002,318 1600,318"
                id="path4"></path>
            <path
                d="M0,74 C0,74 123.380139,177.693561 290,208.021739 C455.629882,237.613328 565.306549,152.320531 725.563228,147.969391 C885.819907,143.61825 955.032434,228.465492 1152.34359,251.30898 C1349.65474,274.152468 1423.70905,143.61825 1600,158.847242"
                id="path3"></path>
            <path
                d="M1600,0 C1333.33407,0 1333.33407,80 1066.66814,80 C800.001106,80 800.001106,0 533.33407,0 C266.667035,0 266.667035,80 0,80"
                id="path2"
                transform="translate(800.000000, 40.000000) scale(-1, 1) translate(-800.000000, -40.000000) "></path>
            <path
                d="M1600,15.9081961 C1107.75298,-42.5109423 964.286247,102 771.429638,102 C578.572228,102 578.572228,31.0504771 385.714819,31.0504771 C192.857409,31.0504771 192.857409,102 0,102"
                id="path1"></path>
        </g>
    </g>
</svg>