<svg width="400" height="400" xmlns="http://www.w3.org/2000/svg" xmlns:xlink="http://www.w3.org/1999/xlink">
    <title>graphics / what / what-icons-tr</title>
    <defs>
        <path id="a" d="M0 0h400v400H0z"/>
    </defs>
    <g fill="none" fill-rule="evenodd">
        <mask id="b" fill="#fff">
            <use xlink:href="#a"/>
        </mask>
        <use fill-opacity="0" fill="#D8D8D8" xlink:href="#a"/>
        <g mask="url(#b)">
            <path d="M206 40.02V40h194v60H206v-.02c18.255-.432 32.906-13.684 32.906-29.98S224.255 40.452 206 40.02Z" fill="#63C3EB"/>
            <path d="M180 70c0 16.569 13.431 30 30 30 16.569 0 30-13.431 30-30 0-16.569-13.431-30-30-30-16.569 0-30 13.431-30 30" fill="#3836B3"/>
            <path d="M298.288 150c0-16.296-14.822-29.548-33.288-29.98V120h135v60H265v-.02c18.466-.432 33.288-13.683 33.288-29.98" fill="#63C3EB"/>
            <path d="M240 150c0 16.569 13.431 30 30 30 16.569 0 30-13.431 30-30 0-16.569-13.431-30-30-30-16.569 0-30 13.431-30 30" fill="#3836B3"/>
            <path d="M358.947 230c0-16.296-16.45-29.548-36.947-29.98V200h78v60h-78v-.02c20.497-.432 36.947-13.683 36.947-29.98" fill="#63C3EB"/>
            <path d="M300 230c0 16.569 13.431 30 30 30 16.569 0 30-13.431 30-30 0-16.569-13.431-30-30-30-16.569 0-30 13.431-30 30" fill="#3836B3"/>
        </g>
    </g>
</svg>
