<svg width="400" height="400" xmlns="http://www.w3.org/2000/svg" xmlns:xlink="http://www.w3.org/1999/xlink">
    <defs>
        <path id="a" d="M0 0h400v400H0z"/>
    </defs>
    <g fill="none" fill-rule="evenodd">
        <mask id="b" fill="#fff">
            <use xlink:href="#a"/>
        </mask>
        <use fill-opacity="0" fill="#D8D8D8" xlink:href="#a"/>
        <path d="M237.571 203a3.43 3.43 0 0 1 3.429 3.43v95.686l68.112-68.111a3.43 3.43 0 0 1 4.85 0l37.595 37.592a3.43 3.43 0 0 1 0 4.851L288.004 340H379a4 4 0 0 1 4 4v56H40v-56a4 4 0 0 1 4-4h89.555l-63.55-63.55a3.43 3.43 0 0 1 0-4.852l37.592-37.593a3.43 3.43 0 0 1 4.851 0L181 302.556V206.43a3.43 3.43 0 0 1 3.429-3.43h53.142Z" fill="#63C3EB" mask="url(#b)"/>
    </g>
</svg>
