<?xml version="1.0" encoding="UTF-8"?>
<svg width="500px" height="500px" viewBox="0 0 500 500" version="1.1" xmlns="http://www.w3.org/2000/svg" xmlns:xlink="http://www.w3.org/1999/xlink">
    <title>graphics / illustrations / illustration-services-illustration</title>
    <g id="graphics-/-illustrations-/-illustration-services-illustration" stroke="none" stroke-width="1" fill="none" fill-rule="evenodd">
        <g id="illustration" transform="translate(-0.000000, -2.000000)">
            <rect id="Rectangle" fill="#387AF2" fill-rule="nonzero" transform="translate(256.030526, 227.375195) rotate(90.000000) translate(-256.030526, -227.375195) " x="91.030526" y="-12.624805" width="330" height="480" rx="20"></rect>
            <rect id="Rectangle" fill="#FFFFFF" fill-rule="nonzero" x="49.570526" y="72.375195" width="412" height="310"></rect>
            <rect id="Rectangle" fill="#3836B3" fill-rule="nonzero" x="23.030526" y="268.375195" width="20" height="14" rx="4"></rect>
            <rect id="Rectangle" fill="#3836B3" fill-rule="nonzero" x="23.030526" y="250.375195" width="20" height="14" rx="4"></rect>
            <rect id="Rectangle" fill="#3836B3" fill-rule="nonzero" x="23.030526" y="190.375195" width="20" height="14" rx="4"></rect>
            <rect id="Rectangle" fill="#3836B3" fill-rule="nonzero" x="23.030526" y="172.375195" width="20" height="14" rx="4"></rect>
            <circle id="Oval" fill="#3836B3" fill-rule="nonzero" cx="33.030526" cy="227.375195" r="13"></circle>
            <circle id="Oval" fill="#387AF2" fill-rule="nonzero" cx="256.030526" cy="239.375195" r="94"></circle>
            <path d="M116.330526,264.745195 C118.570526,273.745195 129.330526,277.935195 150.610526,277.935195 C155.570526,277.935195 161.103859,277.708528 167.210526,277.255195 C193.560526,275.305195 227.640526,269.335195 263.210526,260.435195 C298.780526,251.535195 331.630526,240.735195 355.780526,230.025195 C385.510526,216.855195 397.530526,206.025195 394.780526,195.025195 C392.030526,184.025195 376.320526,180.125195 343.900526,182.515195 C340.000526,182.805195 335.900526,183.195195 331.710526,183.655195 C332.510526,184.795195 333.350526,186.065195 334.180526,187.475195 C339.510526,196.475195 340.730526,198.545195 340.890526,198.815195 C362.970526,196.865195 373.050526,198.255195 377.310526,199.405195 C374.000526,202.515195 365.380526,208.745195 343.660526,217.855195 C320.940526,227.385195 291.000526,237.005195 259.350526,244.935195 C227.700526,252.865195 196.750526,258.495195 172.220526,260.795195 C148.770526,263.005195 138.220526,261.565195 133.850526,260.385195 C136.850526,257.545195 144.360526,252.075195 162.240526,244.195195 C162.140526,242.195195 162.080526,239.935195 162.080526,237.395195 C162.138145,233.75478 162.41867,230.121312 162.920526,226.515195 C160.320526,227.595195 157.790526,228.665195 155.360526,229.745195 C125.580526,242.895195 113.560526,253.695195 116.330526,264.745195 Z" id="Shape" fill="#63C3EB" fill-rule="nonzero"></path>
            <circle id="Oval" fill="#3836B3" fill-rule="nonzero" cx="299.030526" cy="261.405195" r="9"></circle>
            <circle id="Oval" fill="#3836B3" fill-rule="nonzero" cx="182.910526" cy="227.125195" r="4.61"></circle>
            <circle id="Oval" fill="#3836B3" fill-rule="nonzero" cx="210.820526" cy="294.685195" r="11.79"></circle>
            <circle id="Oval" fill="#3836B3" fill-rule="nonzero" cx="224.030526" cy="182.375195" r="5"></circle>
            <circle id="Oval" fill="#3836B3" fill-rule="nonzero" cx="288.030526" cy="182.375195" r="5"></circle>
            <path d="M278.030526,188.375195 C278.030526,200.52546 268.18079,210.375195 256.030526,210.375195 C243.880261,210.375195 234.030526,200.52546 234.030526,188.375195 L278.030526,188.375195 Z" id="Path" fill="#3836B3" fill-rule="nonzero"></path>
            <rect id="Rectangle" fill="#63C3EB" fill-rule="nonzero" x="211.030526" y="192.375195" width="12" height="8" rx="4"></rect>
            <rect id="Rectangle" fill="#63C3EB" fill-rule="nonzero" x="289.030526" y="192.375195" width="12" height="8" rx="4"></rect>
            <path d="M317.750526,280.735195 C317.753473,288.364087 322.646816,295.131733 329.890526,297.525195 C337.160905,288.313789 342.635878,277.818394 346.030526,266.585195 C340.676013,262.560993 333.505724,261.912391 327.516001,264.910431 C321.526279,267.90847 317.748187,274.037071 317.760526,280.735195 L317.750526,280.735195 Z" id="Path" fill="#3836B3" fill-rule="nonzero"></path>
            <path d="M329.130526,49.145195 L308.460526,27.375195 L264.030526,69.655195 C262.385462,71.2217043 261.766125,73.5829245 262.430526,75.755195 L263.200526,78.285195 C263.869061,80.4604835 263.249414,82.8267604 261.600526,84.395195 L259.600526,86.315195 C257.199025,88.596548 257.100548,92.3923886 259.380526,94.795195 L259.380526,94.795195 C260.477817,95.9501389 261.989375,96.6212837 263.58198,96.6606767 C265.174586,96.7000698 266.717477,96.1044767 267.870526,95.005195 L269.870526,93.085195 C271.515372,91.5189972 273.90358,91.0158093 276.040526,91.785195 L278.530526,92.685195 C280.678054,93.46449 283.081792,92.9566033 284.730526,91.375195 L329.130526,49.145195 Z" id="Path" fill="#63C3EB" fill-rule="nonzero"></path>
            <path d="M334.024597,0.822387603 L334.024597,0.822387603 C340.099729,0.822387603 345.024597,5.74725535 345.024597,11.8223876 L345.024597,46.8223876 L323.024597,46.8223876 L323.024597,11.8223876 C323.024597,5.74725535 327.949465,0.822387603 334.024597,0.822387603 Z" id="Path" fill="#3836B3" fill-rule="nonzero" transform="translate(334.024597, 23.822388) rotate(46.430000) translate(-334.024597, -23.822388) "></path>
            <rect id="Rectangle" fill="#3836B3" fill-rule="nonzero" transform="translate(320.961666, 36.213460) rotate(46.430000) translate(-320.961666, -36.213460) " x="298.961666" y="29.2134604" width="44" height="14" rx="2"></rect>
            <path d="M271.030526,130.375195 C271.030526,135.898043 266.553373,140.375195 261.030526,140.375195 C255.507678,140.375195 251.030526,135.898043 251.030526,130.375195 C251.030526,124.855195 261.030526,108.375195 261.030526,108.375195 C261.030526,108.375195 271.030526,124.855195 271.030526,130.375195 Z" id="Path" fill="#63C3EB" fill-rule="nonzero"></path>
            <rect id="Rectangle" fill="#387AF2" fill-rule="nonzero" transform="translate(95.443126, 306.915095) rotate(14.452428) translate(-95.443126, -306.915095) " x="71.0367406" y="265.770327" width="48.8127707" height="82.2895365" rx="24.37"></rect>
            <path d="M74.430526,284.055195 C74.590526,283.795195 87.820526,299.115195 87.820526,299.115195" id="Path" stroke="#FFFFFF" stroke-linecap="round" stroke-linejoin="round"></path>
            <line x1="119.260526" y1="306.425195" x2="97.570526" y2="316.515195" id="Path" stroke="#FFFFFF" stroke-linecap="round" stroke-linejoin="round"></line>
            <line x1="67.060526" y1="306.425195" x2="80.860526" y2="324.175195" id="Path" stroke="#FFFFFF" stroke-linecap="round" stroke-linejoin="round"></line>
            <path d="M92.690526,306.075195 C92.690526,306.765195 80.860526,341.575195 76.170526,420.835195" id="Path" stroke="#3836B3" stroke-linecap="round" stroke-linejoin="round"></path>
            <rect id="Rectangle" fill="#63C3EB" fill-rule="nonzero" transform="translate(129.226519, 367.682674) rotate(38.140000) translate(-129.226519, -367.682674) " x="108.341519" y="325.907674" width="41.77" height="83.55" rx="20.885"></rect>
            <line x1="125.720526" y1="338.365195" x2="128.200526" y2="358.285195" id="Path" stroke="#FFFFFF" stroke-linecap="round" stroke-linejoin="round"></line>
            <line x1="135.160526" y1="368.735195" x2="155.800526" y2="367.685195" id="Path" stroke="#FFFFFF" stroke-linecap="round" stroke-linejoin="round"></line>
            <line x1="108.710526" y1="377.085195" x2="107.710526" y2="360.025195" id="Path" stroke="#FFFFFF" stroke-linecap="round" stroke-linejoin="round"></line>
            <path d="M86.780526,454.015195 C86.780526,454.015195 89.910526,407.715195 119.260526,378.305195" id="Path" stroke="#033CD1" stroke-linecap="round" stroke-linejoin="round"></path>
            <rect id="Rectangle" fill="#63C3EB" fill-rule="nonzero" transform="translate(35.251159, 353.074910) rotate(-34.000000) translate(-35.251159, -353.074910) " x="17.1511591" y="316.86991" width="36.2" height="72.41" rx="18.1"></rect>
            <path d="M37.410526,357.245195 C37.410526,357.245195 64.500526,383.005195 68.670526,431.735195" id="Path" stroke="#033CD1" stroke-linecap="round" stroke-linejoin="round"></path>
            <path d="M106.700526,502.055195 L47.360526,502.055195 C44.4575103,502.055195 42.0398426,499.82833 41.800526,496.935195 L35.740526,421.745195 C35.6207594,420.198434 36.1515098,418.671805 37.2049694,417.53293 C38.2584289,416.394055 39.7391354,415.746136 41.290526,415.745195 L112.760526,415.745195 C114.312686,415.746355 115.794224,416.393971 116.849228,417.532465 C117.904232,418.670958 118.437356,420.197438 118.320526,421.745195 L112.250526,496.935195 C112.016151,499.826759 109.601573,502.054261 106.700526,502.055195 L106.700526,502.055195 Z" id="Path" fill="#3836B3" fill-rule="nonzero"></path>
            <line x1="48.910526" y1="340.935195" x2="44.650526" y2="358.285195" id="Path" stroke="#FFFFFF" stroke-linecap="round" stroke-linejoin="round"></line>
            <line x1="11.240526" y1="352.025195" x2="25.860526" y2="353.415195" id="Path" stroke="#FFFFFF" stroke-linecap="round" stroke-linejoin="round"></line>
            <line x1="25.860526" y1="371.505195" x2="43.260526" y2="373.605195" id="Path" stroke="#FFFFFF" stroke-linecap="round" stroke-linejoin="round"></line>
        </g>
    </g>
</svg>