<?xml version="1.0" encoding="UTF-8"?>
<svg width="800px" height="800px" viewBox="0 0 800 800" version="1.1" xmlns="http://www.w3.org/2000/svg" xmlns:xlink="http://www.w3.org/1999/xlink">
    <title>images / diagrams / process2</title>
    <g id="images-/-diagrams-/-process2" stroke="none" stroke-width="1" fill="none" fill-rule="evenodd">
        <g id="Card" transform="translate(20.000000, 20.000000)" fill-rule="nonzero">
            <rect id="Rectangle" fill="#63C3EB" x="10" y="10" width="200" height="120" rx="12"></rect>
            <rect id="Rectangle" fill="#387AF2" x="0" y="0" width="200" height="120" rx="12"></rect>
            <g id="Discover" transform="translate(56.875000, 79.195312)" fill="#FFFFFF">
                <path d="M0,16.8046875 L0,0 L5.1796875,0 C6.2578125,0 7.26953125,0.15625 8.21484375,0.46875 C9.16015625,0.78125 9.97460938,1.20703125 10.6582031,1.74609375 C11.3417969,2.28515625 11.9316406,2.91015625 12.4277344,3.62109375 C12.9238281,4.33203125 13.2929688,5.09375 13.5351562,5.90625 C13.7773438,6.71875 13.8984375,7.55078125 13.8984375,8.40234375 C13.8984375,9.25390625 13.7773438,10.0859375 13.5351562,10.8984375 C13.2929688,11.7109375 12.9238281,12.4726562 12.4277344,13.1835938 C11.9316406,13.8945312 11.3417969,14.5195312 10.6582031,15.0585938 C9.97460938,15.5976562 9.16015625,16.0234375 8.21484375,16.3359375 C7.26953125,16.6484375 6.2578125,16.8046875 5.1796875,16.8046875 L0,16.8046875 Z M2.1796875,14.8359375 L5.1796875,14.8359375 C6.1796875,14.8359375 7.09375,14.6523438 7.921875,14.2851562 C8.75,13.9179688 9.4296875,13.4316406 9.9609375,12.8261719 C10.4921875,12.2207031 10.9042969,11.5371094 11.1972656,10.7753906 C11.4902344,10.0136719 11.6367188,9.22265625 11.6367188,8.40234375 C11.6367188,7.58203125 11.4902344,6.79101562 11.1972656,6.02929688 C10.9042969,5.26757812 10.4921875,4.58398438 9.9609375,3.97851562 C9.4296875,3.37304688 8.75,2.88671875 7.921875,2.51953125 C7.09375,2.15234375 6.1796875,1.96875 5.1796875,1.96875 L2.1796875,1.96875 L2.1796875,14.8359375 Z" id="D"></path>
                <path d="M16.4703125,2.96484375 C16.15,2.64453125 15.9898438,2.25 15.9898438,1.78125 C15.9898438,1.3125 16.15,0.912109375 16.4703125,0.580078125 C16.790625,0.248046875 17.1851563,0.08203125 17.6539063,0.08203125 C18.1226563,0.08203125 18.5230469,0.248046875 18.8550781,0.580078125 C19.1871094,0.912109375 19.353125,1.3125 19.353125,1.78125 C19.353125,2.25 19.1871094,2.64257812 18.8550781,2.95898438 C18.5230469,3.27539062 18.1226563,3.43359375 17.6539063,3.43359375 C17.1851563,3.43359375 16.790625,3.27734375 16.4703125,2.96484375 Z M16.6226563,16.8046875 L16.6226563,5.90625 L18.7085938,5.90625 L18.7085938,16.8046875 L16.6226563,16.8046875 Z" id="i"></path>
                <path d="M21.4328125,13.1367188 L23.471875,13.1367188 C23.471875,13.9179688 23.7042969,14.4921875 24.1691406,14.859375 C24.6339844,15.2265625 25.2570312,15.4101562 26.0382812,15.4101562 C27.4992187,15.4101562 28.2296875,14.890625 28.2296875,13.8515625 C28.2296875,13.65625 28.190625,13.4804688 28.1125,13.3242188 C28.034375,13.1679688 27.9386719,13.0410156 27.8253906,12.9433594 C27.7121094,12.8457031 27.534375,12.7441406 27.2921875,12.6386719 C27.05,12.5332031 26.8292969,12.4472656 26.6300781,12.3808594 C26.4308594,12.3144531 26.1378906,12.2207031 25.7511719,12.0996094 C25.3644531,11.9785156 25.0304687,11.8671875 24.7492187,11.765625 C24.3585937,11.6484375 24.0402344,11.5429688 23.7941406,11.4492188 C23.5480469,11.3554688 23.284375,11.2265625 23.003125,11.0625 C22.721875,10.8984375 22.503125,10.71875 22.346875,10.5234375 C22.190625,10.328125 22.0597656,10.0820312 21.9542969,9.78515625 C21.8488281,9.48828125 21.7960937,9.1484375 21.7960937,8.765625 C21.7960937,7.78125 22.1769531,7.01171875 22.9386719,6.45703125 C23.7003906,5.90234375 24.6710937,5.625 25.8507812,5.625 C27.0539062,5.625 28.0539062,5.96679688 28.8507812,6.65039062 C29.6476562,7.33398438 30.0460937,8.21484375 30.0460937,9.29296875 L28.0304687,9.29296875 C28.0304687,8.65234375 27.8429687,8.16015625 27.4679687,7.81640625 C27.0929687,7.47265625 26.5460937,7.30078125 25.8273437,7.30078125 C25.2335937,7.30078125 24.7492187,7.43359375 24.3742187,7.69921875 C23.9992187,7.96484375 23.8117187,8.3359375 23.8117187,8.8125 C23.8117187,9.125 23.9308594,9.390625 24.1691406,9.609375 C24.4074219,9.828125 24.6574219,9.98632812 24.9191406,10.0839844 C25.1808594,10.1816406 25.6710937,10.3398438 26.3898437,10.5585938 C26.4679687,10.5820312 26.5304687,10.6015625 26.5773437,10.6171875 C26.6242187,10.6328125 26.6828125,10.6523438 26.753125,10.6757812 C26.8234375,10.6992188 26.8898437,10.71875 26.9523437,10.734375 C27.2492187,10.828125 27.4855469,10.9023438 27.6613281,10.9570312 C27.8371094,11.0117188 28.0558594,11.09375 28.3175781,11.203125 C28.5792969,11.3125 28.7863281,11.4160156 28.9386719,11.5136719 C29.0910156,11.6113281 29.2589844,11.7382812 29.4425781,11.8945312 C29.6261719,12.0507812 29.7667969,12.2167969 29.8644531,12.3925781 C29.9621094,12.5683594 30.0441406,12.7773438 30.1105469,13.0195312 C30.1769531,13.2617188 30.2101562,13.5234375 30.2101562,13.8046875 C30.2101562,14.859375 29.815625,15.6679688 29.0265625,16.2304688 C28.2375,16.7929688 27.2101562,17.0742188 25.9445312,17.0742188 C25.1242187,17.0742188 24.3800781,16.9335938 23.7121094,16.6523438 C23.0441406,16.3710938 22.4972656,15.9257812 22.0714844,15.3164062 C21.6457031,14.7070312 21.4328125,13.9804688 21.4328125,13.1367188 Z" id="s"></path>
                <path d="M32.5945312,13.5 C32.3601562,12.8203125 32.2429687,12.1054688 32.2429687,11.3554688 C32.2429687,10.6054688 32.3621094,9.890625 32.6003906,9.2109375 C32.8386719,8.53125 33.1785156,7.921875 33.6199219,7.3828125 C34.0613281,6.84375 34.6316406,6.41601562 35.3308594,6.09960938 C36.0300781,5.78320312 36.809375,5.625 37.66875,5.625 C38.5125,5.625 39.2644531,5.74414062 39.9246094,5.98242188 C40.5847656,6.22070312 41.1121094,6.546875 41.5066406,6.9609375 C41.9011719,7.375 42.2078125,7.82421875 42.4265625,8.30859375 C42.6453125,8.79296875 42.778125,9.3125 42.825,9.8671875 L40.7390625,9.8671875 C40.54375,8.28125 39.5359375,7.48828125 37.715625,7.48828125 C36.653125,7.48828125 35.8230469,7.86328125 35.2253906,8.61328125 C34.6277344,9.36328125 34.3289062,10.2773438 34.3289062,11.3554688 C34.3289062,12.0585938 34.4480469,12.6933594 34.6863281,13.2597656 C34.9246094,13.8261719 35.3152344,14.2910156 35.8582031,14.6542969 C36.4011719,15.0175781 37.059375,15.1992188 37.8328125,15.1992188 C38.7,15.1992188 39.35625,15.0214844 39.8015625,14.6660156 C40.246875,14.3105469 40.5671875,13.7773438 40.7625,13.0664062 L42.8484375,13.0664062 C42.684375,14.2460938 42.1589844,15.2089844 41.2722656,15.9550781 C40.3855469,16.7011719 39.1921875,17.0742188 37.6921875,17.0742188 C36.8328125,17.0742188 36.0515625,16.9160156 35.3484375,16.5996094 C34.6453125,16.2832031 34.0710937,15.8574219 33.6257812,15.3222656 C33.1804687,14.7871094 32.8367187,14.1796875 32.5945312,13.5 Z" id="c"></path>
                <path d="M44.6703125,11.3554688 C44.6703125,10.3242188 44.9027344,9.375 45.3675781,8.5078125 C45.8324219,7.640625 46.5042969,6.94335938 47.3832031,6.41601562 C48.2621094,5.88867188 49.2601562,5.625 50.3773437,5.625 C51.5101562,5.625 52.521875,5.88867188 53.4125,6.41601562 C54.303125,6.94335938 54.9808594,7.63867188 55.4457031,8.50195312 C55.9105469,9.36523438 56.1429687,10.3164062 56.1429687,11.3554688 C56.1429687,12.1210938 56.0042969,12.8496094 55.7269531,13.5410156 C55.4496094,14.2324219 55.0667969,14.8398438 54.5785156,15.3632812 C54.0902344,15.8867188 53.4808594,16.3027344 52.7503906,16.6113281 C52.0199219,16.9199219 51.2289062,17.0742188 50.3773437,17.0742188 C49.5335937,17.0742188 48.7523437,16.9199219 48.0335937,16.6113281 C47.3148437,16.3027344 46.7113281,15.8886719 46.2230469,15.3691406 C45.7347656,14.8496094 45.3539062,14.2421875 45.0804687,13.546875 C44.8070312,12.8515625 44.6703125,12.1210938 44.6703125,11.3554688 Z M47.740625,8.625 C47.06875,9.375 46.7328125,10.2851562 46.7328125,11.3554688 C46.7328125,12.4257812 47.0707031,13.3339844 47.7464844,14.0800781 C48.4222656,14.8261719 49.2992187,15.1992188 50.3773437,15.1992188 C51.4632812,15.1992188 52.3519531,14.8261719 53.0433594,14.0800781 C53.7347656,13.3339844 54.0804687,12.4257812 54.0804687,11.3554688 C54.0804687,10.2851562 53.7347656,9.37304688 53.0433594,8.61914062 C52.3519531,7.86523438 51.4632812,7.48828125 50.3773437,7.48828125 C49.2992187,7.48828125 48.4203125,7.8671875 47.740625,8.625 Z" id="o"></path>
                <polygon id="v" points="56.4179688 5.90625 58.6796875 5.90625 62.0898438 13.828125 65.5351562 5.90625 67.796875 5.90625 62.8046875 16.8046875 61.3632812 16.8046875"></polygon>
                <path d="M68.2242187,11.3554688 C68.2242187,9.66796875 68.7007812,8.29101562 69.6539062,7.22460938 C70.6070312,6.15820312 71.9234375,5.625 73.603125,5.625 C75.025,5.625 76.2203125,6.09570312 77.1890625,7.03710938 C78.1578125,7.97851562 78.6421875,9.14453125 78.6421875,10.5351562 C78.6421875,11.0507812 78.6109375,11.5078125 78.5484375,11.90625 L70.2867187,11.90625 C70.3257812,12.90625 70.6207031,13.7246094 71.1714844,14.3613281 C71.7222656,14.9980469 72.55625,15.3164062 73.6734375,15.3164062 C75.0640625,15.3164062 75.9820312,14.7421875 76.4273437,13.59375 L78.5484375,13.59375 C78.3453125,14.5703125 77.8101562,15.3945312 76.9429687,16.0664062 C76.0757812,16.7382812 74.9859375,17.0742188 73.6734375,17.0742188 C72.7828125,17.0742188 71.9859375,16.9238281 71.2828125,16.6230469 C70.5796875,16.3222656 70.0074219,15.9101562 69.5660156,15.3867188 C69.1246094,14.8632812 68.790625,14.2597656 68.5640625,13.5761719 C68.3375,12.8925781 68.2242187,12.1523438 68.2242187,11.3554688 Z M70.3101562,10.3242188 L76.6265625,10.3242188 C76.6265625,9.37890625 76.3394531,8.62695312 75.7652344,8.06835938 C75.1910156,7.50976562 74.4546875,7.23046875 73.55625,7.23046875 C72.5953125,7.23046875 71.821875,7.5 71.2359375,8.0390625 C70.65,8.578125 70.3414062,9.33984375 70.3101562,10.3242188 Z" id="e"></path>
                <path d="M81.565625,16.8046875 L81.565625,5.90625 L83.6515625,5.90625 L83.6515625,8.0390625 C83.9328125,7.359375 84.4132813,6.80664062 85.0929688,6.38085938 C85.7726563,5.95507812 86.4992188,5.7421875 87.2726563,5.7421875 C87.7101563,5.7421875 88.0539063,5.796875 88.3039063,5.90625 L88.3039063,7.828125 C87.9210938,7.75 87.5773438,7.7109375 87.2726563,7.7109375 C86.0851563,7.7109375 85.1847656,8.09375 84.5714844,8.859375 C83.9582031,9.625 83.6515625,10.6796875 83.6515625,12.0234375 L83.6515625,16.8046875 L81.565625,16.8046875 Z" id="r"></path>
            </g>
            <g id="Icon" transform="translate(80.000000, 18.000000)">
                <circle id="Oval" fill="#63C3EB" cx="20" cy="20" r="20"></circle>
                <circle id="Oval" fill="#387AF2" cx="20" cy="20" r="10"></circle>
                <path d="M20,0 L20,20 L40,20 C40,8.954305 31.045695,0 20,0 Z" id="Path" fill="#3836B3"></path>
                <path d="M20,10 L20,20 L30,20 C30,14.4771525 25.5228475,10 20,10 Z" id="Path" fill="#FFFFFF"></path>
            </g>
        </g>
        <g id="Arrow" transform="translate(250.000000, 75.000000)">
            <line x1="9" y1="10" x2="133" y2="10" id="Path" stroke="#3836B3" stroke-width="3" stroke-linecap="round" stroke-linejoin="round"></line>
            <polyline id="Path" stroke="#3836B3" stroke-width="3" stroke-linecap="round" stroke-linejoin="round" points="124 0 134 10 124 20"></polyline>
            <circle id="Oval" fill="#3836B3" fill-rule="nonzero" cx="6" cy="10" r="6"></circle>
        </g>
        <g id="Arrow" transform="translate(442.000000, 76.000000)" stroke="#3836B3" stroke-width="3">
            <circle id="Oval" cx="6" cy="324" r="4.5"></circle>
            <path d="M18,324 L247.97574,324 C258.618461,324 268.822964,319.763855 276.333468,312.227759 C283.843973,304.691664 288.041934,294.476355 288.00092,283.84 L287.29895,49.84 C287.210782,27.8111196 269.317393,10 247.275327,10 L196.105124,10" id="Path" stroke-linecap="round" stroke-linejoin="round" stroke-dasharray="8"></path>
            <polyline id="Path" stroke-linecap="round" stroke-linejoin="round" points="202 0 192 10 202 20"></polyline>
        </g>
        <g id="Card" transform="translate(404.000000, 20.000000)" fill-rule="nonzero">
            <rect id="Rectangle" fill="#63C3EB" x="10" y="10" width="200" height="120" rx="12"></rect>
            <rect id="Rectangle" fill="#387AF2" x="0" y="0" width="200" height="120" rx="12"></rect>
            <g id="Design" transform="translate(64.875000, 79.195312)" fill="#FFFFFF">
                <path d="M0,16.8046875 L0,0 L5.1796875,0 C6.2578125,0 7.26953125,0.15625 8.21484375,0.46875 C9.16015625,0.78125 9.97460938,1.20703125 10.6582031,1.74609375 C11.3417969,2.28515625 11.9316406,2.91015625 12.4277344,3.62109375 C12.9238281,4.33203125 13.2929688,5.09375 13.5351562,5.90625 C13.7773438,6.71875 13.8984375,7.55078125 13.8984375,8.40234375 C13.8984375,9.25390625 13.7773438,10.0859375 13.5351562,10.8984375 C13.2929688,11.7109375 12.9238281,12.4726562 12.4277344,13.1835938 C11.9316406,13.8945312 11.3417969,14.5195312 10.6582031,15.0585938 C9.97460938,15.5976562 9.16015625,16.0234375 8.21484375,16.3359375 C7.26953125,16.6484375 6.2578125,16.8046875 5.1796875,16.8046875 L0,16.8046875 Z M2.1796875,14.8359375 L5.1796875,14.8359375 C6.1796875,14.8359375 7.09375,14.6523438 7.921875,14.2851562 C8.75,13.9179688 9.4296875,13.4316406 9.9609375,12.8261719 C10.4921875,12.2207031 10.9042969,11.5371094 11.1972656,10.7753906 C11.4902344,10.0136719 11.6367188,9.22265625 11.6367188,8.40234375 C11.6367188,7.58203125 11.4902344,6.79101562 11.1972656,6.02929688 C10.9042969,5.26757812 10.4921875,4.58398438 9.9609375,3.97851562 C9.4296875,3.37304688 8.75,2.88671875 7.921875,2.51953125 C7.09375,2.15234375 6.1796875,1.96875 5.1796875,1.96875 L2.1796875,1.96875 L2.1796875,14.8359375 Z" id="D"></path>
                <path d="M15.7789063,11.3554688 C15.7789063,9.66796875 16.2554688,8.29101562 17.2085938,7.22460938 C18.1617188,6.15820312 19.478125,5.625 21.1578125,5.625 C22.5796875,5.625 23.775,6.09570312 24.74375,7.03710938 C25.7125,7.97851562 26.196875,9.14453125 26.196875,10.5351562 C26.196875,11.0507812 26.165625,11.5078125 26.103125,11.90625 L17.8414063,11.90625 C17.8804688,12.90625 18.1753906,13.7246094 18.7261719,14.3613281 C19.2769531,14.9980469 20.1109375,15.3164062 21.228125,15.3164062 C22.61875,15.3164062 23.5367188,14.7421875 23.9820313,13.59375 L26.103125,13.59375 C25.9,14.5703125 25.3648438,15.3945312 24.4976563,16.0664062 C23.6304688,16.7382812 22.540625,17.0742188 21.228125,17.0742188 C20.3375,17.0742188 19.540625,16.9238281 18.8375,16.6230469 C18.134375,16.3222656 17.5621094,15.9101562 17.1207031,15.3867188 C16.6792969,14.8632812 16.3453125,14.2597656 16.11875,13.5761719 C15.8921875,12.8925781 15.7789063,12.1523438 15.7789063,11.3554688 Z M17.8648438,10.3242188 L24.18125,10.3242188 C24.18125,9.37890625 23.8941406,8.62695312 23.3199219,8.06835938 C22.7457031,7.50976562 22.009375,7.23046875 21.1109375,7.23046875 C20.15,7.23046875 19.3765625,7.5 18.790625,8.0390625 C18.2046875,8.578125 17.8960938,9.33984375 17.8648438,10.3242188 Z" id="e"></path>
                <path d="M28.20625,13.1367188 L30.2453125,13.1367188 C30.2453125,13.9179688 30.4777344,14.4921875 30.9425781,14.859375 C31.4074219,15.2265625 32.0304687,15.4101562 32.8117187,15.4101562 C34.2726562,15.4101562 35.003125,14.890625 35.003125,13.8515625 C35.003125,13.65625 34.9640625,13.4804688 34.8859375,13.3242188 C34.8078125,13.1679688 34.7121094,13.0410156 34.5988281,12.9433594 C34.4855469,12.8457031 34.3078125,12.7441406 34.065625,12.6386719 C33.8234375,12.5332031 33.6027344,12.4472656 33.4035156,12.3808594 C33.2042969,12.3144531 32.9113281,12.2207031 32.5246094,12.0996094 C32.1378906,11.9785156 31.8039062,11.8671875 31.5226562,11.765625 C31.1320312,11.6484375 30.8136719,11.5429688 30.5675781,11.4492188 C30.3214844,11.3554688 30.0578125,11.2265625 29.7765625,11.0625 C29.4953125,10.8984375 29.2765625,10.71875 29.1203125,10.5234375 C28.9640625,10.328125 28.8332031,10.0820312 28.7277344,9.78515625 C28.6222656,9.48828125 28.5695312,9.1484375 28.5695312,8.765625 C28.5695312,7.78125 28.9503906,7.01171875 29.7121094,6.45703125 C30.4738281,5.90234375 31.4445312,5.625 32.6242187,5.625 C33.8273437,5.625 34.8273437,5.96679688 35.6242187,6.65039062 C36.4210937,7.33398438 36.8195312,8.21484375 36.8195312,9.29296875 L34.8039062,9.29296875 C34.8039062,8.65234375 34.6164062,8.16015625 34.2414062,7.81640625 C33.8664062,7.47265625 33.3195312,7.30078125 32.6007812,7.30078125 C32.0070312,7.30078125 31.5226562,7.43359375 31.1476562,7.69921875 C30.7726562,7.96484375 30.5851562,8.3359375 30.5851562,8.8125 C30.5851562,9.125 30.7042969,9.390625 30.9425781,9.609375 C31.1808594,9.828125 31.4308594,9.98632812 31.6925781,10.0839844 C31.9542969,10.1816406 32.4445312,10.3398438 33.1632812,10.5585938 C33.2414062,10.5820312 33.3039062,10.6015625 33.3507812,10.6171875 C33.3976562,10.6328125 33.45625,10.6523438 33.5265625,10.6757812 C33.596875,10.6992188 33.6632812,10.71875 33.7257812,10.734375 C34.0226562,10.828125 34.2589844,10.9023438 34.4347656,10.9570312 C34.6105469,11.0117188 34.8292969,11.09375 35.0910156,11.203125 C35.3527344,11.3125 35.5597656,11.4160156 35.7121094,11.5136719 C35.8644531,11.6113281 36.0324219,11.7382812 36.2160156,11.8945312 C36.3996094,12.0507812 36.5402344,12.2167969 36.6378906,12.3925781 C36.7355469,12.5683594 36.8175781,12.7773438 36.8839844,13.0195312 C36.9503906,13.2617188 36.9835937,13.5234375 36.9835937,13.8046875 C36.9835937,14.859375 36.5890625,15.6679688 35.8,16.2304688 C35.0109375,16.7929688 33.9835937,17.0742188 32.7179687,17.0742188 C31.8976562,17.0742188 31.1535156,16.9335938 30.4855469,16.6523438 C29.8175781,16.3710938 29.2707031,15.9257812 28.8449219,15.3164062 C28.4191406,14.7070312 28.20625,13.9804688 28.20625,13.1367188 Z" id="s"></path>
                <path d="M39.7078125,2.96484375 C39.3875,2.64453125 39.2273437,2.25 39.2273437,1.78125 C39.2273437,1.3125 39.3875,0.912109375 39.7078125,0.580078125 C40.028125,0.248046875 40.4226562,0.08203125 40.8914062,0.08203125 C41.3601562,0.08203125 41.7605469,0.248046875 42.0925781,0.580078125 C42.4246094,0.912109375 42.590625,1.3125 42.590625,1.78125 C42.590625,2.25 42.4246094,2.64257812 42.0925781,2.95898438 C41.7605469,3.27539062 41.3601562,3.43359375 40.8914062,3.43359375 C40.4226562,3.43359375 40.028125,3.27734375 39.7078125,2.96484375 Z M39.8601562,16.8046875 L39.8601562,5.90625 L41.9460937,5.90625 L41.9460937,16.8046875 L39.8601562,16.8046875 Z" id="i"></path>
                <path d="M44.69375,11.3554688 C44.69375,10.3242188 44.9242187,9.375 45.3851562,8.5078125 C45.8460937,7.640625 46.50625,6.94335938 47.365625,6.41601562 C48.225,5.88867188 49.1976562,5.625 50.2835937,5.625 C51.0960937,5.625 51.85,5.81835938 52.5453125,6.20507812 C53.240625,6.59179688 53.7601562,7.1171875 54.1039062,7.78125 L54.1039062,5.90625 L56.1664062,5.90625 L56.1664062,17.4960938 C56.1664062,19.3867188 55.6683594,20.7675781 54.6722656,21.6386719 C53.6761719,22.5097656 52.2367187,22.9453125 50.3539062,22.9453125 C49.4554687,22.9453125 48.6527344,22.8144531 47.9457031,22.5527344 C47.2386719,22.2910156 46.6683594,21.9355469 46.2347656,21.4863281 C45.8011719,21.0371094 45.4671875,20.5351562 45.2328125,19.9804688 C44.9984375,19.4257812 44.865625,18.8320312 44.834375,18.1992188 L46.94375,18.1992188 C47.00625,19.0429688 47.31875,19.7382812 47.88125,20.2851562 C48.44375,20.8320312 49.2679687,21.1054688 50.3539062,21.1054688 C52.8539062,21.1054688 54.1039062,19.9023438 54.1039062,17.4960938 L54.1039062,14.90625 C53.7601562,15.5703125 53.240625,16.0976562 52.5453125,16.4882812 C51.85,16.8789062 51.0960937,17.0742188 50.2835937,17.0742188 C49.1976562,17.0742188 48.225,16.8105469 47.365625,16.2832031 C46.50625,15.7558594 45.8460937,15.0585938 45.3851562,14.1914062 C44.9242187,13.3242188 44.69375,12.3789062 44.69375,11.3554688 Z M47.7640625,8.625 C47.0921875,9.375 46.75625,10.2851562 46.75625,11.3554688 C46.75625,12.4257812 47.0941406,13.3339844 47.7699219,14.0800781 C48.4457031,14.8261719 49.3226562,15.1992188 50.4007812,15.1992188 C51.4867187,15.1992188 52.3753906,14.8261719 53.0667969,14.0800781 C53.7582031,13.3339844 54.1039062,12.4257812 54.1039062,11.3554688 C54.1039062,10.2851562 53.7582031,9.37304688 53.0667969,8.61914062 C52.3753906,7.86523438 51.4867187,7.48828125 50.4007812,7.48828125 C49.3226562,7.48828125 48.44375,7.8671875 47.7640625,8.625 Z" id="g"></path>
                <path d="M59.7578125,16.8046875 L59.7578125,5.90625 L61.84375,5.90625 L61.84375,7.828125 C62.171875,7.140625 62.6679688,6.6015625 63.3320312,6.2109375 C63.9960938,5.8203125 64.78125,5.625 65.6875,5.625 C67.1953125,5.625 68.28125,6.10546875 68.9453125,7.06640625 C69.25,7.48828125 69.4667969,7.953125 69.5957031,8.4609375 C69.7246094,8.96875 69.7890625,9.60546875 69.7890625,10.3710938 L69.7890625,16.8046875 L67.703125,16.8046875 L67.703125,11.015625 C67.703125,9.9296875 67.484375,9.06640625 67.046875,8.42578125 C66.609375,7.78515625 65.90625,7.46484375 64.9375,7.46484375 C63.953125,7.46484375 63.1914062,7.82617188 62.6523438,8.54882812 C62.1132812,9.27148438 61.84375,10.1523438 61.84375,11.1914062 L61.84375,16.8046875 L59.7578125,16.8046875 Z" id="n"></path>
            </g>
            <g id="Icon" transform="translate(80.000000, 18.000000)">
                <rect id="Rectangle" fill="#3836B3" x="0" y="0" width="20" height="20"></rect>
                <rect id="Rectangle" fill="#63C3EB" x="0" y="20" width="20" height="20"></rect>
                <rect id="Rectangle" fill="#3836B3" x="20" y="20" width="20" height="20"></rect>
                <circle id="Oval" fill="#FFFFFF" cx="30" cy="10" r="10"></circle>
            </g>
        </g>
        <g id="Icon" transform="translate(706.000000, 217.000000)">
            <circle id="Oval" stroke="#3836B3" stroke-width="3" fill="#FFFFFF" fill-rule="nonzero" stroke-linecap="round" stroke-linejoin="round" cx="24" cy="24" r="24"></circle>
            <rect id="Rectangle" stroke="#2267F0" stroke-width="2" opacity="0" stroke-linecap="round" stroke-linejoin="round" transform="translate(24.000000, 24.000000) rotate(-90.000000) translate(-24.000000, -24.000000) " x="8" y="8" width="32" height="32"></rect>
            <path d="M17.13,21.41 L13.84,26.21 C13.6958207,26.4151707 13.4607642,26.5372811 13.21,26.5372811 C12.9592358,26.5372811 12.7241793,26.4151707 12.58,26.21 L9.3,21.41 C9.14191963,21.1752167 9.12539181,20.8726331 9.25695918,20.6220286 C9.38852655,20.3714241 9.64697645,20.2132037 9.93,20.21 L16.5,20.21 C16.7830236,20.2132037 17.0414734,20.3714241 17.1730408,20.6220286 C17.3046082,20.8726331 17.2880804,21.1752167 17.13,21.41 L17.13,21.41 Z" id="Path" fill="#387AF2" fill-rule="nonzero"></path>
            <path d="M38.72,27.44 L35.23,22.34 C35.1093261,22.1598903 34.9067987,22.0518011 34.69,22.0518011 C34.4732013,22.0518011 34.2706739,22.1598903 34.15,22.34 L30.66,27.44 C30.5395727,27.6399731 30.5337374,27.888686 30.6446539,28.0940869 C30.7555704,28.2994878 30.9667376,28.4310193 31.2,28.44 L38.2,28.44 C38.429661,28.4243857 38.6345948,28.2902424 38.7407941,28.0860129 C38.8469934,27.8817834 38.8391135,27.636977 38.72,27.44 L38.72,27.44 Z" id="Path" fill="#387AF2" fill-rule="nonzero"></path>
            <path d="M34.91,27.41 C33.5413834,31.821158 29.6705263,34.9884986 25.0757447,35.4569092 C20.4809631,35.9253198 16.0505941,33.6042399 13.82,29.56" id="Path" stroke="#387AF2" stroke-width="3" stroke-linecap="round" stroke-linejoin="round"></path>
            <path d="M12.82,20.88 C14.1034711,16.3879411 17.972827,13.1158224 22.6156693,12.5962976 C27.2585116,12.0767727 31.7553995,14.4127253 34,18.51" id="Path" stroke="#387AF2" stroke-width="3" stroke-linecap="round" stroke-linejoin="round"></path>
        </g>
        <g id="Arrow" transform="translate(304.000000, 170.000000)">
            <path d="M200,9 L200,39 C200,61.09139 182.09139,79 160,79 L50,79 C27.90861,79 10,96.90861 10,119 L10,143" id="Path" stroke="#3836B3" stroke-width="3" stroke-linecap="round" stroke-linejoin="round"></path>
            <circle id="Oval" fill="#3836B3" fill-rule="nonzero" cx="200" cy="6" r="6"></circle>
            <polyline id="Path" stroke="#3836B3" stroke-width="3" stroke-linecap="round" stroke-linejoin="round" points="0 135 10 145 20 135"></polyline>
        </g>
        <g id="Card" transform="translate(212.000000, 335.000000)" fill-rule="nonzero">
            <rect id="Rectangle" fill="#63C3EB" x="10" y="10" width="200" height="120" rx="12"></rect>
            <rect id="Rectangle" fill="#387AF2" x="0" y="0" width="200" height="120" rx="12"></rect>
            <g id="Iterate" transform="translate(66.875000, 79.195312)" fill="#FFFFFF">
                <polygon id="I" points="0 16.8046875 0 0 2.25 0 2.25 16.8046875"></polygon>
                <path d="M4.50546875,7.6640625 L4.50546875,5.90625 L6.52109375,5.90625 L6.52109375,2.23828125 L8.60703125,2.23828125 L8.60703125,5.90625 L11.4429688,5.90625 L11.4429688,7.6640625 L8.60703125,7.6640625 L8.60703125,12.6796875 C8.60703125,13.1875 8.64804688,13.6054688 8.73007813,13.9335938 C8.81210938,14.2617188 8.94296875,14.5039062 9.12265625,14.6601562 C9.30234375,14.8164062 9.48789063,14.9199219 9.67929688,14.9707031 C9.87070313,15.0214844 10.1148438,15.046875 10.4117188,15.046875 C11.0757813,15.046875 11.5484375,15.015625 11.8296875,14.953125 L11.8296875,16.8046875 C11.2828125,16.8984375 10.6578125,16.9453125 9.9546875,16.9453125 C9.728125,16.9453125 9.52304688,16.9375 9.33945313,16.921875 C9.15585938,16.90625 8.9390625,16.8691406 8.6890625,16.8105469 C8.4390625,16.7519531 8.2203125,16.671875 8.0328125,16.5703125 C7.8453125,16.46875 7.65195313,16.3222656 7.45273438,16.1308594 C7.25351563,15.9394531 7.08945313,15.7148438 6.96054688,15.4570312 C6.83164063,15.1992188 6.72617188,14.8710938 6.64414063,14.4726562 C6.56210938,14.0742188 6.52109375,13.6289062 6.52109375,13.1367188 L6.52109375,7.6640625 L4.50546875,7.6640625 Z" id="t"></path>
                <path d="M12.878125,11.3554688 C12.878125,9.66796875 13.3546875,8.29101562 14.3078125,7.22460938 C15.2609375,6.15820312 16.5773437,5.625 18.2570312,5.625 C19.6789062,5.625 20.8742187,6.09570312 21.8429687,7.03710938 C22.8117187,7.97851562 23.2960937,9.14453125 23.2960937,10.5351562 C23.2960937,11.0507812 23.2648437,11.5078125 23.2023437,11.90625 L14.940625,11.90625 C14.9796875,12.90625 15.2746094,13.7246094 15.8253906,14.3613281 C16.3761719,14.9980469 17.2101562,15.3164062 18.3273437,15.3164062 C19.7179687,15.3164062 20.6359375,14.7421875 21.08125,13.59375 L23.2023437,13.59375 C22.9992187,14.5703125 22.4640625,15.3945312 21.596875,16.0664062 C20.7296875,16.7382812 19.6398437,17.0742188 18.3273437,17.0742188 C17.4367187,17.0742188 16.6398437,16.9238281 15.9367187,16.6230469 C15.2335937,16.3222656 14.6613281,15.9101562 14.2199219,15.3867188 C13.7785156,14.8632812 13.4445312,14.2597656 13.2179687,13.5761719 C12.9914062,12.8925781 12.878125,12.1523438 12.878125,11.3554688 Z M14.9640625,10.3242188 L21.2804687,10.3242188 C21.2804687,9.37890625 20.9933594,8.62695312 20.4191406,8.06835938 C19.8449219,7.50976562 19.1085937,7.23046875 18.2101562,7.23046875 C17.2492187,7.23046875 16.4757812,7.5 15.8898437,8.0390625 C15.3039062,8.578125 14.9953125,9.33984375 14.9640625,10.3242188 Z" id="e"></path>
                <path d="M26.2195313,16.8046875 L26.2195313,5.90625 L28.3054688,5.90625 L28.3054688,8.0390625 C28.5867188,7.359375 29.0671875,6.80664062 29.746875,6.38085938 C30.4265625,5.95507812 31.153125,5.7421875 31.9265625,5.7421875 C32.3640625,5.7421875 32.7078125,5.796875 32.9578125,5.90625 L32.9578125,7.828125 C32.575,7.75 32.23125,7.7109375 31.9265625,7.7109375 C30.7390625,7.7109375 29.8386719,8.09375 29.2253906,8.859375 C28.6121094,9.625 28.3054688,10.6796875 28.3054688,12.0234375 L28.3054688,16.8046875 L26.2195313,16.8046875 Z" id="r"></path>
                <path d="M33.7484375,11.3554688 C33.7484375,10.3242188 33.9789062,9.375 34.4398437,8.5078125 C34.9007812,7.640625 35.5609375,6.94335938 36.4203125,6.41601562 C37.2796875,5.88867188 38.2523437,5.625 39.3382812,5.625 C40.1507812,5.625 40.9046875,5.81835938 41.6,6.20507812 C42.2953125,6.59179688 42.8148437,7.1171875 43.1585937,7.78125 L43.1585937,5.90625 L45.2210937,5.90625 L45.2210937,16.8046875 L43.1585937,16.8046875 L43.1585937,14.90625 C42.8148437,15.5703125 42.2953125,16.0976562 41.6,16.4882812 C40.9046875,16.8789062 40.1507812,17.0742188 39.3382812,17.0742188 C38.2523437,17.0742188 37.2796875,16.8105469 36.4203125,16.2832031 C35.5609375,15.7558594 34.9007812,15.0585938 34.4398437,14.1914062 C33.9789062,13.3242188 33.7484375,12.3789062 33.7484375,11.3554688 Z M36.81875,8.625 C36.146875,9.375 35.8109375,10.2851562 35.8109375,11.3554688 C35.8109375,12.4257812 36.1488281,13.3339844 36.8246094,14.0800781 C37.5003906,14.8261719 38.3773437,15.1992188 39.4554687,15.1992188 C40.5414062,15.1992188 41.4300781,14.8261719 42.1214844,14.0800781 C42.8128906,13.3339844 43.1585937,12.4257812 43.1585937,11.3554688 C43.1585937,10.2851562 42.8128906,9.37304688 42.1214844,8.61914062 C41.4300781,7.86523438 40.5414062,7.48828125 39.4554687,7.48828125 C38.3773437,7.48828125 37.4984375,7.8671875 36.81875,8.625 Z" id="a"></path>
                <path d="M47.4648438,7.6640625 L47.4648438,5.90625 L49.4804688,5.90625 L49.4804688,2.23828125 L51.5664062,2.23828125 L51.5664062,5.90625 L54.4023438,5.90625 L54.4023438,7.6640625 L51.5664062,7.6640625 L51.5664062,12.6796875 C51.5664062,13.1875 51.6074219,13.6054688 51.6894531,13.9335938 C51.7714844,14.2617188 51.9023438,14.5039062 52.0820312,14.6601562 C52.2617188,14.8164062 52.4472656,14.9199219 52.6386719,14.9707031 C52.8300781,15.0214844 53.0742188,15.046875 53.3710938,15.046875 C54.0351562,15.046875 54.5078125,15.015625 54.7890625,14.953125 L54.7890625,16.8046875 C54.2421875,16.8984375 53.6171875,16.9453125 52.9140625,16.9453125 C52.6875,16.9453125 52.4824219,16.9375 52.2988281,16.921875 C52.1152344,16.90625 51.8984375,16.8691406 51.6484375,16.8105469 C51.3984375,16.7519531 51.1796875,16.671875 50.9921875,16.5703125 C50.8046875,16.46875 50.6113281,16.3222656 50.4121094,16.1308594 C50.2128906,15.9394531 50.0488281,15.7148438 49.9199219,15.4570312 C49.7910156,15.1992188 49.6855469,14.8710938 49.6035156,14.4726562 C49.5214844,14.0742188 49.4804688,13.6289062 49.4804688,13.1367188 L49.4804688,7.6640625 L47.4648438,7.6640625 Z" id="t"></path>
                <path d="M55.8375,11.3554688 C55.8375,9.66796875 56.3140625,8.29101562 57.2671875,7.22460938 C58.2203125,6.15820312 59.5367188,5.625 61.2164063,5.625 C62.6382813,5.625 63.8335938,6.09570312 64.8023438,7.03710938 C65.7710938,7.97851562 66.2554688,9.14453125 66.2554688,10.5351562 C66.2554688,11.0507812 66.2242188,11.5078125 66.1617188,11.90625 L57.9,11.90625 C57.9390625,12.90625 58.2339844,13.7246094 58.7847656,14.3613281 C59.3355469,14.9980469 60.1695313,15.3164062 61.2867188,15.3164062 C62.6773438,15.3164062 63.5953125,14.7421875 64.040625,13.59375 L66.1617188,13.59375 C65.9585938,14.5703125 65.4234375,15.3945312 64.55625,16.0664062 C63.6890625,16.7382812 62.5992188,17.0742188 61.2867188,17.0742188 C60.3960938,17.0742188 59.5992188,16.9238281 58.8960938,16.6230469 C58.1929688,16.3222656 57.6207031,15.9101562 57.1792969,15.3867188 C56.7378906,14.8632812 56.4039063,14.2597656 56.1773438,13.5761719 C55.9507813,12.8925781 55.8375,12.1523438 55.8375,11.3554688 Z M57.9234375,10.3242188 L64.2398438,10.3242188 C64.2398438,9.37890625 63.9527344,8.62695312 63.3785156,8.06835938 C62.8042969,7.50976562 62.0679688,7.23046875 61.1695313,7.23046875 C60.2085938,7.23046875 59.4351563,7.5 58.8492188,8.0390625 C58.2632813,8.578125 57.9546875,9.33984375 57.9234375,10.3242188 Z" id="e"></path>
            </g>
            <g id="Icon" transform="translate(79.182012, 29.000000)">
                <path d="M11.8179882,0 L10.5379882,0 C10.2979882,0 10.0579882,0.06 9.82798823,0.09 C9.55184585,0.11209139 9.34589684,0.353857625 9.36798823,0.63 C9.39007962,0.906142375 9.63184585,1.11209139 9.90798823,1.09 L9.98798823,1.09 C10.5945065,1.01007156 11.206554,0.979970865 11.8179882,1 C12.0941306,1 12.3179882,0.776142375 12.3179882,0.5 C12.3179882,0.223857625 12.0941306,0 11.8179882,0 L11.8179882,0 Z M5.48798823,1.9 C5.38930251,1.90197342 5.29282055,1.9295397 5.20798823,1.98 C4.97798823,2.14 4.74798823,2.3 4.52798823,2.47 L4.52798823,2.47 L4.52798823,2.47 L4.36798823,2.47 L4.36798823,2.47 L4.36798823,2.47 C4.14798823,2.65 3.92798823,2.83 3.71798823,3.03 C3.6233319,3.1238833 3.57008907,3.25168123 3.57008907,3.385 C3.57008907,3.51831877 3.6233319,3.6461167 3.71798823,3.74 C3.81206382,3.8376584 3.94240241,3.89196614 4.07798823,3.89 C4.20399399,3.89298693 4.32611861,3.84629222 4.41798823,3.76 C4.86377568,3.34166344 5.34564877,2.96352692 5.85798823,2.63 C5.97041956,2.55659505 6.04860228,2.44105438 6.07493528,2.30938941 C6.10126827,2.17772444 6.07353833,2.04100123 5.99798823,1.93 C5.90707589,1.79231709 5.75297763,1.70963021 5.58798823,1.70999876 L5.48798823,1.9 Z M1.23798823,7 C1.03930773,7.00185758 0.859792738,7.11893257 0.77798823,7.3 L0.77798823,7.3 L0.77798823,7.3 L0.77798823,7.3 C0.537686165,7.89262995 0.337239945,8.50065015 0.17798823,9.12 C0.114911079,9.39011927 0.279289633,9.66112175 0.54798823,9.73002148 L0.66798823,9.73002148 C0.899627744,9.73213502 1.10240222,9.57488134 1.15798823,9.35 C1.29806476,8.75481885 1.48875885,8.17270004 1.72798823,7.61 C1.78111552,7.48948307 1.78348937,7.35265275 1.73457448,7.2303655 C1.68565958,7.10807825 1.58957483,7.01063137 1.46798823,6.96 C1.40216558,6.94499763 1.33381088,6.94499763 1.26798823,6.96 L1.23798823,7 Z M0.49798823,13.57 L0.40798823,13.57 C0.137951346,13.6206042 -0.0406704111,13.8796058 0.00798822957,14.15 C0.0991974444,14.6681577 0.226167627,15.1793798 0.38798823,15.68 L0.38798823,15.68 L0.38798823,15.68 L0.38798823,15.68 L0.38798823,15.68 L0.38798823,15.68 L0.38798823,15.68 L0.44798823,15.68 L0.44798823,15.68 L0.44798823,15.68 L0.44798823,15.74 C0.51956333,15.9379737 0.707473192,16.0699104 0.91798823,16.07 L1.08798823,16.07 C1.3474815,15.9760233 1.48175727,15.6895684 1.38798823,15.43 C1.17790848,14.8547351 1.01732537,14.2625849 0.90798823,13.66 C0.868459274,13.4209987 0.660214598,13.2467532 0.41798823,13.25 L0.49798823,13.57 Z M3.49798823,19.46 C3.37077855,19.4607626 3.24885164,19.5109678 3.15798823,19.6 C3.0633319,19.6938833 3.01008907,19.8216812 3.01008907,19.955 C3.01008907,20.0883188 3.0633319,20.2161167 3.15798823,20.31 L3.42798823,20.58 L3.42798823,20.58 L3.42798823,20.58 L3.42798823,20.58 L3.42798823,20.58 L3.53798823,20.58 L3.53798823,20.58 L3.53798823,20.58 L3.53798823,20.58 L3.53798823,20.58 L3.83798823,20.84 L3.83798823,20.84 L3.83798823,20.84 L3.83798823,20.84 L3.83798823,20.84 L3.99798823,20.84 L3.99798823,20.84 L3.99798823,20.84 L4.37798823,21.13 C4.46036574,21.1955326 4.56272717,21.2308297 4.66798823,21.23 C4.82851533,21.2315777 4.98041598,21.1574798 5.07798823,21.03 C5.15650309,20.9226827 5.18903602,20.7885107 5.16839372,20.6571506 C5.14775141,20.5257904 5.07563435,20.4080634 4.96798823,20.33 C4.57114246,20.1086367 4.18719074,19.8649109 3.81798823,19.6 C3.7280534,19.4953799 3.59591001,19.4366495 3.45798823,19.44 L3.49798823,19.46 Z M9.24798823,22.73 C9.01467092,22.7326028 8.81287532,22.8932156 8.75798823,23.12 C8.72820261,23.2500022 8.7515899,23.3865166 8.82295021,23.4991907 C8.89431051,23.6118649 9.00772892,23.6913596 9.13798823,23.72 C9.79530242,23.8709995 10.4644783,23.9646841 11.1379882,24.0000002 L11.1379882,24.0000002 C11.4009858,24.0002192 11.6172537,23.7927786 11.6279882,23.53 C11.6361879,23.397333 11.5912252,23.2668611 11.5030343,23.1674119 C11.4148435,23.0679627 11.2906839,23.0077221 11.1579882,23 C10.5479806,22.9687931 9.94211494,22.8817627 9.34798823,22.74 L9.24798823,22.73 Z M17.5779882,21.48 C17.491173,21.4807 17.4056647,21.5012219 17.3279882,21.54 C16.8001405,21.8473006 16.2483487,22.1114918 15.6779882,22.33 C15.418495,22.4239767 15.2842192,22.7104316 15.3779882,22.97 C15.4551441,23.1622063 15.6408783,23.2886636 15.8479882,23.29 C15.9041838,23.3003334 15.9617926,23.3003334 16.0179882,23.29 C16.6195452,23.0689559 17.2015717,22.7980125 17.7579882,22.48 L17.7579882,22.48 L17.8279882,22.48 C18.0655327,22.3371362 18.1454732,22.0306976 18.0079882,21.79 C17.9181837,21.6385553 17.7540307,21.546935 17.5779882,21.55 L17.5779882,21.48 Z M22.1079882,16.6599952 C21.9219596,16.6591792 21.7515103,16.7637731 21.6679882,16.93 C21.3758083,17.478436 21.0414694,18.0033482 20.6679882,18.5 C20.5112056,18.7217112 20.5600388,19.0280287 20.7779882,19.19 C20.8634361,19.2569838 20.9694396,19.2923183 21.0779882,19.29 C21.2350004,19.2884643 21.3825524,19.2146883 21.4779882,19.09 C21.6979882,18.79 21.8979882,18.48 22.0879882,18.17 L22.0879882,18.17 L22.0879882,18.17 L22.0879882,18.17 L22.0879882,18.17 L22.1879882,18.17 L22.1879882,18.17 L22.1879882,18.17 L22.1879882,18.17 L22.1879882,18.17 L22.1879882,18.17 L22.1879882,18.17 L22.1879882,18.17 L22.1879882,18.17 L22.1879882,18.17 L22.1879882,18.17 L22.1879882,18.17 L22.2779882,18.17 L22.2779882,18.17 L22.2779882,18.17 L22.2779882,18.17 C22.4014504,17.9241732 22.3031447,17.6247878 22.0579882,17.5 C21.9866594,17.4645032 21.9076164,17.44732 21.8279882,17.45 L22.1079882,16.6599952 Z M23.2379882,10.14 L23.1779882,10.14 C23.0449741,10.154991 22.9235249,10.2226901 22.8408257,10.3279437 C22.7581264,10.4331973 22.7210834,10.5672155 22.7379882,10.7 C22.789086,11.1314836 22.8157951,11.5655069 22.8179882,12 C22.8179882,12.17 22.8179882,12.34 22.8179882,12.51 C22.8125765,12.6426365 22.8601313,12.7719809 22.9501708,12.8695237 C23.0402104,12.9670666 23.1653432,13.0248005 23.2979882,13.0300008 L23.2979882,13.0300008 C23.5628269,13.0304771 23.7820983,12.8243619 23.7979882,12.56 C23.7979882,12.42 23.7979882,12.28 23.7979882,12.15 L23.7979882,12.15 L23.7979882,12.15 L23.7979882,12.15 L23.7979882,12.15 L23.7979882,12.15 L23.7979882,12.15 L23.7979882,12.15 L23.7979882,12.15 L23.7979882,12.15 C23.7979882,12.15 23.7979882,12.07 23.7979882,12.03 C23.7722527,11.7790749 23.5602262,11.5886837 23.3079882,11.59 L23.2379882,10.14 Z M20.5879882,4.08 C20.4700425,4.0784275 20.3558175,4.12126188 20.2679882,4.2 C20.1655902,4.28381594 20.101445,4.40548397 20.0901442,4.53732765 C20.0788433,4.66917134 20.1213475,4.79998074 20.2079882,4.9 C20.5991718,5.3686231 20.9535599,5.86677249 21.2679882,6.39 C21.3582153,6.54231761 21.520979,6.63694765 21.6979882,6.64 C21.7888919,6.63701896 21.8778756,6.61306181 21.9579882,6.57 C22.0725508,6.50150953 22.1549732,6.39005666 22.1869035,6.26045737 C22.2188337,6.13085809 22.1976209,5.99387189 22.1279882,5.88 C21.7883347,5.30783774 21.4002466,4.76585264 20.9679882,4.26 C20.8748103,4.14594004 20.7352695,4.07984176 20.5879882,4.08 L20.5879882,4.08 Z M15.0379882,0.48 C14.7618459,0.441340158 14.5066483,0.633857704 14.4679884,0.910000021 C14.4293285,1.18614234 14.6218459,1.44133999 14.8979882,1.48 C15.4845353,1.6503444 16.056389,1.8677157 16.6079882,2.13 C16.6753889,2.1664195 16.7514672,2.18371002 16.8279882,2.18 C17.0191858,2.18038263 17.1938615,2.07169551 17.2779882,1.9 C17.3942317,1.65116857 17.2925523,1.35497213 17.0479882,1.23 L16.7779882,1.11 L16.7779882,1.11 L16.7779882,1.11 L16.6179882,1.11 C16.2659715,0.95602967 15.9053736,0.822474903 15.5379882,0.71 L15.3379882,0.71 L15.2179882,0.71 C15.1718936,0.699666533 15.1240829,0.699666533 15.0779882,0.71 L15.0379882,0.48 Z" id="Shape" fill="#FFFFFF"></path>
                <circle id="Oval" fill="#3836B3" cx="18.8179882" cy="12" r="12"></circle>
                <circle id="Oval" fill="#63C3EB" cx="27.8179882" cy="12" r="12"></circle>
            </g>
        </g>
        <g id="Arrow" transform="translate(303.000000, 485.000000)">
            <line x1="10" y1="12" x2="10" y2="144" id="Path" stroke="#63C3EB" stroke-width="3" stroke-linecap="round" stroke-linejoin="round"></line>
            <polyline id="Path" stroke="#63C3EB" stroke-width="3" stroke-linecap="round" stroke-linejoin="round" points="20 135 10 145 0 135"></polyline>
            <circle id="Oval" fill="#63C3EB" fill-rule="nonzero" cx="10" cy="6" r="6"></circle>
        </g>
        <g id="Arrow" transform="translate(333.000000, 485.000000)">
            <path d="M6,11 L6,33 C6,55.09139 23.90861,73 46,73 L216,73" id="Path" stroke="#3836B3" stroke-width="3" stroke-linecap="round" stroke-linejoin="round"></path>
            <circle id="Oval" fill="#3836B3" fill-rule="nonzero" cx="6" cy="6" r="6"></circle>
            <polyline id="Path" stroke="#3836B3" stroke-width="3" stroke-linecap="round" stroke-linejoin="round" points="207 63 217 73 207 83"></polyline>
        </g>
        <g id="Arrow" transform="translate(98.000000, 390.000000)" stroke="#3836B3" stroke-width="3">
            <circle id="Oval" cx="88" cy="324" r="4.5"></circle>
            <path d="M79.1097976,324 L39.6343256,324 C29.0952072,324 18.9900419,319.763855 11.5526495,312.227759 C4.11525708,304.691664 -0.0418389495,294.476355 0,283.84 L0.693912665,49.84 C0.781222645,27.8111196 18.5004255,10 40.3279207,10 L93,10" id="Path" stroke-linecap="round" stroke-linejoin="round" stroke-dasharray="8"></path>
            <polyline id="Path" stroke-linecap="round" stroke-linejoin="round" points="83.9993791 0 93.9993791 10 83.9993791 20"></polyline>
        </g>
        <g id="Icon" transform="translate(74.000000, 531.000000)">
            <circle id="Oval" stroke="#3836B3" stroke-width="3" fill="#FFFFFF" fill-rule="nonzero" stroke-linecap="round" stroke-linejoin="round" cx="24" cy="24" r="24"></circle>
            <rect id="Rectangle" stroke="#2267F0" stroke-width="2" opacity="0" stroke-linecap="round" stroke-linejoin="round" transform="translate(24.000000, 24.000000) rotate(-90.000000) translate(-24.000000, -24.000000) " x="8" y="8" width="32" height="32"></rect>
            <path d="M30.87,21.41 L34.16,26.21 C34.3041793,26.4151707 34.5392358,26.5372811 34.79,26.5372811 C35.0407642,26.5372811 35.2758207,26.4151707 35.42,26.21 L38.7,21.41 C38.8580804,21.1752167 38.8746082,20.8726331 38.7430408,20.6220286 C38.6114734,20.3714241 38.3530236,20.2132037 38.07,20.21 L31.5,20.21 C31.2169764,20.2132037 30.9585266,20.3714241 30.8269592,20.6220286 C30.6953918,20.8726331 30.7119196,21.1752167 30.87,21.41 Z" id="Path" fill="#387AF2" fill-rule="nonzero"></path>
            <path d="M9.28,27.44 L12.77,22.34 C12.8906739,22.1598903 13.0932013,22.0518011 13.31,22.0518011 C13.5267987,22.0518011 13.7293261,22.1598903 13.85,22.34 L17.34,27.44 C17.4604273,27.6399731 17.4662626,27.888686 17.3553461,28.0940869 C17.2444296,28.2994878 17.0332624,28.4310193 16.8,28.44 L9.8,28.44 C9.570339,28.4243857 9.36540523,28.2902424 9.25920589,28.0860129 C9.15300656,27.8817834 9.16088648,27.636977 9.28,27.44 Z" id="Path" fill="#387AF2" fill-rule="nonzero"></path>
            <path d="M13.09,27.41 C14.4586166,31.821158 18.3294737,34.9884986 22.9242553,35.4569092 C27.5190369,35.9253198 31.9494059,33.6042399 34.18,29.56" id="Path" stroke="#387AF2" stroke-width="3" stroke-linecap="round" stroke-linejoin="round"></path>
            <path d="M35.18,20.88 C33.8965289,16.3879411 30.027173,13.1158224 25.3843307,12.5962976 C20.7414884,12.0767727 16.2446005,14.4127253 14,18.51" id="Path" stroke="#387AF2" stroke-width="3" stroke-linecap="round" stroke-linejoin="round"></path>
        </g>
        <g id="Card" transform="translate(570.000000, 493.000000)">
            <rect id="Rectangle" fill="#63C3EB" fill-rule="nonzero" x="10" y="10" width="200" height="120" rx="12"></rect>
            <rect id="Rectangle" fill="#387AF2" fill-rule="nonzero" x="0" y="0" width="200" height="120" rx="12"></rect>
            <g id="Deliver" transform="translate(65.875000, 79.195312)" fill="#FFFFFF" fill-rule="nonzero">
                <path d="M0,16.8046875 L0,0 L5.1796875,0 C6.2578125,0 7.26953125,0.15625 8.21484375,0.46875 C9.16015625,0.78125 9.97460938,1.20703125 10.6582031,1.74609375 C11.3417969,2.28515625 11.9316406,2.91015625 12.4277344,3.62109375 C12.9238281,4.33203125 13.2929688,5.09375 13.5351562,5.90625 C13.7773438,6.71875 13.8984375,7.55078125 13.8984375,8.40234375 C13.8984375,9.25390625 13.7773438,10.0859375 13.5351562,10.8984375 C13.2929688,11.7109375 12.9238281,12.4726562 12.4277344,13.1835938 C11.9316406,13.8945312 11.3417969,14.5195312 10.6582031,15.0585938 C9.97460938,15.5976562 9.16015625,16.0234375 8.21484375,16.3359375 C7.26953125,16.6484375 6.2578125,16.8046875 5.1796875,16.8046875 L0,16.8046875 Z M2.1796875,14.8359375 L5.1796875,14.8359375 C6.1796875,14.8359375 7.09375,14.6523438 7.921875,14.2851562 C8.75,13.9179688 9.4296875,13.4316406 9.9609375,12.8261719 C10.4921875,12.2207031 10.9042969,11.5371094 11.1972656,10.7753906 C11.4902344,10.0136719 11.6367188,9.22265625 11.6367188,8.40234375 C11.6367188,7.58203125 11.4902344,6.79101562 11.1972656,6.02929688 C10.9042969,5.26757812 10.4921875,4.58398438 9.9609375,3.97851562 C9.4296875,3.37304688 8.75,2.88671875 7.921875,2.51953125 C7.09375,2.15234375 6.1796875,1.96875 5.1796875,1.96875 L2.1796875,1.96875 L2.1796875,14.8359375 Z" id="D"></path>
                <path d="M15.7789063,11.3554688 C15.7789063,9.66796875 16.2554688,8.29101562 17.2085938,7.22460938 C18.1617188,6.15820312 19.478125,5.625 21.1578125,5.625 C22.5796875,5.625 23.775,6.09570312 24.74375,7.03710938 C25.7125,7.97851562 26.196875,9.14453125 26.196875,10.5351562 C26.196875,11.0507812 26.165625,11.5078125 26.103125,11.90625 L17.8414063,11.90625 C17.8804688,12.90625 18.1753906,13.7246094 18.7261719,14.3613281 C19.2769531,14.9980469 20.1109375,15.3164062 21.228125,15.3164062 C22.61875,15.3164062 23.5367188,14.7421875 23.9820313,13.59375 L26.103125,13.59375 C25.9,14.5703125 25.3648438,15.3945312 24.4976563,16.0664062 C23.6304688,16.7382812 22.540625,17.0742188 21.228125,17.0742188 C20.3375,17.0742188 19.540625,16.9238281 18.8375,16.6230469 C18.134375,16.3222656 17.5621094,15.9101562 17.1207031,15.3867188 C16.6792969,14.8632812 16.3453125,14.2597656 16.11875,13.5761719 C15.8921875,12.8925781 15.7789063,12.1523438 15.7789063,11.3554688 Z M17.8648438,10.3242188 L24.18125,10.3242188 C24.18125,9.37890625 23.8941406,8.62695312 23.3199219,8.06835938 C22.7457031,7.50976562 22.009375,7.23046875 21.1109375,7.23046875 C20.15,7.23046875 19.3765625,7.5 18.790625,8.0390625 C18.2046875,8.578125 17.8960938,9.33984375 17.8648438,10.3242188 Z" id="e"></path>
                <polygon id="l" points="29.1203125 16.8046875 29.1203125 0 31.20625 0 31.20625 16.8046875"></polygon>
                <path d="M34.6921875,2.96484375 C34.371875,2.64453125 34.2117187,2.25 34.2117187,1.78125 C34.2117187,1.3125 34.371875,0.912109375 34.6921875,0.580078125 C35.0125,0.248046875 35.4070312,0.08203125 35.8757812,0.08203125 C36.3445312,0.08203125 36.7449219,0.248046875 37.0769531,0.580078125 C37.4089844,0.912109375 37.575,1.3125 37.575,1.78125 C37.575,2.25 37.4089844,2.64257812 37.0769531,2.95898438 C36.7449219,3.27539062 36.3445312,3.43359375 35.8757812,3.43359375 C35.4070312,3.43359375 35.0125,3.27734375 34.6921875,2.96484375 Z M34.8445312,16.8046875 L34.8445312,5.90625 L36.9304687,5.90625 L36.9304687,16.8046875 L34.8445312,16.8046875 Z" id="i"></path>
                <polygon id="v" points="38.7875 5.90625 41.0492187 5.90625 44.459375 13.828125 47.9046875 5.90625 50.1664062 5.90625 45.1742187 16.8046875 43.7328125 16.8046875"></polygon>
                <path d="M50.59375,11.3554688 C50.59375,9.66796875 51.0703125,8.29101562 52.0234375,7.22460938 C52.9765625,6.15820312 54.2929688,5.625 55.9726562,5.625 C57.3945312,5.625 58.5898438,6.09570312 59.5585938,7.03710938 C60.5273438,7.97851562 61.0117188,9.14453125 61.0117188,10.5351562 C61.0117188,11.0507812 60.9804688,11.5078125 60.9179688,11.90625 L52.65625,11.90625 C52.6953125,12.90625 52.9902344,13.7246094 53.5410156,14.3613281 C54.0917969,14.9980469 54.9257812,15.3164062 56.0429688,15.3164062 C57.4335938,15.3164062 58.3515625,14.7421875 58.796875,13.59375 L60.9179688,13.59375 C60.7148438,14.5703125 60.1796875,15.3945312 59.3125,16.0664062 C58.4453125,16.7382812 57.3554688,17.0742188 56.0429688,17.0742188 C55.1523438,17.0742188 54.3554688,16.9238281 53.6523438,16.6230469 C52.9492188,16.3222656 52.3769531,15.9101562 51.9355469,15.3867188 C51.4941406,14.8632812 51.1601562,14.2597656 50.9335938,13.5761719 C50.7070312,12.8925781 50.59375,12.1523438 50.59375,11.3554688 Z M52.6796875,10.3242188 L58.9960938,10.3242188 C58.9960938,9.37890625 58.7089844,8.62695312 58.1347656,8.06835938 C57.5605469,7.50976562 56.8242188,7.23046875 55.9257812,7.23046875 C54.9648438,7.23046875 54.1914062,7.5 53.6054688,8.0390625 C53.0195312,8.578125 52.7109375,9.33984375 52.6796875,10.3242188 Z" id="e"></path>
                <path d="M63.9351562,16.8046875 L63.9351562,5.90625 L66.0210937,5.90625 L66.0210937,8.0390625 C66.3023437,7.359375 66.7828125,6.80664062 67.4625,6.38085938 C68.1421875,5.95507812 68.86875,5.7421875 69.6421875,5.7421875 C70.0796875,5.7421875 70.4234375,5.796875 70.6734375,5.90625 L70.6734375,7.828125 C70.290625,7.75 69.946875,7.7109375 69.6421875,7.7109375 C68.4546875,7.7109375 67.5542969,8.09375 66.9410156,8.859375 C66.3277344,9.625 66.0210937,10.6796875 66.0210937,12.0234375 L66.0210937,16.8046875 L63.9351562,16.8046875 Z" id="r"></path>
            </g>
            <g id="Icon" transform="translate(80.000000, 18.000000)">
                <path d="M14,19 L18.08,19 C19.7368542,19 21.08,17.6568542 21.08,16 L21.08,10 C21.08,8.34314575 22.4231458,7 24.08,7 L25,7" id="Path" stroke="#3836B3" stroke-width="2"></path>
                <path d="M14,23 L18.15,23 C19.7642971,23 21.0744905,24.3057123 21.08,25.92 L21.08,29.08 C21.08,29.8544322 21.387642,30.5971456 21.9352482,31.1447518 C22.4828544,31.692358 23.2255678,32 24,32 L24,32" id="Path" stroke="#FFFFFF" stroke-width="2"></path>
                <rect id="Rectangle" fill="#FFFFFF" fill-rule="nonzero" x="0" y="13" width="16" height="16"></rect>
                <rect id="Rectangle" fill="#63C3EB" fill-rule="nonzero" x="25" y="0" width="14" height="14"></rect>
                <rect id="Rectangle" fill="#3836B3" fill-rule="nonzero" x="24" y="24" width="16" height="16"></rect>
            </g>
        </g>
        <g id="Arrow" transform="translate(442.000000, 643.000000)">
            <path d="M12,71 L191,71 C213.09139,71 231,53.09139 231,31 L231,2" id="Path" stroke="#63C3EB" stroke-width="3" stroke-linecap="round" stroke-linejoin="round"></path>
            <circle id="Oval" fill="#63C3EB" fill-rule="nonzero" cx="6" cy="71" r="6"></circle>
            <polyline id="Path" stroke="#63C3EB" stroke-width="3" stroke-linecap="round" stroke-linejoin="round" points="221 10 231 0 241 10"></polyline>
        </g>
        <g id="Card" transform="translate(212.000000, 650.000000)" fill-rule="nonzero">
            <rect id="Rectangle" fill="#63C3EB" x="10" y="10" width="200" height="120" rx="12"></rect>
            <rect id="Rectangle" fill="#387AF2" x="0" y="0" width="200" height="120" rx="12"></rect>
            <g id="Build" transform="translate(74.875000, 79.195312)" fill="#FFFFFF">
                <path d="M0,16.8046875 L0,0 L5.73046875,0 C6.51171875,0 7.20703125,0.095703125 7.81640625,0.287109375 C8.42578125,0.478515625 8.91601562,0.724609375 9.28710938,1.02539062 C9.65820312,1.32617188 9.96484375,1.6796875 10.2070312,2.0859375 C10.4492188,2.4921875 10.6152344,2.890625 10.7050781,3.28125 C10.7949219,3.671875 10.8398438,4.07421875 10.8398438,4.48828125 C10.8398438,5.46484375 10.5429688,6.29882812 9.94921875,6.99023438 C9.35546875,7.68164062 8.65234375,8.11328125 7.83984375,8.28515625 C8.17578125,8.31640625 8.52148438,8.42382812 8.87695312,8.60742188 C9.23242188,8.79101562 9.56835938,9.03710938 9.88476562,9.34570312 C10.2011719,9.65429688 10.4609375,10.0546875 10.6640625,10.546875 C10.8671875,11.0390625 10.96875,11.5742188 10.96875,12.1523438 C10.96875,12.5664062 10.9199219,12.9746094 10.8222656,13.3769531 C10.7246094,13.7792969 10.5488281,14.1914062 10.2949219,14.6132812 C10.0410156,15.0351562 9.72460938,15.4042969 9.34570312,15.7207031 C8.96679688,16.0371094 8.46679688,16.296875 7.84570312,16.5 C7.22460938,16.703125 6.52734375,16.8046875 5.75390625,16.8046875 L0,16.8046875 Z M2.1796875,14.8359375 L5.84765625,14.8359375 C6.37109375,14.8359375 6.83007812,14.7539062 7.22460938,14.5898438 C7.61914062,14.4257812 7.92578125,14.2070312 8.14453125,13.9335938 C8.36328125,13.6601562 8.5234375,13.3691406 8.625,13.0605469 C8.7265625,12.7519531 8.77734375,12.4257812 8.77734375,12.0820312 C8.77734375,11.7851562 8.72265625,11.4824219 8.61328125,11.1738281 C8.50390625,10.8652344 8.34179688,10.5683594 8.12695312,10.2832031 C7.91210938,9.99804688 7.61132812,9.765625 7.22460938,9.5859375 C6.83789062,9.40625 6.3984375,9.31640625 5.90625,9.31640625 L2.1796875,9.31640625 L2.1796875,14.8359375 Z M2.1796875,7.32421875 L5.77734375,7.32421875 C6.29296875,7.32421875 6.74609375,7.2421875 7.13671875,7.078125 C7.52734375,6.9140625 7.828125,6.6953125 8.0390625,6.421875 C8.25,6.1484375 8.40625,5.86523438 8.5078125,5.57226562 C8.609375,5.27929688 8.66015625,4.9765625 8.66015625,4.6640625 C8.66015625,4.359375 8.609375,4.05859375 8.5078125,3.76171875 C8.40625,3.46484375 8.25,3.17773438 8.0390625,2.90039062 C7.828125,2.62304688 7.5234375,2.3984375 7.125,2.2265625 C6.7265625,2.0546875 6.26171875,1.96875 5.73046875,1.96875 L2.1796875,1.96875 L2.1796875,7.32421875 Z" id="B"></path>
                <path d="M13.8570313,12.3398438 L13.8570313,5.90625 L15.9429688,5.90625 L15.9429688,11.671875 C15.9429688,12.7578125 16.1617188,13.6210938 16.5992188,14.2617188 C17.0367188,14.9023438 17.7320313,15.2226562 18.6851563,15.2226562 C19.3648438,15.2226562 19.9449219,15.046875 20.4253906,14.6953125 C20.9058594,14.34375 21.2554688,13.8945312 21.4742188,13.3476562 C21.6929688,12.8007812 21.8023438,12.1835938 21.8023438,11.4960938 L21.8023438,5.90625 L23.8882813,5.90625 L23.8882813,16.8046875 L21.8023438,16.8046875 L21.8023438,14.859375 C21.4742188,15.546875 20.978125,16.0878906 20.3140625,16.4824219 C19.65,16.8769531 18.86875,17.0742188 17.9703125,17.0742188 C16.4625,17.0742188 15.3648438,16.6015625 14.6773438,15.65625 C14.3804688,15.234375 14.1695313,14.7695312 14.0445313,14.2617188 C13.9195313,13.7539062 13.8570313,13.1132812 13.8570313,12.3398438 Z" id="u"></path>
                <path d="M27.3859375,2.96484375 C27.065625,2.64453125 26.9054687,2.25 26.9054687,1.78125 C26.9054687,1.3125 27.065625,0.912109375 27.3859375,0.580078125 C27.70625,0.248046875 28.1007812,0.08203125 28.5695312,0.08203125 C29.0382812,0.08203125 29.4386719,0.248046875 29.7707031,0.580078125 C30.1027344,0.912109375 30.26875,1.3125 30.26875,1.78125 C30.26875,2.25 30.1027344,2.64257812 29.7707031,2.95898438 C29.4386719,3.27539062 29.0382812,3.43359375 28.5695312,3.43359375 C28.1007812,3.43359375 27.70625,3.27734375 27.3859375,2.96484375 Z M27.5382812,16.8046875 L27.5382812,5.90625 L29.6242187,5.90625 L29.6242187,16.8046875 L27.5382812,16.8046875 Z" id="i"></path>
                <polygon id="l" points="33.2625 16.8046875 33.2625 0 35.3484375 0 35.3484375 16.8046875"></polygon>
                <path d="M38.0960937,11.3554688 C38.0960937,10.3242188 38.3265625,9.375 38.7875,8.5078125 C39.2484375,7.640625 39.9085937,6.94335938 40.7679687,6.41601562 C41.6273437,5.88867188 42.6,5.625 43.6859375,5.625 C44.4984375,5.625 45.2523437,5.81835937 45.9476562,6.20507812 C46.6429687,6.59179688 47.1625,7.1171875 47.50625,7.78125 L47.50625,0 L49.56875,0 L49.56875,16.8046875 L47.50625,16.8046875 L47.50625,14.90625 C47.1625,15.5703125 46.6429687,16.0976562 45.9476562,16.4882812 C45.2523437,16.8789062 44.4984375,17.0742188 43.6859375,17.0742188 C42.6,17.0742188 41.6273437,16.8105469 40.7679687,16.2832031 C39.9085937,15.7558594 39.2484375,15.0585938 38.7875,14.1914062 C38.3265625,13.3242188 38.0960937,12.3789062 38.0960937,11.3554688 Z M41.1664062,8.625 C40.4945312,9.375 40.1585937,10.2851562 40.1585937,11.3554688 C40.1585937,12.4257812 40.4964844,13.3339844 41.1722656,14.0800781 C41.8480469,14.8261719 42.725,15.1992188 43.803125,15.1992188 C44.8890625,15.1992188 45.7777344,14.8261719 46.4691406,14.0800781 C47.1605469,13.3339844 47.50625,12.4257812 47.50625,11.3554688 C47.50625,10.2851562 47.1605469,9.37304688 46.4691406,8.61914062 C45.7777344,7.86523438 44.8890625,7.48828125 43.803125,7.48828125 C42.725,7.48828125 41.8460937,7.8671875 41.1664062,8.625 Z" id="d"></path>
            </g>
            <g id="Icon" transform="translate(80.000000, 19.000000)">
                <polygon id="Path" fill="#3836B3" points="0 36 7 28 33 28 40 36"></polygon>
                <polygon id="Path" fill="#FFFFFF" points="20.35 0 14.72 9.96 29.36 36 40 36"></polygon>
                <polygon id="Path" fill="#63C3EB" points="20.35 0 25.51 9.45 10.64 36 0 36"></polygon>
            </g>
        </g>
    </g>
</svg>