<?xml version="1.0" encoding="UTF-8"?>
<svg width="580px" height="580px" viewBox="0 0 580 580" version="1.1" xmlns="http://www.w3.org/2000/svg" xmlns:xlink="http://www.w3.org/1999/xlink">
    <title>graphics / illustrations / illustration-home-header</title>
    <defs>
        <path d="M10,0 C4.477,0 0,4.478 0,10 L0,10 L0,31 L164,31 L164,10 C164,4.478 159.523,0 154,0 L154,0 L10,0 Z" id="path-1"></path>
    </defs>
    <g id="graphics-/-illustrations-/-illustration-home-header" stroke="none" stroke-width="1" fill="none" fill-rule="evenodd">
        <g id="Group-98">
            <polygon id="Fill-1" fill="#9BBAF2" points="264 138.0001 352 138.0001 352 50.0001 264 50.0001"></polygon>
            <polygon id="Fill-2" fill="#3836B3" points="224.0001 0 399.9991 176 399.9991 0"></polygon>
            <g id="Group-42" transform="translate(0.000000, 43.000100)">
                <path d="M359,50 C359,77.614 336.614,100 309,100 C281.386,100 259,77.614 259,50 C259,22.386 281.386,0 309,0 C336.614,0 359,22.386 359,50 Z" id="Stroke-3" stroke="#387AF2" stroke-width="46" stroke-linecap="round" stroke-linejoin="round"></path>
                <path d="M309,100 C281.386,100 259,77.614 259,50" id="Stroke-5" stroke="#63C3EB" stroke-width="46" stroke-linejoin="round"></path>
                <path d="M118,135 C118,139.418 114.418,143 110,143 C105.582,143 102,139.418 102,135 C102,130.582 105.582,127 110,127 C114.418,127 118,130.582 118,135 Z" id="Stroke-7" stroke="#387AF2"></path>
                <path d="M148,135 C148,139.418 144.418,143 140,143 C135.582,143 132,139.418 132,135 C132,130.582 135.582,127 140,127 C144.418,127 148,130.582 148,135" id="Fill-9" fill="#387AF2"></path>
                <path d="M178,135 C178,139.418 174.418,143 170,143 C165.582,143 162,139.418 162,135 C162,130.582 165.582,127 170,127 C174.418,127 178,130.582 178,135 Z" id="Stroke-11" stroke="#387AF2"></path>
                <path d="M208,135 C208,139.418 204.418,143 200,143 C195.582,143 192,139.418 192,135 C192,130.582 195.582,127 200,127 C204.418,127 208,130.582 208,135 Z" id="Stroke-13" stroke="#387AF2"></path>
                <path d="M118,165 C118,169.418 114.418,173 110,173 C105.582,173 102,169.418 102,165 C102,160.582 105.582,157 110,157 C114.418,157 118,160.582 118,165" id="Fill-15" fill="#387AF2"></path>
                <path d="M148,165 C148,169.418 144.418,173 140,173 C135.582,173 132,169.418 132,165 C132,160.582 135.582,157 140,157 C144.418,157 148,160.582 148,165 Z" id="Stroke-17" stroke="#387AF2"></path>
                <path d="M178,165 C178,169.418 174.418,173 170,173 C165.582,173 162,169.418 162,165 C162,160.582 165.582,157 170,157 C174.418,157 178,160.582 178,165" id="Fill-19" fill="#387AF2"></path>
                <path d="M208,165 C208,169.418 204.418,173 200,173 C195.582,173 192,169.418 192,165 C192,160.582 195.582,157 200,157 C204.418,157 208,160.582 208,165 Z" id="Stroke-21" stroke="#387AF2"></path>
                <polygon id="Fill-23" fill="#63C3EB" points="0 272 54 272 54 252 0 252"></polygon>
                <polygon id="Fill-25" fill="#387AF2" points="0 306 20 306 20 286 0 286"></polygon>
                <polygon id="Fill-26" fill="#63C3EB" points="34 306 54 306 54 286 34 286"></polygon>
                <polygon id="Fill-27" fill="#3836B3" points="0 340 20 340 20 320 0 320"></polygon>
                <polygon id="Fill-28" fill="#63C3EB" points="34 340 54 340 54 320 34 320"></polygon>
                <path d="M506.9678,432.3595 C502.5498,432.3595 498.9678,428.7775 498.9678,424.3595 C498.9678,419.9415 502.5498,416.3595 506.9678,416.3595" id="Fill-29" fill="#387AF2"></path>
                <path d="M506.9678,416.3595 C511.3858,416.3595 514.9678,419.9415 514.9678,424.3595 C514.9678,428.7775 511.3858,432.3595 506.9678,432.3595" id="Fill-30" fill="#63C3EB"></path>
                <path d="M544.9678,424.3595 C544.9678,428.7775 541.3858,432.3595 536.9678,432.3595 C532.5498,432.3595 528.9678,428.7775 528.9678,424.3595 C528.9678,419.9415 532.5498,416.3595 536.9678,416.3595 C541.3858,416.3595 544.9678,419.9415 544.9678,424.3595" id="Fill-31" fill="#387AF2"></path>
                <path d="M574.9678,424.3595 C574.9678,428.7775 571.3858,432.3595 566.9678,432.3595 C562.5498,432.3595 558.9678,428.7775 558.9678,424.3595 C558.9678,419.9415 562.5498,416.3595 566.9678,416.3595 C571.3858,416.3595 574.9678,419.9415 574.9678,424.3595" id="Fill-32" fill="#387AF2"></path>
                <path d="M514.9678,454.3595 C514.9678,458.7775 511.3858,462.3595 506.9678,462.3595 C502.5498,462.3595 498.9678,458.7775 498.9678,454.3595 C498.9678,449.9415 502.5498,446.3595 506.9678,446.3595 C511.3858,446.3595 514.9678,449.9415 514.9678,454.3595" id="Fill-33" fill="#387AF2"></path>
                <path d="M544.9678,454.3595 C544.9678,458.7775 541.3858,462.3595 536.9678,462.3595 C532.5498,462.3595 528.9678,458.7775 528.9678,454.3595 C528.9678,449.9415 532.5498,446.3595 536.9678,446.3595 C541.3858,446.3595 544.9678,449.9415 544.9678,454.3595" id="Fill-34" fill="#63C3EB"></path>
                <path d="M566.9678,462.3595 C562.5498,462.3595 558.9678,458.7775 558.9678,454.3595 C558.9678,449.9415 562.5498,446.3595 566.9678,446.3595" id="Fill-35" fill="#63C3EB"></path>
                <path d="M566.9678,446.3595 C571.3858,446.3595 574.9678,449.9415 574.9678,454.3595 C574.9678,458.7775 571.3858,462.3595 566.9678,462.3595" id="Fill-36" fill="#387AF2"></path>
                <path d="M230,537 L86,537 C74.954,537 66,528.046 66,517 L66,213 C66,201.954 74.954,193 86,193 L230,193 C241.046,193 250,201.954 250,213 L250,517 C250,528.046 241.046,537 230,537" id="Fill-37" fill="#3836B3"></path>
                <path d="M230,527 L86,527 C80.477,527 76,522.523 76,517 L76,213 C76,207.477 80.477,203 86,203 L230,203 C235.523,203 240,207.477 240,213 L240,517 C240,522.523 235.523,527 230,527" id="Fill-38" fill="#387AF2"></path>
                <polygon id="Fill-39" fill="#63C3EB" points="76 490 240 490 240 336 76 336"></polygon>
                <polygon id="Fill-40" fill="#387AF2" points="76 396 136 396 136 336 76 336"></polygon>
                <polygon id="Fill-41" fill="#FFFFFF" points="136 412 240 412 240 336 136 336"></polygon>
            </g>
            <g id="Group-49" transform="translate(76.000000, 246.000100)">
                <mask id="mask-2" fill="white">
                    <use xlink:href="#path-1"></use>
                </mask>
                <g id="Clip-44"></g>
                <polygon id="Fill-43" fill="#63C3EB" mask="url(#mask-2)" points="0 31 164 31 164 0 0 0"></polygon>
                <polygon id="Fill-45" fill="#56A9CC" mask="url(#mask-2)" points="0 6 164 6 164 0 0 0"></polygon>
                <polygon id="Fill-46" fill="#FFFFFF" mask="url(#mask-2)" points="140 20 158 20 158 17 140 17"></polygon>
                <polygon id="Fill-47" fill="#FFFFFF" mask="url(#mask-2)" points="140 26 158 26 158 23 140 23"></polygon>
                <polygon id="Fill-48" fill="#FFFFFF" mask="url(#mask-2)" points="140 14 158 14 158 11 140 11"></polygon>
            </g>
            <g id="Group-97" transform="translate(16.000000, 27.000100)">
                <polygon id="Fill-50" fill-opacity="0.6" fill="#FFFFFF" points="60 250 168 250 168 352 60 352"></polygon>
                <path d="M152,301 C152,323.644 133.644,342 111,342 C88.356,342 70,323.644 70,301 C70,278.356 88.356,260 111,260 C133.644,260 152,278.356 152,301" id="Fill-52" fill="#387AF2"></path>
                <path d="M111,326 C97.215,326 86,314.785 86,301 C86,287.215 97.215,276 111,276 C124.785,276 136,287.215 136,301 C136,314.785 124.785,326 111,326" id="Fill-54" fill="#63C3EB"></path>
                <path d="M111,310 C106.038,310 102,305.963 102,301 C102,296.037 106.038,292 111,292 C115.962,292 120,296.037 120,301 C120,305.963 115.962,310 111,310" id="Fill-56" fill="#387AF2"></path>
                <path d="M120,389 L150,389 C162.15,389 172,398.85 172,411 L172,411 C172,423.15 162.15,433 150,433 L100,433 C87.85,433 78,442.85 78,455 L78,455 C78,467.15 87.85,477 100,477 L162,477" id="Stroke-58" stroke="#3836B3" stroke-width="11"></path>
                <polygon id="Fill-60" fill="#FFFFFF" points="162 500 162 454 188 477"></polygon>
                <polygon id="Fill-62" fill="#3836B3" points="78 522 90 522 90 510 78 510"></polygon>
                <path d="M104,502 C100.686,502 98,499.314 98,496 C98,492.686 100.686,490 104,490 C107.314,490 110,492.686 110,496 C110,499.314 107.314,502 104,502" id="Fill-64" fill="#387AF2"></path>
                <path d="M84,502 C80.686,502 78,499.314 78,496 C78,492.686 80.686,490 84,490 C87.314,490 90,492.686 90,496 C90,499.314 87.314,502 84,502" id="Fill-65" fill="#FFFFFF"></path>
                <path d="M104,522 C100.686,522 98,519.314 98,516 C98,512.686 100.686,510 104,510 C107.314,510 110,512.686 110,516 C110,519.314 107.314,522 104,522" id="Fill-66" fill="#63C3EB"></path>
                <polygon id="Fill-67" fill="#3836B3" points="193 312 217 312 217 302 193 302"></polygon>
                <path d="M187,307 C187,310.314 184.314,313 181,313 C177.686,313 175,310.314 175,307 C175,303.686 177.686,301 181,301 C184.314,301 187,303.686 187,307" id="Fill-68" fill="#63C3EB"></path>
                <polygon id="Fill-69" fill="#FFFFFF" points="193 294 217 294 217 284 193 284"></polygon>
                <path d="M187,289 C187,292.314 184.314,295 181,295 C177.686,295 175,292.314 175,289 C175,285.686 177.686,283 181,283 C184.314,283 187,285.686 187,289" id="Fill-70" fill="#3836B3"></path>
                <path d="M544,416.5 L280,416.5 C268.954,416.5 260,407.546 260,396.5 L260,201.5 L564,201.5 L564,396.5 C564,407.546 555.046,416.5 544,416.5" id="Fill-71" fill="#3836B3"></path>
                <path d="M564,202 L260,202 L260,190 C260,178.954 268.954,170 280,170 L544,170 C555.046,170 564,178.954 564,190 L564,202 Z" id="Fill-72" fill="#387AF2"></path>
                <polygon id="Fill-73" fill="#63C3EB" points="280 309 368 309 368 221 280 221"></polygon>
                <polygon id="Fill-74" fill="#FFFFFF" points="368 309 456 309 456 221 368 221"></polygon>
                <polygon id="Fill-75" fill="#387AF2" points="456 397 544 397 544 309 456 309"></polygon>
                <polyline id="Fill-76" fill="#63C3EB" points="544 397 456 397 456 309"></polyline>
                <path d="M432,265 C432,277.703 421.703,288 409,288 C396.297,288 386,277.703 386,265 C386,252.297 396.297,242 409,242 C421.703,242 432,252.297 432,265" id="Fill-77" fill="#387AF2"></path>
                <polygon id="Fill-78" fill="#FFFFFF" points="403.8636 273 403.8636 257 417.8636 265"></polygon>
                <path d="M421,543 L285,543 C278.373,543 273,537.627 273,531 L273,531 C273,524.373 278.373,519 285,519 L421,519 C427.627,519 433,524.373 433,531 L433,531 C433,537.627 427.627,543 421,543" id="Fill-79" fill="#63C3EB"></path>
                <path d="M389,543 L285,543 C278.373,543 273,537.627 273,531 L273,531 C273,524.373 278.373,519 285,519 L389,519 C395.627,519 401,524.373 401,531 L401,531 C401,537.627 395.627,543 389,543" id="Fill-80" fill="#387AF2"></path>
                <path d="M421,503 L285,503 C278.373,503 273,497.627 273,491 L273,491 C273,484.373 278.373,479 285,479 L421,479 C427.627,479 433,484.373 433,491 L433,491 C433,497.627 427.627,503 421,503" id="Fill-81" fill="#3836B3"></path>
                <path d="M339,503 L285,503 C278.373,503 273,497.627 273,491 L273,491 C273,484.373 278.373,479 285,479 L339,479 C345.627,479 351,484.373 351,491 L351,491 C351,497.627 345.627,503 339,503" id="Fill-82" fill="#63C3EB"></path>
                <path d="M502.1235,119.2571 C502.1235,123.6751 498.5415,127.2571 494.1235,127.2571 C489.7055,127.2571 486.1235,123.6751 486.1235,119.2571 C486.1235,114.8391 489.7055,111.2571 494.1235,111.2571 C498.5415,111.2571 502.1235,114.8391 502.1235,119.2571" id="Fill-83" fill="#387AF2"></path>
                <path d="M472.1236,119.2571 C472.1236,123.6751 468.5416,127.2571 464.1236,127.2571 C459.7056,127.2571 456.1236,123.6751 456.1236,119.2571 C456.1236,114.8391 459.7056,111.2571 464.1236,111.2571 C468.5416,111.2571 472.1236,114.8391 472.1236,119.2571" id="Fill-84" fill="#387AF2"></path>
                <path d="M532.1235,119.2571 C532.1235,123.6751 528.5415,127.2571 524.1235,127.2571 C519.7055,127.2571 516.1235,123.6751 516.1235,119.2571 C516.1235,114.8391 519.7055,111.2571 524.1235,111.2571 C528.5415,111.2571 532.1235,114.8391 532.1235,119.2571" id="Fill-85" fill="#63C3EB"></path>
                <polyline id="Stroke-86" stroke="#3836B3" stroke-width="4" stroke-linecap="round" stroke-linejoin="round" points="540 98 562 120 540 142"></polyline>
                <polyline id="Stroke-87" stroke="#3836B3" stroke-width="4" stroke-linecap="round" stroke-linejoin="round" points="448 99 426 121 448 143"></polyline>
                <path d="M30,36 L6,36 C2.686,36 0,33.314 0,30 L0,6 C0,2.686 2.686,0 6,0 L30,0 C33.314,0 36,2.686 36,6 L36,30 C36,33.314 33.314,36 30,36 Z" id="Stroke-88" stroke="#63C3EB"></path>
                <path d="M78,36 L54,36 C50.686,36 48,33.314 48,30 L48,6 C48,2.686 50.686,0 54,0 L78,0 C81.314,0 84,2.686 84,6 L84,30 C84,33.314 81.314,36 78,36 Z" id="Stroke-89" stroke="#63C3EB"></path>
                <path d="M126,36 L102,36 C98.686,36 96,33.314 96,30 L96,6 C96,2.686 98.686,0 102,0 L126,0 C129.314,0 132,2.686 132,6 L132,30 C132,33.314 129.314,36 126,36 Z" id="Stroke-90" stroke="#63C3EB"></path>
                <path d="M52,84 L28,84 C24.686,84 22,81.314 22,78 L22,54 C22,50.686 24.686,48 28,48 L52,48 C55.314,48 58,50.686 58,54 L58,78 C58,81.314 55.314,84 52,84" id="Fill-91" fill="#63C3EB"></path>
                <path d="M100,84 L76,84 C72.686,84 70,81.314 70,78 L70,54 C70,50.686 72.686,48 76,48 L100,48 C103.314,48 106,50.686 106,54 L106,78 C106,81.314 103.314,84 100,84 Z" id="Stroke-92" stroke="#63C3EB"></path>
                <path d="M148,84 L124,84 C120.686,84 118,81.314 118,78 L118,54 C118,50.686 120.686,48 124,48 L148,48 C151.314,48 154,50.686 154,54 L154,78 C154,81.314 151.314,84 148,84 Z" id="Stroke-93" stroke="#63C3EB"></path>
                <line x1="49.7581" y1="34.2419" x2="82.2431" y2="1.7579" id="Stroke-94" stroke="#63C3EB"></line>
                <path d="M122,18 C122,22.418 118.418,26 114,26 C109.582,26 106,22.418 106,18 C106,13.582 109.582,10 114,10 C118.418,10 122,13.582 122,18" id="Fill-95" fill="#387AF2"></path>
                <line x1="136" y1="48" x2="136" y2="84" id="Stroke-96" stroke="#63C3EB"></line>
            </g>
        </g>
    </g>
</svg>