<?xml version="1.0" encoding="UTF-8"?>
<svg width="500px" height="500px" viewBox="0 0 500 500" version="1.1" xmlns="http://www.w3.org/2000/svg" xmlns:xlink="http://www.w3.org/1999/xlink">
    <title>graphics / illustrations / illustration-services-website</title>
    <g id="graphics-/-illustrations-/-illustration-services-website" stroke="none" stroke-width="1" fill="none" fill-rule="evenodd">
        <g id="websites" transform="translate(10.000000, 15.000000)">
            <rect id="Rectangle" fill="#387AF2" fill-rule="nonzero" x="0" y="37.57" width="480" height="322" rx="20"></rect>
            <rect id="Rectangle" fill="#387AF2" fill-rule="nonzero" x="0" y="37.57" width="480" height="322" rx="20"></rect>
            <path d="M20,37.57 L460,37.57 C471.045695,37.57 480,46.524305 480,57.57 L480,71.57 L0,71.57 L0,57.57 C0,46.524305 8.954305,37.57 20,37.57 Z" id="Path" fill="#3836B3" fill-rule="nonzero"></path>
            <rect id="Rectangle" fill="#63C3EB" fill-rule="nonzero" x="90" y="150.57" width="120" height="120" rx="8"></rect>
            <rect id="Rectangle" fill="#63C3EB" fill-rule="nonzero" x="270" y="150.57" width="120" height="120" rx="8"></rect>
            <rect id="Rectangle" fill="#FFFFFF" fill-rule="nonzero" x="160" y="130.57" width="160" height="160" rx="8"></rect>
            <path d="M242.85,176.57 L250.39,199.76 L274.77,199.76 C276.065081,199.765604 277.210366,200.60165 277.610353,201.833428 C278.010339,203.065205 277.57472,204.414608 276.53,205.18 L256.81,219.51 L264.34,242.7 C264.747595,243.938075 264.309107,245.297679 263.254966,246.064328 C262.200824,246.830976 260.772261,246.829227 259.72,246.06 L240,231.73 L220.28,246.06 C219.227739,246.829227 217.799176,246.830976 216.745034,246.064328 C215.690893,245.297679 215.252405,243.938075 215.66,242.7 L223.19,219.51 L203.47,205.18 C202.42528,204.414608 201.989661,203.065205 202.389647,201.833428 C202.789634,200.60165 203.934919,199.765604 205.23,199.76 L229.61,199.76 L237.15,176.57 C237.554651,175.338876 238.70408,174.50675 240,174.50675 C241.29592,174.50675 242.445349,175.338876 242.85,176.57 Z" id="Path" fill="#387AF2" fill-rule="nonzero"></path>
            <line x1="240" y1="157.57" x2="240" y2="161.57" id="Path" stroke="#387AF2" stroke-width="3" stroke-linecap="round" stroke-linejoin="round"></line>
            <line x1="240" y1="259.57" x2="240" y2="263.57" id="Path" stroke="#387AF2" stroke-width="3" stroke-linecap="round" stroke-linejoin="round"></line>
            <line x1="293" y1="210.57" x2="289" y2="210.57" id="Path" stroke="#387AF2" stroke-width="3" stroke-linecap="round" stroke-linejoin="round"></line>
            <line x1="191" y1="210.57" x2="187" y2="210.57" id="Path" stroke="#387AF2" stroke-width="3" stroke-linecap="round" stroke-linejoin="round"></line>
            <line x1="277.48" y1="248.05" x2="274.65" y2="245.22" id="Path" stroke="#387AF2" stroke-width="3" stroke-linecap="round" stroke-linejoin="round"></line>
            <line x1="205.35" y1="175.92" x2="202.52" y2="173.09" id="Path" stroke="#387AF2" stroke-width="3" stroke-linecap="round" stroke-linejoin="round"></line>
            <line x1="202.52" y1="248.05" x2="205.35" y2="245.22" id="Path" stroke="#387AF2" stroke-width="3" stroke-linecap="round" stroke-linejoin="round"></line>
            <line x1="274.65" y1="175.92" x2="277.48" y2="173.09" id="Path" stroke="#387AF2" stroke-width="3" stroke-linecap="round" stroke-linejoin="round"></line>
            <path d="M47.62,388.22 L87.5,375.73 C88.2094824,375.507031 88.9840938,375.696142 89.5110133,376.220963 C90.0379327,376.745783 90.2301348,377.519633 90.01,378.23 L77.52,418.07 C77.2931428,418.799013 76.6710253,419.335267 75.9165319,419.452161 C75.1620385,419.569054 74.4068183,419.24619 73.97,418.62 L63.42,403.5 C63.2859204,403.316025 63.1239754,403.15408 62.94,403.02 L47.07,391.76 C46.4497365,391.321748 46.1312148,390.569997 46.2478123,389.819533 C46.3644099,389.069069 46.8960057,388.449398 47.62,388.22 Z" id="Path" fill="#3836B3" fill-rule="nonzero"></path>
            <path d="M48.1769054,390.552388 L66.1769054,390.552388 L66.1769054,424.552388 C66.1769054,425.656958 65.2814749,426.552388 64.1769054,426.552388 L50.1769054,426.552388 C49.0723359,426.552388 48.1769054,425.656958 48.1769054,424.552388 L48.1769054,390.552388 L48.1769054,390.552388 Z" id="Path" fill="#3836B3" fill-rule="nonzero" transform="translate(57.176905, 408.552388) rotate(45.000000) translate(-57.176905, -408.552388) "></path>
            <rect id="Rectangle" fill="#63C3EB" fill-rule="nonzero" x="41.07" y="0" width="90" height="90" rx="12"></rect>
            <circle id="Oval" stroke="#FFFFFF" stroke-width="6" stroke-linecap="round" stroke-linejoin="round" cx="88.83" cy="40.24" r="17"></circle>
            <line x1="69.58" y1="59.49" x2="76.81" y2="52.26" id="Path" stroke="#FFFFFF" stroke-width="6" stroke-linecap="round" stroke-linejoin="round"></line>
            <rect id="Rectangle" fill="#FFFFFF" fill-rule="nonzero" transform="translate(64.082477, 64.982464) rotate(45.000000) translate(-64.082477, -64.982464) " x="59.0824769" y="54.9824638" width="10" height="20" rx="2"></rect>
            <rect id="Rectangle" fill="#3836B3" fill-rule="nonzero" x="234" y="339.57" width="204" height="144" rx="8"></rect>
            <rect id="Rectangle" stroke-opacity="0.4" stroke="#8495A6" fill="#FFFFFF" x="247.5" y="325.07" width="205" height="145" rx="8"></rect>
            <rect id="Rectangle" fill="#63C3EB" fill-rule="nonzero" x="291" y="349" width="62" height="48" rx="24"></rect>
            <g id="404" transform="translate(303.256836, 365.273438)" fill="#FFFFFF" fill-rule="nonzero">
                <polygon id="4" points="0 11.4833984 0 0.322265625 3.56640625 0.322265625 3.56640625 8.46484375 6.15527344 8.46484375 6.15527344 4.22167969 9.70019531 4.22167969 9.70019531 8.46484375 11.5693359 8.46484375 11.5693359 11.4833984 9.70019531 11.4833984 9.70019531 15.7265625 6.15527344 15.7265625 6.15527344 11.4833984"></polygon>
                <path d="M13.0839844,10.5595703 L13.0839844,5.5 C13.0839844,4.76236979 13.2218424,4.06054688 13.4975586,3.39453125 C13.7732747,2.72851562 14.1582031,2.14306641 14.6523438,1.63818359 C15.1464844,1.13330078 15.7641602,0.734049479 16.5053711,0.440429688 C17.246582,0.146809896 18.0576172,0 18.9384766,0 C19.8121745,0 20.6214193,0.146809896 21.3662109,0.440429688 C22.1110026,0.734049479 22.7340495,1.13151042 23.2353516,1.6328125 C23.7366536,2.13411458 24.1287435,2.7195638 24.4116211,3.38916016 C24.6944987,4.05875651 24.8359375,4.76236979 24.8359375,5.5 L24.8359375,10.5595703 C24.8359375,11.2972005 24.6944987,12.0008138 24.4116211,12.6704102 C24.1287435,13.3400065 23.7366536,13.9254557 23.2353516,14.4267578 C22.7340495,14.9280599 22.1110026,15.3255208 21.3662109,15.6191406 C20.6214193,15.9127604 19.8121745,16.0595703 18.9384766,16.0595703 C18.0576172,16.0595703 17.246582,15.9127604 16.5053711,15.6191406 C15.7641602,15.3255208 15.1464844,14.9262695 14.6523438,14.4213867 C14.1582031,13.9165039 13.7732747,13.3310547 13.4975586,12.6650391 C13.2218424,11.9990234 13.0839844,11.2972005 13.0839844,10.5595703 Z M16.6503906,10.5595703 C16.6503906,11.2542318 16.8580729,11.8414714 17.2734375,12.3212891 C17.6888021,12.8011068 18.2438151,13.0410156 18.9384766,13.0410156 C19.633138,13.0410156 20.1953125,12.8011068 20.625,12.3212891 C21.0546875,11.8414714 21.2695312,11.2542318 21.2695312,10.5595703 L21.2695312,5.5 C21.2695312,4.80533854 21.0546875,4.21630859 20.625,3.73291016 C20.1953125,3.24951172 19.633138,3.0078125 18.9384766,3.0078125 C18.2438151,3.0078125 17.6888021,3.24951172 17.2734375,3.73291016 C16.8580729,4.21630859 16.6503906,4.80533854 16.6503906,5.5 L16.6503906,10.5595703 Z" id="0"></path>
                <polygon id="4" points="26.984375 11.4833984 26.984375 0.322265625 30.5507812 0.322265625 30.5507812 8.46484375 33.1396484 8.46484375 33.1396484 4.22167969 36.6845703 4.22167969 36.6845703 8.46484375 38.5537109 8.46484375 38.5537109 11.4833984 36.6845703 11.4833984 36.6845703 15.7265625 33.1396484 15.7265625 33.1396484 11.4833984"></polygon>
            </g>
            <circle id="Oval" fill="#387AF2" fill-rule="nonzero" cx="379" cy="414.57" r="30"></circle>
            <circle id="Oval" fill="#3836B3" fill-rule="nonzero" cx="367" cy="419.32" r="3"></circle>
            <circle id="Oval" fill="#3836B3" fill-rule="nonzero" cx="391" cy="419.32" r="3"></circle>
            <path d="M373,427.14 C373.885861,424.583479 376.294349,422.869062 379,422.869062 C381.705651,422.869062 384.114139,424.583479 385,427.14" id="Path" stroke="#3836B3" stroke-width="2" stroke-linecap="round" stroke-linejoin="round"></path>
            <path d="M342.65,400.57 L326.76,395.27 L338.76,387.27 L343.88,399.22 C344.038029,399.581577 343.96865,400.002277 343.702889,400.293965 C343.437128,400.585654 343.024685,400.693784 342.65,400.57 Z" id="Path" fill="#63C3EB" fill-rule="nonzero"></path>
        </g>
    </g>
</svg>