<?xml version="1.0" encoding="UTF-8"?>
<svg width="48px" height="48px" viewBox="0 0 48 48" version="1.1" xmlns="http://www.w3.org/2000/svg" xmlns:xlink="http://www.w3.org/1999/xlink">
    <title>graphics / social / social-dribbble-dark</title>
    <g id="graphics-/-social-/-social-dribbble-dark" stroke="none" stroke-width="1" fill="none" fill-rule="evenodd">
        <g id="Dribbble" fill="#FFFFFF" fill-rule="nonzero">
            <path d="M0,24 C0,10.7451654 10.7451654,0 24,0 C37.2548346,0 48,10.7451654 48,24 C48,37.2548346 37.2548346,48 24,48 C10.7451654,48 0,37.2548346 0,24 Z M36.8,23.982255 C36.8,23.1159667 36.7118732,22.2496784 36.538776,21.4089045 C36.3699874,20.5862908 36.119986,19.7774349 35.792479,19.0066504 C35.4724872,18.2477726 35.075591,17.5162603 34.6118609,16.8346761 C34.1549945,16.1568941 33.6286888,15.5227366 33.0505291,14.9429098 C32.471167,14.3661847 31.8335881,13.8425895 31.1566803,13.3844814 C30.4729087,12.9219706 29.7409906,12.5256472 28.9822186,12.2036157 C28.2090177,11.8771817 27.3995941,11.6269406 26.5776955,11.4596463 C25.733903,11.2873993 24.8663628,11.2 23.9994739,11.2 C23.1319338,11.2 22.2643936,11.2873993 21.4218536,11.4596463 C20.5986524,11.6268906 19.7892789,11.8771317 19.0167293,12.2036157 C18.2579573,12.5256973 17.5253878,12.9219706 16.8416163,13.3844814 C16.1647085,13.8425895 15.5271797,14.3661847 14.94902,14.9429098 C14.3702591,15.5227366 13.8439534,16.1568941 13.3864357,16.8346761 C12.9251604,17.5162603 12.527613,18.2477226 12.2063686,19.0066504 C11.8788116,19.7774349 11.628209,20.5862908 11.4588191,21.4089045 C11.2874754,22.2496784 11.2,23.1159667 11.2,23.982255 C11.2,24.847893 11.2875256,25.7123302 11.458769,26.5549551 C11.6281588,27.3775188 11.8787615,28.1851741 12.2063186,28.9572092 C12.5275629,29.7155366 12.9251103,30.4463986 13.3863856,31.1279328 C13.8439033,31.8051646 14.370209,32.4405226 14.9489699,33.0196991 C15.5271296,33.5963742 16.1646584,34.1212701 16.8415662,34.5800286 C17.5253378,35.0405882 18.2579072,35.4369117 19.0166791,35.7583929 C19.7892288,36.0841765 20.5986524,36.3338172 21.4218035,36.5023122 C22.2643435,36.67586 23.1318837,36.7644599 23.9994238,36.7644599 C24.8663127,36.7644599 25.733903,36.67586 26.5776454,36.5023122 C27.399544,36.3338172 28.2090177,36.0841765 28.9821686,35.7583929 C29.7409906,35.4369117 30.4728586,35.0405882 31.1566302,34.5800286 C31.833538,34.12122 32.4710668,33.5963742 33.050479,33.0196991 C33.6286387,32.4405226 34.1549444,31.8051646 34.6118108,31.1279328 C35.075591,30.4463986 35.4724872,29.7155867 35.792479,28.9572092 C36.119986,28.1851741 36.3699874,27.3775688 36.538776,26.5549551 C36.7118732,25.7123302 36.8,24.847893 36.8,23.982255 Z" id="Combined-Shape"></path>
            <path d="M26.3514417,21.367131 C30.6672986,19.6070388 32.4205154,17.077413 32.4411568,17.0481464 C33.9749333,18.9073944 34.9018926,21.282233 34.9268928,23.8698416 C34.7687255,23.8374234 31.0691547,23.0435258 27.3139724,23.5153918 C27.2371182,23.3281863 27.1583602,23.1409308 27.0776984,22.9499231 C26.8508434,22.417473 26.6051506,21.8876743 26.3514417,21.367131 Z M30.1078766,33.0346576 C29.9966034,32.3768368 29.4140348,29.1725306 27.9802087,25.2379628 C31.5085361,24.6730944 34.5668206,25.6398894 34.7918218,25.7122802 C34.3055465,28.7543949 32.5623498,31.3807253 30.1078766,33.0346576 Z M25.9320003,25.7435478 C27.4701857,29.7354979 28.1052094,33.0783322 28.2670842,34.0320198 C26.9551526,34.5892838 25.5132103,34.8970574 23.9994238,34.8970574 C21.4642887,34.8970574 19.1366698,34.0276173 17.2809091,32.5865243 C17.3036972,32.5371318 19.4099023,28.0124441 25.8595049,25.7672611 C25.8833026,25.7585562 25.9076515,25.7516023 25.9320003,25.7435478 Z M31.2185544,15.7898872 C31.1916504,15.8298097 29.6347274,18.1965438 25.5101041,19.7406141 C23.6406542,16.312932 21.5873856,13.5929989 21.4236572,13.373275 C22.2493134,13.1748131 23.1112422,13.0674526 23.9994238,13.0674526 C26.7670754,13.0674526 29.2940441,14.095332 31.2185544,15.7898872 Z M24.3000268,22.0799327 C24.6131549,22.6928282 24.9126055,23.3144786 25.1869558,23.9348282 C25.0432175,23.9760014 24.8981766,24.0184754 24.7556908,24.0659022 C18.8566582,25.9707258 15.8652078,31.270213 15.8689653,31.2758662 C14.1276224,29.3428766 13.0681974,26.7864356 13.0681974,23.982255 C13.0681974,23.8648888 13.0738086,23.7513248 13.076965,23.6340087 C13.2707035,23.6414629 18.671637,23.7625311 24.3000268,22.0799327 Z M19.3354185,14.1090898 C19.4810606,14.3032492 21.5024152,17.0424933 23.3943602,20.3990853 C18.1459826,21.7915702 13.5907455,21.7341378 13.3025674,21.7316364 C14.0119905,18.351331 16.287104,15.5465 19.3354185,14.1090898 Z" id="Combined-Shape"></path>
        </g>
    </g>
</svg>