<?xml version="1.0" encoding="UTF-8"?>
<svg width="160px" height="40px" viewBox="0 0 160 40" version="1.1" xmlns="http://www.w3.org/2000/svg" xmlns:xlink="http://www.w3.org/1999/xlink">
    <title>graphics / logos / logo-rubbiz</title>
    <defs>
        <polygon id="path-1" points="0 0 12.9134018 0 12.9134018 6.79230636 0 6.79230636"></polygon>
        <polygon id="path-3" points="0 0 25.646634 0 25.646634 24.2010543 0 24.2010543"></polygon>
        <polygon id="path-5" points="0 27.9248422 27.7838775 27.9248422 27.7838775 0 0 0"></polygon>
        <path d="M0,7.92645219 C0,12.3039962 3.54876401,15.8526161 7.92630805,15.8526161 L7.92630805,15.8526161 C12.3038521,15.8526161 15.8526161,12.3039962 15.8526161,7.92645219 L15.8526161,7.92645219 C15.8526161,3.54876401 12.3038521,0 7.92630805,0 L7.92630805,0 C3.54876401,0 0,3.54876401 0,7.92645219 L0,7.92645219 Z" id="path-7"></path>
        <path d="M0,7.92645219 C0,12.3039962 3.54876401,15.8526161 7.92630805,15.8526161 L7.92630805,15.8526161 C12.3038521,15.8526161 15.8526161,12.3039962 15.8526161,7.92645219 L15.8526161,7.92645219 C15.8526161,3.54876401 12.3038521,0 7.92630805,0 L7.92630805,0 C3.54876401,0 0,3.54876401 0,7.92645219" id="path-9"></path>
    </defs>
    <g id="graphics-/-logos-/-logo-rubbiz" stroke="none" stroke-width="1" fill="none" fill-rule="evenodd">
        <g id="graphics/graphic_logo_horizontal">
            <g id="Group-56" transform="translate(47.272761, 12.842381)" fill="#6966F2">
                <path d="M1.37634043,1.41891477 L1.37634043,6.64863068 L4.75659574,6.64863068 C5.45804255,6.64863068 6.03846809,6.39874432 6.4973617,5.89863068 C6.95608511,5.39885795 7.18570213,4.77721023 7.18570213,4.03385795 C7.18570213,3.27721023 6.95285106,2.65232386 6.48731915,2.15885795 C6.02178723,1.66573295 5.42468085,1.41891477 4.69582979,1.41891477 L1.37634043,1.41891477 Z M1.37634043,7.90539205 L1.37634043,13.2770966 C1.37634043,13.4664716 1.30859574,13.6285739 1.17395745,13.7634034 C1.03880851,13.8984034 0.87693617,13.9662443 0.688170213,13.9662443 C0.49906383,13.9662443 0.337021277,13.8984034 0.202382979,13.7634034 C0.0672340426,13.6285739 0,13.4664716 0,13.2770966 L0,0.851301136 C0,0.662267045 0.0672340426,0.500164773 0.202382979,0.364823864 C0.337021277,0.229994318 0.49906383,0.162153409 0.688170213,0.162153409 L4.71625532,0.162153409 C5.83608511,0.162153409 6.76051064,0.534085227 7.4893617,1.27692614 C8.21787234,2.02044886 8.58229787,2.93919886 8.58229787,4.03385795 C8.58229787,5.10141477 8.24834043,6.00005114 7.58042553,6.72976705 C6.91234043,7.45948295 6.03846809,7.85152841 4.95914894,7.90539205 L8.66331915,12.8514716 C8.75761702,12.9597102 8.80493617,13.1016989 8.80493617,13.2770966 C8.80493617,13.4664716 8.7373617,13.6285739 8.60255319,13.7634034 C8.46757447,13.8984034 8.30553191,13.9662443 8.11676596,13.9662443 C7.87387234,13.9662443 7.67812766,13.8578352 7.52970213,13.6418693 L3.42076596,7.90539205 L1.37634043,7.90539205 Z" id="Fill-44"></path>
                <path d="M19.8567319,14.0878977 C16.6853277,14.0878977 15.099966,12.6080114 15.099966,9.64857955 L15.099966,0.689318182 C15.099966,0.500113636 15.1672,0.337840909 15.3023489,0.202670455 C15.4369872,0.0678409091 15.5990298,0 15.7881362,0 C15.9769021,0 16.1387745,0.0678409091 16.2739234,0.202670455 C16.4085617,0.337840909 16.4763064,0.500113636 16.4763064,0.689318182 L16.4763064,9.64857955 C16.4763064,10.0944886 16.5234553,10.4899432 16.6180936,10.8344318 C16.7122213,11.1790909 16.8776681,11.506875 17.1139234,11.8176136 C17.3498383,12.1286932 17.6974128,12.3683523 18.1563064,12.5371023 C18.6150298,12.7063636 19.1816681,12.7905682 19.8567319,12.7905682 C21.1249872,12.7905682 22.0022638,12.5035227 22.4880511,11.9290909 C22.9738383,11.3548295 23.2167319,10.5947727 23.2167319,9.64857955 L23.2167319,0.689318182 C23.2167319,0.500113636 23.2841362,0.337840909 23.4192851,0.202670455 C23.5539234,0.0678409091 23.715966,0 23.9050723,0 C24.0940085,0 24.2558809,0.0678409091 24.3908596,0.202670455 C24.5254979,0.337840909 24.5932426,0.500113636 24.5932426,0.689318182 L24.5932426,9.64857955 C24.5932426,12.6080114 23.0143489,14.0878977 19.8567319,14.0878977" id="Fill-46"></path>
                <path d="M33.1552681,7.29734659 L33.1552681,12.5473466 L36.495183,12.5473466 C37.399183,12.5473466 38.0873532,12.3177443 38.5598638,11.8581989 C39.032034,11.3988239 39.2682894,10.7502443 39.2682894,9.91211932 C39.2682894,9.08797159 39.0219915,8.44603977 38.5293957,7.98649432 C38.0368,7.52728977 37.3585021,7.29734659 36.495183,7.29734659 L33.1552681,7.29734659 Z M33.1552681,1.41888068 L33.1552681,6.12172159 L35.888034,6.12172159 C36.7785872,6.12172159 37.4597787,5.91240341 37.9322894,5.49325568 C38.4046298,5.07444886 38.6408851,4.50001705 38.6408851,3.77030114 C38.6408851,2.20280114 37.7229277,1.41888068 35.888034,1.41888068 L33.1552681,1.41888068 Z M36.5154383,13.804108 L32.4670979,13.804108 C32.2779915,13.804108 32.1161191,13.736608 31.9814809,13.601267 C31.8463319,13.4664375 31.7789277,13.3043352 31.7789277,13.1149602 L31.7789277,0.8514375 C31.7789277,0.662232955 31.8463319,0.500130682 31.9814809,0.364960227 C32.1161191,0.229960227 32.2779915,0.162119318 32.4670979,0.162119318 L35.9082894,0.162119318 C37.2979064,0.162119318 38.3336511,0.479846591 39.0153532,1.11478977 C39.6965447,1.75024432 40.0374809,2.63507386 40.0374809,3.77030114 C40.0374809,4.43251705 39.855183,5.01700568 39.4909277,5.52359659 C39.1265021,6.03035795 38.6541617,6.36496023 38.0739064,6.5270625 C38.8565447,6.7164375 39.4841191,7.09467614 39.9564596,7.66211932 C40.4286298,8.22973295 40.6648851,8.97973295 40.6648851,9.91211932 C40.6648851,11.1013807 40.3036936,12.0475739 39.5819915,12.750017 C38.8601191,13.4528011 37.8378213,13.804108 36.5154383,13.804108 L36.5154383,13.804108 Z" id="Fill-48"></path>
                <path d="M48.5588596,7.29734659 L48.5588596,12.5473466 L51.8987745,12.5473466 C52.8027745,12.5473466 53.4909447,12.3177443 53.9634553,11.8581989 C54.4356255,11.3988239 54.6718809,10.7502443 54.6718809,9.91211932 C54.6718809,9.08797159 54.425583,8.44603977 53.9329872,7.98649432 C53.4403915,7.52728977 52.7620936,7.29734659 51.8987745,7.29734659 L48.5588596,7.29734659 Z M48.5588596,1.41888068 L48.5588596,6.12172159 L51.2916255,6.12172159 C52.1821787,6.12172159 52.8633702,5.91240341 53.3358809,5.49325568 C53.8082213,5.07444886 54.0444766,4.50001705 54.0444766,3.77030114 C54.0444766,2.20280114 53.1265191,1.41888068 51.2916255,1.41888068 L48.5588596,1.41888068 Z M51.9190298,13.804108 L47.8706894,13.804108 C47.681583,13.804108 47.5197106,13.736608 47.3850723,13.601267 C47.2499234,13.4664375 47.1825191,13.3043352 47.1825191,13.1149602 L47.1825191,0.8514375 C47.1825191,0.662232955 47.2499234,0.500130682 47.3850723,0.364960227 C47.5197106,0.229960227 47.681583,0.162119318 47.8706894,0.162119318 L51.3118809,0.162119318 C52.7014979,0.162119318 53.7372426,0.479846591 54.4189447,1.11478977 C55.1001362,1.75024432 55.4410723,2.63507386 55.4410723,3.77030114 C55.4410723,4.43251705 55.2587745,5.01700568 54.8945191,5.52359659 C54.5300936,6.03035795 54.0577532,6.36496023 53.4774979,6.5270625 C54.2601362,6.7164375 54.8877106,7.09467614 55.3600511,7.66211932 C55.8322213,8.22973295 56.0684766,8.97973295 56.0684766,9.91211932 C56.0684766,11.1013807 55.7072851,12.0475739 54.985583,12.750017 C54.2637106,13.4528011 53.2414128,13.804108 51.9190298,13.804108 L51.9190298,13.804108 Z" id="Fill-50"></path>
                <path d="M63.9624511,0.689232955 L63.9624511,13.2771307 C63.9624511,13.4665057 63.8948766,13.628608 63.7602383,13.7634375 C63.6250894,13.8984375 63.4630468,13.9662784 63.2742809,13.9662784 C63.0851745,13.9662784 62.9233021,13.8984375 62.7886638,13.7634375 C62.6535149,13.628608 62.5861106,13.4665057 62.5861106,13.2771307 L62.5861106,0.689232955 C62.5861106,0.500198864 62.6535149,0.337926136 62.7886638,0.202755682 C62.9233021,0.0677556818 63.0851745,8.52272727e-05 63.2742809,8.52272727e-05 C63.4630468,8.52272727e-05 63.6250894,0.0677556818 63.7602383,0.202755682 C63.8948766,0.337926136 63.9624511,0.500198864 63.9624511,0.689232955" id="Fill-52"></path>
                <path d="M79.1233532,13.8040739 L70.6219064,13.8040739 C70.4462468,13.8040739 70.2945872,13.743392 70.166417,13.6216875 C70.0379064,13.499983 69.9740766,13.3448693 69.9740766,13.1553239 C69.9740766,13.0204943 70.0145872,12.8918011 70.0956085,12.7704375 L77.6253106,1.45941477 L71.0469277,1.45941477 C70.8576511,1.45941477 70.7027574,1.39549432 70.5812255,1.26697159 C70.460034,1.13861932 70.3990979,0.986573864 70.3990979,0.810835227 C70.3990979,0.6354375 70.460034,0.483392045 70.5812255,0.354698864 C70.7027574,0.226517045 70.8576511,0.162085227 71.0469277,0.162085227 L78.8196936,0.162085227 C79.0084596,0.162085227 79.1636936,0.226517045 79.2852255,0.354698864 C79.4065872,0.483392045 79.4673532,0.6354375 79.4673532,0.810835227 C79.4673532,0.946005682 79.4268426,1.07435795 79.3459915,1.19589205 L71.8768851,12.5069148 L79.1233532,12.5069148 C79.2985021,12.5069148 79.4503319,12.5675966 79.5786723,12.6891307 C79.7068426,12.8108352 79.7710128,12.9662898 79.7710128,13.1553239 C79.7710128,13.3448693 79.7068426,13.499983 79.5786723,13.6216875 C79.4503319,13.743392 79.2985021,13.8040739 79.1233532,13.8040739" id="Fill-54"></path>
            </g>
            <g id="graphic_app_icon">
                <rect id="Frame" fill="#FFFFFF" x="0" y="0" width="40" height="40" rx="9.09090909"></rect>
                <g id="Group-20" transform="translate(6.363636, 5.598681)">
                    <g id="Group-12">
                        <g id="Group-3" transform="translate(7.316513, 0.000000)">
                            <mask id="mask-2" fill="white">
                                <use xlink:href="#path-1"></use>
                            </mask>
                            <g id="Clip-2"></g>
                            <path d="M3.39612435,1.36415751 C2.27575789,1.36415751 1.36409986,2.27567141 1.36409986,3.39618201 C1.36409986,4.51654847 2.27575789,5.42806236 3.39612435,5.42806236 L9.51727744,5.42806236 C10.6376439,5.42806236 11.5491578,4.51654847 11.5491578,3.39618201 C11.5491578,2.27567141 10.6376439,1.36415751 9.51727744,1.36415751 L3.39612435,1.36415751 Z M9.51727744,6.79230636 L3.39612435,6.79230636 C1.5235139,6.79230636 0,5.26879246 0,3.39618201 C0,1.52342741 1.5235139,-8.64813943e-05 3.39612435,-8.64813943e-05 L9.51727744,-8.64813943e-05 C11.3898879,-8.64813943e-05 12.9134018,1.52342741 12.9134018,3.39618201 C12.9134018,5.26879246 11.3898879,6.79230636 9.51727744,6.79230636 L9.51727744,6.79230636 Z" id="Fill-1" fill="#4E4E4E" mask="url(#mask-2)"></path>
                        </g>
                        <g id="Group-6" transform="translate(1.068607, 3.723788)">
                            <mask id="mask-4" fill="white">
                                <use xlink:href="#path-3"></use>
                            </mask>
                            <g id="Clip-5"></g>
                            <path d="M22.7656505,24.2010975 L2.88098351,24.2010975 C1.28987,24.2010975 0,22.9112275 0,21.320114 L0,2.88098351 C0,1.28972586 1.28987,0 2.88098351,0 L22.7656505,0 C24.356764,0 25.646634,1.28972586 25.646634,2.88098351 L25.646634,21.320114 C25.646634,22.9112275 24.356764,24.2010975 22.7656505,24.2010975" id="Fill-4" fill="#373737" mask="url(#mask-4)"></path>
                        </g>
                        <mask id="mask-6" fill="white">
                            <use xlink:href="#path-5"></use>
                        </mask>
                        <g id="Clip-8"></g>
                        <polygon id="Fill-7" fill="#0F0F0F" mask="url(#mask-6)" points="1.06862176 7.7098163 26.7152558 7.7098163 26.7152558 3.90059915 1.06862176 3.90059915"></polygon>
                        <path d="M27.0500685,6.78410504 L0.733636081,6.78410504 C0.328470749,6.78410504 -1.44135656e-05,6.45561988 -1.44135656e-05,6.05045455 L-1.44135656e-05,4.05777909 C-1.44135656e-05,3.65246962 0.328470749,3.32398446 0.733636081,3.32398446 L27.0500685,3.32398446 C27.455378,3.32398446 27.7838631,3.65246962 27.7838631,4.05777909 L27.7838631,6.05045455 C27.7838631,6.45561988 27.455378,6.78410504 27.0500685,6.78410504" id="Fill-9" fill="#4E4E4E" mask="url(#mask-6)"></path>
                        <path d="M24.8156919,10.5225516 C24.8156919,9.48664861 23.9759576,8.64677014 22.9399105,8.64677014 C21.9040075,8.64677014 21.0642732,9.48664861 21.0642732,10.5225516 C21.0642732,11.5584545 21.9040075,12.3981889 22.9399105,12.3981889 C23.9759576,12.3981889 24.8156919,11.5584545 24.8156919,10.5225516" id="Fill-10" fill="#FFBC00" mask="url(#mask-6)"></path>
                        <path d="M21.8185351,17.6902737 C21.8185351,13.3125855 18.2697711,9.76396561 13.892227,9.76396561 C9.51453886,9.76396561 5.96591898,13.3125855 5.96591898,17.6902737 C5.96591898,22.0678177 9.51453886,25.6165817 13.892227,25.6165817 C18.2697711,25.6165817 21.8185351,22.0678177 21.8185351,17.6902737" id="Fill-11" fill="#68D8E8" mask="url(#mask-6)"></path>
                    </g>
                    <g id="Group-19" transform="translate(5.965342, 9.763894)">
                        <g id="Group-15">
                            <mask id="mask-8" fill="white">
                                <use xlink:href="#path-7"></use>
                            </mask>
                            <g id="Clip-14"></g>
                            <polygon id="Fill-13" fill="#83AA57" mask="url(#mask-8)" points="9.07593406 11.3146923 5.14304852 8.28942902 -2.23885916 13.977022 12.1011974 13.977022"></polygon>
                        </g>
                        <g id="Group-18">
                            <mask id="mask-10" fill="white">
                                <use xlink:href="#path-9"></use>
                            </mask>
                            <g id="Clip-17"></g>
                            <polyline id="Fill-16" fill="#628533" mask="url(#mask-10)" points="15.5708453 17.4282062 -1.14961159 16.5182778 9.98342657 7.07926604 17.3342009 12.2276476"></polyline>
                        </g>
                    </g>
                </g>
            </g>
        </g>
    </g>
</svg>