<?xml version="1.0" encoding="UTF-8"?>
<svg width="160px" height="40px" viewBox="0 0 160 40" version="1.1" xmlns="http://www.w3.org/2000/svg" xmlns:xlink="http://www.w3.org/1999/xlink">
    <title>graphics / logos / logo-addonn</title>
    <g id="graphics-/-logos-/-logo-addonn" stroke="none" stroke-width="1" fill="none" fill-rule="evenodd">
        <g id="logo-addonn">
            <rect id="Frame" stroke-opacity="0.4" stroke="#2CC7DD" stroke-width="2.66666667" fill-opacity="0" fill="#D8D8D8" x="1.33333333" y="1.33333333" width="118.666667" height="37.3333333" rx="18.6666667"></rect>
            <g id="Text" transform="translate(12.365104, 10.000000)" fill-rule="nonzero">
                <path d="M0,19.1145833 L6.45833333,0.442708333 L8.61979167,0.442708333 L15.0651042,19.1145833 L11.8359375,19.1145833 L11.0416667,16.7447917 L4.0234375,16.7447917 L3.22916667,19.1145833 L0,19.1145833 Z M4.9609375,13.9973958 L10.1041667,13.9973958 L7.55208333,5.546875 L4.9609375,13.9973958 Z" id="A" fill="#394566"></path>
                <path d="M15.696875,15.4166667 C15.384375,14.6180556 15.228125,13.7803819 15.228125,12.9036458 C15.228125,12.0269097 15.384375,11.1914062 15.696875,10.3971354 C16.009375,9.60286458 16.4412326,8.90842014 16.9924479,8.31380208 C17.5436632,7.71918403 18.2185764,7.24609375 19.0171875,6.89453125 C19.8157986,6.54296875 20.6751736,6.3671875 21.5953125,6.3671875 C22.3505208,6.3671875 23.0861979,6.54947917 23.8023438,6.9140625 C24.5184896,7.27864583 25.0631944,7.76475694 25.4364583,8.37239583 L25.4364583,0.442708333 L28.3401042,0.442708333 L28.3401042,19.1145833 L25.4364583,19.1145833 L25.4364583,17.4348958 C25.0631944,18.0425347 24.5184896,18.5286458 23.8023438,18.8932292 C23.0861979,19.2578125 22.3505208,19.4401042 21.5953125,19.4401042 C20.6751736,19.4401042 19.8157986,19.2643229 19.0171875,18.9127604 C18.2185764,18.5611979 17.5436632,18.0881076 16.9924479,17.4934896 C16.4412326,16.8988715 16.009375,16.2065972 15.696875,15.4166667 Z M19.134375,10.1041667 C18.4659722,10.8680556 18.1317708,11.8012153 18.1317708,12.9036458 C18.1317708,14.0060764 18.4681424,14.9392361 19.1408854,15.703125 C19.8136285,16.4670139 20.6881944,16.8489583 21.7645833,16.8489583 C22.8496528,16.8489583 23.7328993,16.4648438 24.4143229,15.6966146 C25.0957465,14.9283854 25.4364583,13.9973958 25.4364583,12.9036458 C25.4364583,11.8098958 25.0957465,10.8789062 24.4143229,10.1106771 C23.7328993,9.34244792 22.8496528,8.95833333 21.7645833,8.95833333 C20.6881944,8.95833333 19.8114583,9.34027778 19.134375,10.1041667 Z" id="d" fill="#394566"></path>
                <path d="M31.4979167,15.4166667 C31.1854167,14.6180556 31.0291667,13.7803819 31.0291667,12.9036458 C31.0291667,12.0269097 31.1854167,11.1914062 31.4979167,10.3971354 C31.8104167,9.60286458 32.2422743,8.90842014 32.7934896,8.31380208 C33.3447049,7.71918403 34.0196181,7.24609375 34.8182292,6.89453125 C35.6168403,6.54296875 36.4762153,6.3671875 37.3963542,6.3671875 C38.1515625,6.3671875 38.8872396,6.54947917 39.6033854,6.9140625 C40.3195313,7.27864583 40.8642361,7.76475694 41.2375,8.37239583 L41.2375,0.442708333 L44.1411458,0.442708333 L44.1411458,19.1145833 L41.2375,19.1145833 L41.2375,17.4348958 C40.8642361,18.0425347 40.3195313,18.5286458 39.6033854,18.8932292 C38.8872396,19.2578125 38.1515625,19.4401042 37.3963542,19.4401042 C36.4762153,19.4401042 35.6168403,19.2643229 34.8182292,18.9127604 C34.0196181,18.5611979 33.3447049,18.0881076 32.7934896,17.4934896 C32.2422743,16.8988715 31.8104167,16.2065972 31.4979167,15.4166667 Z M34.9354167,10.1041667 C34.2670139,10.8680556 33.9328125,11.8012153 33.9328125,12.9036458 C33.9328125,14.0060764 34.269184,14.9392361 34.9419271,15.703125 C35.6146701,16.4670139 36.4892361,16.8489583 37.565625,16.8489583 C38.6506944,16.8489583 39.533941,16.4648438 40.2153646,15.6966146 C40.8967882,14.9283854 41.2375,13.9973958 41.2375,12.9036458 C41.2375,11.8098958 40.8967882,10.8789062 40.2153646,10.1106771 C39.533941,9.34244792 38.6506944,8.95833333 37.565625,8.95833333 C36.4892361,8.95833333 35.6125,9.34027778 34.9354167,10.1041667 Z" id="d" fill="#394566"></path>
                <path d="M46.8302083,9.77864583 C46.8302083,8.51128472 47.0559028,7.28949653 47.5072917,6.11328125 C47.9586806,4.93706597 48.5880208,3.89539931 49.3953125,2.98828125 C50.2026042,2.08116319 51.2203993,1.35633681 52.4486979,0.813802083 C53.6769965,0.271267361 55.0203125,0 56.4786458,0 C57.9369792,0 59.2802951,0.271267361 60.5085938,0.813802083 C61.7368924,1.35633681 62.7568576,2.08116319 63.5684896,2.98828125 C64.3801215,3.89539931 65.0116319,4.93706597 65.4630208,6.11328125 C65.9144097,7.28949653 66.1401042,8.51128472 66.1401042,9.77864583 C66.1401042,11.0460069 65.9144097,12.2677951 65.4630208,13.4440104 C65.0116319,14.6202257 64.3801215,15.6640625 63.5684896,16.5755208 C62.7568576,17.4869792 61.7368924,18.2139757 60.5085938,18.7565104 C59.2802951,19.2990451 57.9369792,19.5703125 56.4786458,19.5703125 C55.3067708,19.5703125 54.2065104,19.3945312 53.1778646,19.0429688 C52.1492188,18.6914062 51.2507813,18.2052951 50.4825521,17.5846354 C49.7143229,16.9639757 49.0546007,16.2413194 48.5033854,15.4166667 C47.9521701,14.5920139 47.5355035,13.7000868 47.2533854,12.7408854 C46.9712674,11.781684 46.8302083,10.7942708 46.8302083,9.77864583 Z M50.8145833,6.35416667 C50.3111111,7.41319444 50.059375,8.5546875 50.059375,9.77864583 C50.059375,11.0026042 50.3132813,12.1462674 50.8210938,13.2096354 C51.3289063,14.2730035 52.0797743,15.141059 53.0736979,15.8138021 C54.0676215,16.4865451 55.2026042,16.8229167 56.4786458,16.8229167 C57.2512153,16.8229167 57.9803819,16.6948785 58.6661458,16.4388021 C59.3519097,16.1827257 59.9508681,15.8311632 60.4630208,15.3841146 C60.9751736,14.937066 61.4157118,14.4184028 61.7846354,13.828125 C62.153559,13.2378472 62.4335069,12.5976562 62.6244792,11.9075521 C62.8154514,11.2174479 62.9109375,10.5078125 62.9109375,9.77864583 C62.9109375,8.8671875 62.7590278,7.99045139 62.4552083,7.1484375 C62.1513889,6.30642361 61.7303819,5.55772569 61.1921875,4.90234375 C60.6539931,4.24696181 59.9747396,3.72395833 59.1544271,3.33333333 C58.3341146,2.94270833 57.4421875,2.74739583 56.4786458,2.74739583 C55.2026042,2.74739583 54.0676215,3.08376736 53.0736979,3.75651042 C52.0797743,4.42925347 51.3267361,5.29513889 50.8145833,6.35416667 Z" id="O" fill="#2CC7DD"></path>
                <path d="M68.8291667,19.1145833 L68.8291667,6.69270833 L71.7328125,6.69270833 L71.7328125,8.42447917 C72.1147569,7.75607639 72.6529514,7.24609375 73.3473958,6.89453125 C74.0418403,6.54296875 74.8534722,6.3671875 75.7822917,6.3671875 C77.5010417,6.3671875 78.7467014,6.92708333 79.5192708,8.046875 C79.8144097,8.50694444 80.0205729,9.01692708 80.1377604,9.57682292 C80.2549479,10.1367188 80.3135417,10.8550347 80.3135417,11.7317708 L80.3135417,19.1145833 L77.4098958,19.1145833 L77.4098958,12.6822917 C77.4098958,10.1822917 76.5114583,8.93229167 74.7145833,8.93229167 C73.7336806,8.93229167 72.9914931,9.27734375 72.4880208,9.96744792 C71.9845486,10.6575521 71.7328125,11.5625 71.7328125,12.6822917 L71.7328125,19.1145833 L68.8291667,19.1145833 Z" id="n" fill="#2CC7DD"></path>
                <path d="M83.7317708,19.1145833 L83.7317708,6.69270833 L86.6354167,6.69270833 L86.6354167,8.42447917 C87.0173611,7.75607639 87.5555556,7.24609375 88.25,6.89453125 C88.9444444,6.54296875 89.7560764,6.3671875 90.6848958,6.3671875 C92.4036458,6.3671875 93.6493056,6.92708333 94.421875,8.046875 C94.7170139,8.50694444 94.9231771,9.01692708 95.0403646,9.57682292 C95.1575521,10.1367188 95.2161458,10.8550347 95.2161458,11.7317708 L95.2161458,19.1145833 L92.3125,19.1145833 L92.3125,12.6822917 C92.3125,10.1822917 91.4140625,8.93229167 89.6171875,8.93229167 C88.6362847,8.93229167 87.8940972,9.27734375 87.390625,9.96744792 C86.8871528,10.6575521 86.6354167,11.5625 86.6354167,12.6822917 L86.6354167,19.1145833 L83.7317708,19.1145833 Z" id="n" fill="#2CC7DD"></path>
            </g>
        </g>
    </g>
</svg>