<?xml version="1.0" encoding="UTF-8"?>
<svg width="160px" height="40px" viewBox="0 0 160 40" version="1.1" xmlns="http://www.w3.org/2000/svg" xmlns:xlink="http://www.w3.org/1999/xlink">
    <title>graphics / logos / logo-buckles</title>
    <g id="graphics-/-logos-/-logo-buckles" stroke="none" stroke-width="1" fill="none" fill-rule="evenodd">
        <g id="Logo">
            <g id="Text" transform="translate(38.162665, 12.486401)" fill="#212772" fill-rule="nonzero">
                <path d="M8.67454431,6.97487788 C9.48736644,7.20334209 10.1169705,7.61995329 10.5633564,8.22471149 C11.0097423,8.82946968 11.2329353,9.56861859 11.2329353,10.4421582 C11.2329353,11.6516746 10.8032055,12.5991291 9.94374607,13.2845217 C9.08428661,13.9699144 7.90169705,14.3126107 6.39597737,14.3126107 L1.23922062,14.3126107 C0.852796983,14.3126107 0.549654305,14.2050981 0.329792583,13.990073 C0.109930861,13.7750478 0,13.4726687 0,13.0829357 L0,1.33046803 C0,0.940734974 0.109930861,0.638355875 0.329792583,0.423330738 C0.549654305,0.208305601 0.852796983,0.100793033 1.23922062,0.100793033 L6.19610308,0.100793033 C7.66184789,0.100793033 8.81112508,0.426690506 9.64393463,1.07848545 C10.4767442,1.7302804 10.893149,2.64077746 10.893149,3.80997664 C10.893149,4.56256462 10.6966059,5.21435957 10.3035198,5.76536148 C9.91043369,6.3163634 9.36744186,6.71953553 8.67454431,6.97487788 Z M2.51841609,6.08789919 L5.77636706,6.08789919 C7.5485858,6.08789919 8.43469516,5.42266517 8.43469516,4.09219714 C8.43469516,3.42024358 8.21483344,2.92299795 7.77510999,2.60046025 C7.33538655,2.27792254 6.66913891,2.11665369 5.77636706,2.11665369 L2.51841609,2.11665369 L2.51841609,6.08789919 Z M6.11615336,12.29675 C7.04890006,12.29675 7.72847266,12.1287616 8.15487115,11.7927849 C8.58126964,11.4568081 8.79446889,10.9326843 8.79446889,10.2204135 C8.79446889,9.50814277 8.5779384,8.97729946 8.14487744,8.62788362 C7.71181647,8.27846777 7.03557511,8.10375985 6.11615336,8.10375985 L2.51841609,8.10375985 L2.51841609,12.29675 L6.11615336,12.29675 Z" id="B"></path>
                <path d="M20.9801383,4.25346599 C21.3665619,4.25346599 21.6730358,4.36097856 21.89956,4.57600369 C22.1260842,4.79102883 22.2393463,5.07996886 22.2393463,5.44282378 L22.2393463,13.2643631 C22.2393463,13.613779 22.122753,13.8959995 21.8895663,14.1110246 C21.6563796,14.3260497 21.353237,14.4335623 20.9801383,14.4335623 C20.6203646,14.4335623 20.3338781,14.3327693 20.1206788,14.1311832 C19.9074796,13.9295971 19.8008799,13.6540962 19.8008799,13.3046803 L19.8008799,12.8007152 C19.494406,13.338278 19.0813325,13.7515295 18.5616593,14.0404695 C18.0419862,14.3294095 17.4556882,14.4738795 16.8027656,14.4738795 C14.404274,14.4738795 13.2050283,13.1165333 13.2050283,10.401841 L13.2050283,5.44282378 C13.2050283,5.07996886 13.3182904,4.79102883 13.5448146,4.57600369 C13.7713388,4.36097856 14.0711502,4.25346599 14.4442489,4.25346599 C14.8306725,4.25346599 15.1371464,4.36097856 15.3636706,4.57600369 C15.5901948,4.79102883 15.7034569,5.07996886 15.7034569,5.44282378 L15.7034569,10.4219996 C15.7034569,11.1208313 15.843369,11.6382355 16.123193,11.9742123 C16.403017,12.3101891 16.8427404,12.4781775 17.4423633,12.4781775 C18.1352608,12.4781775 18.6915776,12.2463535 19.1113136,11.7827055 C19.5310497,11.3190576 19.7409177,10.7042201 19.7409177,9.93819304 L19.7409177,5.44282378 C19.7409177,5.07996886 19.8541798,4.79102883 20.080704,4.57600369 C20.3072282,4.36097856 20.6070396,4.25346599 20.9801383,4.25346599 Z" id="u"></path>
                <path d="M29.0084224,14.4738795 C28.0357008,14.4738795 27.1795726,14.2655739 26.4400377,13.8489627 C25.7005028,13.4323515 25.1308611,12.8410324 24.7311125,12.0750053 C24.3313639,11.3089783 24.1314896,10.4152801 24.1314896,9.39391067 C24.1314896,8.37254127 24.3413576,7.46876374 24.7610937,6.68257808 C25.1808297,5.89639243 25.7704588,5.28827446 26.5299811,4.85822419 C27.2895035,4.42817391 28.1622879,4.21314878 29.1483344,4.21314878 C29.6680075,4.21314878 30.1910119,4.28706367 30.7173476,4.43489345 C31.2436832,4.58272323 31.7067253,4.7843093 32.1064739,5.03965165 C32.5328724,5.32187214 32.7460717,5.67800752 32.7460717,6.10805779 C32.7460717,6.40371736 32.6761157,6.64226087 32.5362036,6.82368833 C32.3962916,7.00511579 32.2130735,7.09582952 31.9865493,7.09582952 C31.8399749,7.09582952 31.6867379,7.06223184 31.5268385,6.99503648 C31.366939,6.92784113 31.2070396,6.8472067 31.0471402,6.7531332 C30.7539912,6.57842528 30.4741672,6.4406748 30.2076681,6.33988177 C29.9411691,6.23908874 29.6346952,6.18869222 29.2882464,6.18869222 C28.4620993,6.18869222 27.8258328,6.46083341 27.3794469,7.00511579 C26.933061,7.54939816 26.709868,8.33222405 26.709868,9.35359345 C26.709868,10.3615238 26.933061,11.1376301 27.3794469,11.6819125 C27.8258328,12.2261949 28.4620993,12.4983361 29.2882464,12.4983361 C29.6213702,12.4983361 29.9178504,12.4479396 30.177687,12.3471465 C30.4375236,12.2463535 30.7273413,12.108603 31.0471402,11.9338951 C31.2470145,11.8129435 31.4202388,11.7222297 31.5668133,11.6617539 C31.7133878,11.6012781 31.8599623,11.5710402 32.0065368,11.5710402 C32.219736,11.5710402 32.3996229,11.6651137 32.5461974,11.8532607 C32.6927718,12.0414077 32.7660591,12.2765914 32.7660591,12.5588119 C32.7660591,12.7872761 32.7160905,12.9855024 32.6161534,13.1534908 C32.5162162,13.3214792 32.3529855,13.4726687 32.1264613,13.6070594 C31.7133878,13.8758409 31.2336895,14.0875062 30.6873664,14.2420556 C30.1410434,14.3966049 29.5813953,14.4738795 29.0084224,14.4738795 Z" id="c"></path>
                <path d="M42.9529855,12.3572258 C43.2194846,12.6125682 43.3527341,12.9015082 43.3527341,13.2240459 C43.3527341,13.5331446 43.2428033,13.8086455 43.0229415,14.0505488 C42.8030798,14.2924521 42.5465745,14.4134037 42.2534255,14.4134037 C41.9602766,14.4134037 41.687115,14.2924521 41.4339409,14.0505488 L36.7568825,9.77692419 L36.7568825,13.2240459 C36.7568825,13.613779 36.6369579,13.9094385 36.3971087,14.1110246 C36.1572596,14.3126107 35.8574481,14.4134037 35.4976744,14.4134037 C35.1379007,14.4134037 34.8414205,14.3126107 34.6082338,14.1110246 C34.3750471,13.9094385 34.2584538,13.613779 34.2584538,13.2240459 L34.2584538,1.18935779 C34.2584538,0.799624728 34.3750471,0.503965165 34.6082338,0.302379099 C34.8414205,0.100793033 35.1379007,0 35.4976744,0 C35.8574481,0 36.1572596,0.100793033 36.3971087,0.302379099 C36.6369579,0.503965165 36.7568825,0.799624728 36.7568825,1.18935779 L36.7568825,8.76899386 L41.0341923,4.63647951 C41.2740415,4.39457623 41.547203,4.2736246 41.8536769,4.2736246 C42.1601508,4.2736246 42.4266499,4.3878567 42.6531741,4.61632091 C42.8796983,4.84478512 42.9929604,5.11356654 42.9929604,5.42266517 C42.9929604,5.7317638 42.8663734,6.0139843 42.6131992,6.26932665 L39.4751728,9.21248321 L42.9529855,12.3572258 Z" id="k"></path>
                <path d="M46.0443746,14.4335623 C45.6846009,14.4335623 45.3881207,14.3294095 45.154934,14.1211039 C44.9217473,13.9127983 44.805154,13.613779 44.805154,13.2240459 L44.805154,1.18935779 C44.805154,0.799624728 44.9217473,0.503965165 45.154934,0.302379099 C45.3881207,0.100793033 45.6846009,0 46.0443746,0 C46.4041483,0 46.7039598,0.100793033 46.9438089,0.302379099 C47.1836581,0.503965165 47.3035827,0.799624728 47.3035827,1.18935779 L47.3035827,13.2240459 C47.3035827,13.613779 47.1836581,13.9127983 46.9438089,14.1211039 C46.7039598,14.3294095 46.4041483,14.4335623 46.0443746,14.4335623 Z" id="l"></path>
                <path d="M57.4505343,11.6113574 C57.6770585,11.6113574 57.8602766,11.6987114 58.0001886,11.8734193 C58.1401006,12.0481272 58.2100566,12.2833109 58.2100566,12.5789705 C58.2100566,12.9955817 57.9635449,13.3449976 57.4705217,13.627218 C57.0174733,13.8825604 56.5044626,14.0875062 55.9314896,14.2420556 C55.3585167,14.3966049 54.8121936,14.4738795 54.2925204,14.4738795 C52.720176,14.4738795 51.4742929,14.0169511 50.5548712,13.1030943 C49.6354494,12.1892374 49.1757385,10.9394038 49.1757385,9.35359345 C49.1757385,8.34566312 49.3756128,7.4519649 49.7753614,6.67249878 C50.17511,5.89303266 50.7380893,5.28827446 51.4642992,4.85822419 C52.1905091,4.42817391 53.013325,4.21314878 53.9327467,4.21314878 C54.8121936,4.21314878 55.5783784,4.40801531 56.2313011,4.79774837 C56.8842238,5.18748143 57.390572,5.73848334 57.7503457,6.45075411 C58.1101194,7.16302487 58.2900063,8.00296681 58.2900063,8.97057993 C58.2900063,9.54845998 58.0368322,9.83740001 57.530484,9.83740001 L51.6341923,9.83740001 C51.714142,10.7646959 51.9739786,11.4467288 52.4137021,11.8834986 C52.8534255,12.3202684 53.4930233,12.5386533 54.3324953,12.5386533 C54.7588938,12.5386533 55.1353237,12.484897 55.461785,12.3773844 C55.7882464,12.2698719 56.1580138,12.1220421 56.5710874,11.9338951 C56.970836,11.71887 57.2639849,11.6113574 57.4505343,11.6113574 Z M53.992709,5.98710615 C53.3131364,5.98710615 52.7701446,6.20213129 52.3637335,6.63218157 C51.9573224,7.06223184 51.714142,7.68042911 51.6341923,8.48677337 L56.1513514,8.48677337 C56.1247014,7.66699004 55.9248272,7.045433 55.5517285,6.62210226 C55.1786298,6.19877152 54.6589566,5.98710615 53.992709,5.98710615 Z" id="e"></path>
                <path d="M63.6999371,14.4738795 C62.2475173,14.4738795 61.0749214,14.1849395 60.1821496,13.6070594 C59.7557511,13.3517171 59.5425519,12.9888622 59.5425519,12.5184947 C59.5425519,12.2497133 59.6158391,12.0313284 59.7624136,11.86334 C59.9089881,11.6953516 60.0888749,11.6113574 60.3020742,11.6113574 C60.5285984,11.6113574 60.8417348,11.71887 61.2414833,11.9338951 C61.6678818,12.1354812 62.0576367,12.2900305 62.410748,12.397543 C62.7638592,12.5050556 63.2135764,12.5588119 63.7598994,12.5588119 C64.3195475,12.5588119 64.7559397,12.4647384 65.0690761,12.2765914 C65.3822124,12.0884444 65.5387806,11.8263825 65.5387806,11.4904058 C65.5387806,11.2619415 65.4754871,11.0805141 65.3489001,10.9461234 C65.222313,10.8117327 64.9957888,10.6874213 64.6693275,10.5731892 C64.3428661,10.458957 63.8465116,10.3279261 63.180264,10.1800963 C61.9943432,9.93819304 61.1448774,9.59549673 60.6318668,9.15200739 C60.1188561,8.70851804 59.8623507,8.09704031 59.8623507,7.31757419 C59.8623507,6.72625506 60.0355751,6.19205199 60.3820239,5.71496497 C60.7284727,5.23787794 61.2048397,4.86830349 61.8111251,4.6062416 C62.4174104,4.34417972 63.1069767,4.21314878 63.879824,4.21314878 C64.439472,4.21314878 64.9791326,4.2837039 65.4988058,4.42481414 C66.0184789,4.56592439 66.4848523,4.77087022 66.8979258,5.03965165 C67.3243243,5.30843307 67.5375236,5.66456845 67.5375236,6.10805779 C67.5375236,6.37683922 67.4642363,6.60194366 67.3176618,6.78337111 C67.1710874,6.96479857 66.9912005,7.0555123 66.7780013,7.0555123 C66.6314268,7.0555123 66.4881835,7.02527439 66.3482715,6.96479857 C66.2083595,6.90432275 66.0318039,6.81360902 65.8186047,6.69265739 C65.432181,6.49107132 65.0990572,6.33988177 64.8192332,6.23908874 C64.5394092,6.1382957 64.1929604,6.08789919 63.7798869,6.08789919 C63.2868636,6.08789919 62.8971087,6.18869222 62.6106223,6.39027829 C62.3241358,6.59186435 62.1808925,6.86736531 62.1808925,7.21678116 C62.1808925,7.55275793 62.327467,7.80810028 62.620616,7.98280821 C62.9137649,8.15751613 63.4800754,8.33222405 64.3195475,8.50693198 C65.2123193,8.69507897 65.9118793,8.91010411 66.4182275,9.15200739 C66.9245757,9.39391067 67.2876807,9.69628977 67.5075424,10.0591447 C67.7274041,10.4219996 67.837335,10.8856476 67.837335,11.4500885 C67.837335,12.3639454 67.4609051,13.0963747 66.7080453,13.6473767 C65.9551854,14.1983786 64.9524827,14.4738795 63.6999371,14.4738795 Z" id="s"></path>
            </g>
            <g id="Mark" transform="translate(0.000000, 0.078835)">
                <polygon id="Fill-1" fill="#8740FB" points="0 0 19.8971901 19.8971901 29.8099174 9.98429752 19.921157 0"></polygon>
                <polygon id="Fill-2" fill="#32E9DB" points="0.00014876033 0.000297520661 0.00014876033 19.9214545 9.96064463 9.96079339 19.9213058 0.000297520661"></polygon>
                <polygon id="Fill-3" fill="#2CE0E2" points="0.00014876033 39.8423306 19.9213058 39.8423306 9.96064463 29.8818347 0.00014876033 19.9213388"></polygon>
                <polygon id="Fill-4" fill="#9865FB" points="0.00014876033 39.8423306 19.9213058 39.8423306 29.8100661 29.8580331 19.8973388 19.9451405"></polygon>
                <polygon id="Fill-5" fill="#2FFDDC" points="0.00014876033 9.96084298 0.00014876033 19.9213388 9.96064463 9.96084298 0.00014876033 0.000347107438"></polygon>
                <polygon id="Fill-6" fill="#6C5AF6" points="0.00014876033 39.8423306 9.96064463 39.8423306 19.9213058 39.8423306 9.96064463 29.8818347"></polygon>
            </g>
        </g>
    </g>
</svg>