<?xml version="1.0" encoding="UTF-8"?>
<svg width="1600px" height="400px" viewBox="0 0 1600 400" version="1.1" xmlns="http://www.w3.org/2000/svg" xmlns:xlink="http://www.w3.org/1999/xlink">
    <title>graphics / backgrounds / patterns / background-waves</title>
    <defs>
        <rect id="path-1" x="0" y="0" width="1600" height="400"></rect>
    </defs>
    <g id="graphics-/-backgrounds-/-patterns-/-background-waves" stroke="none" stroke-width="1" fill="none" fill-rule="evenodd">
        <g id="pattern">
            <mask id="mask-2" fill="white">
                <use xlink:href="#path-1"></use>
            </mask>
            <use id="mask" fill-opacity="0" fill="#D8D8D8" xlink:href="#path-1"></use>
            <path d="M-71.4666667,292.947314 C-71.2728209,293.128419 95.361012,389.905959 319.216039,375.132382 C516.006659,362.144952 597.867525,279.121103 746.140931,279.097771 C894.416658,279.073327 1021.07403,374.920188 1173.10413,375.005719 C1398.24366,375.132382 1386.53639,278.958887 1600,278.888889" id="path5" stroke="#387AF2" stroke-width="1.5" mask="url(#mask-2)"></path>
            <path d="M-72.5333333,254.444444 C210.844444,254.444444 255.705128,356.666667 494.221061,356.666667 C732.736993,356.666667 777.598839,254.444444 1060.97778,254.444444 C1344.35556,254.444444 1303.40768,356.666667 1627.73333,356.666667" id="path4" stroke="#387AF2" stroke-width="1.5" mask="url(#mask-2)"></path>
            <path d="M-27.7333333,114.444444 C-27.7333333,114.444444 98.878308,265.842041 261.343998,299.23857 C423.808528,332.635099 536.738102,194.596113 696.758038,190.143243 C856.777973,185.690372 925.888254,272.521347 1122.90792,295.898917 C1319.92759,319.276487 1393.87251,185.690372 1569.90303,201.275419 C1745.93238,216.860466 1762.13333,211.294378 1762.13333,211.294378" id="path3" stroke="#387AF2" stroke-width="1.5" mask="url(#mask-2)"></path>
            <path d="M1680,57.7777778 C1400.00077,57.7777778 1400.00077,160 1120.00155,160 C840.001161,160 840.001161,57.7777778 560.000774,57.7777778 C280.000387,57.7777778 280.000387,160 0,160" id="path2" stroke="#387AF2" stroke-width="1.5" mask="url(#mask-2)" transform="translate(840.000000, 108.888889) scale(-1, 1) translate(-840.000000, -108.888889) "></path>
            <path d="M1600,71.015625 C1083.14062,10.6336806 932.50056,160 730.00112,160 C527.50084,160 527.50084,86.6666667 325.00056,86.6666667 C122.50028,86.6666667 122.50028,160 -80,160" id="path1" stroke="#387AF2" stroke-width="1.5" mask="url(#mask-2)"></path>
        </g>
    </g>
</svg>